<?xml version="1.0" encoding="UTF-8" standalone="no"?>
<svg
   width="2436.4448"
   height="1282.599"
   viewBox="0 0 187.85574 98.891461"
   version="1.1"
   id="svg87"
   sodipodi:docname="omnikey.svg"
   inkscape:version="1.3 (0e150ed, 2023-07-21)"
   xmlns:inkscape="http://www.inkscape.org/namespaces/inkscape"
   xmlns:sodipodi="http://sodipodi.sourceforge.net/DTD/sodipodi-0.dtd"
   xmlns="http://www.w3.org/2000/svg"
   xmlns:svg="http://www.w3.org/2000/svg">
  <defs
     id="defs87" />
  <sodipodi:namedview
     id="namedview87"
     pagecolor="#ffffff"
     bordercolor="#000000"
     borderopacity="0.25"
     inkscape:showpageshadow="2"
     inkscape:pageopacity="0.0"
     inkscape:pagecheckerboard="0"
     inkscape:deskcolor="#d1d1d1"
     inkscape:zoom="0.1924"
     inkscape:cx="1218.815"
     inkscape:cy="223.49272"
     inkscape:window-width="1712"
     inkscape:window-height="947"
     inkscape:window-x="1749"
     inkscape:window-y="103"
     inkscape:window-maximized="0"
     inkscape:current-layer="g87" />
  <g
     fill-rule="evenodd"
     clip-rule="evenodd"
     id="g87"
     transform="translate(-2.4501258,-46.932279)">
    <path
       d="m 189.922,100.727 v 20.055 c 0,13.547 -10.309,24.441 -23.855,24.441 H 27.365 c -13.548,0 -24.53,-10.982 -24.53,-24.527 v -19.969 z"
       fill="#929496"
       id="path2" />
    <path
       d="m 2.945,120.684 v -19.957 h 186.854 v 20 c 0,13.541 -10.271,24.367 -23.812,24.367 h -138.5 c -13.539,0 -24.542,-10.871 -24.542,-24.41 z"
       fill="#949698"
       id="path3" />
    <path
       d="m 3.056,120.67 v -19.943 h 186.62 v 19.947 c 0,13.533 -10.232,24.291 -23.768,24.291 H 27.613 c -13.534,0 -24.557,-10.76 -24.557,-24.295 z"
       fill="#989a9c"
       id="path4" />
    <path
       d="m 3.166,120.658 v -19.932 h 186.389 v 19.895 c 0,13.527 -10.197,24.215 -23.725,24.215 H 27.737 c -13.527,0 -24.571,-10.648 -24.571,-24.178 z"
       fill="#9a9c9e"
       id="path5" />
    <path
       d="m 3.274,120.648 v -19.922 h 186.159 v 19.842 c 0,13.521 -10.16,24.137 -23.68,24.137 H 27.862 c -13.522,0 -24.588,-10.537 -24.588,-24.057 z"
       fill="#9c9ea0"
       id="path6" />
    <path
       d="m 3.385,120.635 v -19.908 h 185.926 v 19.787 c 0,13.516 -10.121,24.062 -23.637,24.062 H 27.987 c -13.513,0 -24.602,-10.426 -24.602,-23.941 z"
       fill="#9ea0a2"
       id="path7" />
    <path
       d="m 3.495,120.623 v -19.896 h 185.694 v 19.734 c 0,13.508 -10.086,23.986 -23.594,23.986 H 28.111 c -13.507,0 -24.616,-10.314 -24.616,-23.824 z"
       fill="#a0a2a4"
       id="path8" />
    <path
       d="m 3.606,120.611 v -19.885 h 185.46 v 19.682 c 0,13.5 -10.049,23.91 -23.549,23.91 H 28.237 c -13.502,0 -24.631,-10.205 -24.631,-23.707 z"
       fill="#a2a4a6"
       id="path9" />
    <path
       d="m 3.716,120.602 v -19.875 h 185.229 v 19.629 c 0,13.494 -10.01,23.834 -23.506,23.834 H 28.361 C 14.866,144.189 3.716,134.096 3.716,120.602 Z"
       fill="#a6a8aa"
       id="path10" />
    <path
       d="m 3.827,120.588 v -19.861 h 184.998 v 19.576 c 0,13.488 -9.975,23.758 -23.465,23.758 H 28.486 c -13.488,0 -24.659,-9.985 -24.659,-23.473 z"
       fill="#a8aaac"
       id="path11" />
    <path
       d="m 3.937,120.576 v -19.85 h 184.764 v 19.521 c 0,13.482 -9.936,23.682 -23.418,23.682 H 28.61 C 15.13,143.93 3.937,134.059 3.937,120.576 Z"
       fill="#aaacae"
       id="path12" />
    <path
       d="M 4.047,120.564 V 100.726 H 188.58 v 19.469 c 0,13.475 -9.9,23.605 -23.375,23.605 H 28.735 C 15.261,143.801 4.047,134.039 4.047,120.564 Z"
       fill="#aeb0b2"
       id="path13" />
    <path
       d="m 4.158,120.555 v -19.828 h 184.299 v 19.416 c 0,13.467 -9.861,23.529 -23.33,23.529 H 28.86 c -13.467,0 -24.702,-9.651 -24.702,-23.117 z"
       fill="#b0b2b4"
       id="path14" />
    <path
       d="m 4.269,120.541 v -19.814 h 184.067 v 19.363 c 0,13.461 -9.826,23.453 -23.289,23.453 H 28.985 c -13.462,0 -24.716,-9.539 -24.716,-23.002 z"
       fill="#b3b4b6"
       id="path15" />
    <path
       d="m 4.379,120.529 v -19.803 h 183.834 v 19.309 c 0,13.457 -9.787,23.379 -23.244,23.379 H 29.11 c -13.456,0 -24.731,-9.43 -24.731,-22.885 z"
       fill="#b5b6b8"
       id="path16" />
    <path
       d="m 4.49,120.518 v -19.791 h 183.602 v 19.256 c 0,13.449 -9.752,23.301 -23.199,23.301 H 29.234 C 15.787,143.283 4.49,133.967 4.49,120.518 Z"
       fill="#b7b8ba"
       id="path17" />
    <path
       d="m 4.598,120.506 v -19.779 h 183.373 v 19.203 c 0,13.441 -9.715,23.225 -23.158,23.225 H 29.359 C 15.917,143.154 4.598,133.947 4.598,120.506 Z"
       fill="#b9babc"
       id="path18" />
    <path
       d="m 4.708,120.494 v -19.768 h 183.14 v 19.15 c 0,13.436 -9.678,23.148 -23.113,23.148 H 29.484 C 16.049,143.025 4.708,133.93 4.708,120.494 Z"
       fill="#bdbfc1"
       id="path19" />
    <path
       d="m 4.819,120.482 v -19.756 h 182.908 v 19.098 c 0,13.428 -9.641,23.072 -23.07,23.072 H 29.609 c -13.429,0 -24.79,-8.984 -24.79,-22.414 z"
       fill="#bfc1c3"
       id="path20" />
    <path
       d="m 4.929,120.471 v -19.744 h 182.674 v 19.043 c 0,13.424 -9.604,22.998 -23.025,22.998 H 29.734 c -13.423,0 -24.805,-8.875 -24.805,-22.297 z"
       fill="#c1c3c5"
       id="path21" />
    <path
       d="m 5.04,120.459 v -19.732 h 182.44 v 18.99 c 0,13.416 -9.564,22.922 -22.979,22.922 H 29.858 c -13.417,0 -24.818,-8.764 -24.818,-22.18 z"
       fill="#c6c7c9"
       id="path22" />
    <path
       d="m 5.15,120.447 v -19.721 h 182.209 v 18.938 c 0,13.408 -9.529,22.844 -22.938,22.844 H 29.983 c -13.408,0 -24.833,-8.653 -24.833,-22.061 z"
       fill="#c8c9cb"
       id="path23" />
    <path
       d="m 5.261,120.436 v -19.709 h 181.978 v 18.885 c 0,13.402 -9.492,22.77 -22.895,22.77 H 30.108 C 16.705,142.381 5.261,133.838 5.261,120.436 Z"
       fill="#cacbcd"
       id="path24" />
    <path
       d="m 5.371,120.422 v -19.695 h 181.747 v 18.83 c 0,13.396 -9.457,22.693 -22.852,22.693 H 30.233 c -13.397,0 -24.862,-8.432 -24.862,-21.828 z"
       fill="#cccdcf"
       id="path25" />
    <path
       d="m 5.482,120.412 v -19.686 h 181.512 v 18.777 c 0,13.391 -9.418,22.617 -22.809,22.617 H 30.358 C 16.967,142.121 5.482,133.801 5.482,120.412 Z"
       fill="#cecfd1"
       id="path26" />
    <path
       d="m 5.592,120.4 v -19.674 h 181.279 v 18.725 c 0,13.383 -9.381,22.541 -22.762,22.541 H 30.482 c -13.384,0 -24.89,-8.209 -24.89,-21.592 z"
       fill="#d0d1d3"
       id="path27" />
    <path
       d="M 5.703,120.389 V 100.727 H 186.75 v 18.672 c 0,13.375 -9.344,22.463 -22.719,22.463 H 30.607 C 17.231,141.861 5.703,133.764 5.703,120.389 Z"
       fill="#d5d6d7"
       id="path28" />
    <path
       d="m 5.813,120.377 v -19.65 h 180.814 v 18.619 c 0,13.369 -9.307,22.387 -22.674,22.387 H 30.73 C 17.362,141.732 5.813,133.746 5.813,120.377 Z"
       fill="#d7d8d9"
       id="path29" />
    <path
       d="m 5.921,120.365 v -19.639 h 180.586 v 18.564 c 0,13.363 -9.271,22.314 -22.635,22.314 H 30.854 C 17.493,141.605 5.921,133.727 5.921,120.365 Z"
       fill="#d9dadb"
       id="path30" />
    <path
       d="m 6.031,120.354 v -19.627 h 180.354 v 18.512 c 0,13.357 -9.234,22.238 -22.59,22.238 H 30.979 c -13.355,0 -24.948,-7.768 -24.948,-21.123 z"
       fill="#dbdcdd"
       id="path31" />
    <path
       d="m 6.142,120.342 v -19.615 h 180.12 v 18.459 c 0,13.35 -9.193,22.16 -22.545,22.16 H 31.104 c -13.35,0 -24.962,-7.657 -24.962,-21.004 z"
       fill="#dfe0e1"
       id="path32" />
    <path
       d="M 6.252,120.328 V 100.726 H 186.14 v 18.406 c 0,13.342 -9.16,22.084 -22.5,22.084 H 31.229 C 17.888,141.217 6.252,133.672 6.252,120.328 Z"
       fill="#e1e2e3"
       id="path33" />
    <path
       d="m 6.363,120.318 v -19.592 h 179.655 v 18.352 c 0,13.338 -9.119,22.008 -22.457,22.008 H 31.354 c -13.335,0 -24.991,-7.434 -24.991,-20.768 z"
       fill="#e4e4e5"
       id="path34" />
    <path
       d="m 6.473,120.307 v -19.58 h 179.425 v 18.299 c 0,13.332 -9.086,21.934 -22.416,21.934 H 31.479 C 18.149,140.959 6.473,133.635 6.473,120.307 Z"
       fill="#e6e6e7"
       id="path35" />
    <path
       d="m 6.584,120.293 v -19.566 h 179.191 v 18.246 c 0,13.322 -9.047,21.857 -22.369,21.857 H 31.603 c -13.322,0 -25.019,-7.213 -25.019,-20.537 z"
       fill="#e8e9ea"
       id="path36" />
    <path
       d="m 6.694,120.281 v -19.555 h 178.958 l 0.002,18.193 c 0,13.316 -9.012,21.781 -22.328,21.781 H 31.728 C 18.412,140.701 6.694,133.598 6.694,120.281 Z"
       fill="#ecedee"
       id="path37" />
    <path
       d="m 6.805,120.271 v -19.545 h 178.726 v 18.143 c 0,13.307 -8.973,21.701 -22.283,21.701 H 31.853 c -13.309,0 -25.048,-6.99 -25.048,-20.299 z"
       fill="#efeff0"
       id="path38" />
    <path
       d="m 6.915,120.26 v -19.533 h 178.493 v 18.086 c 0,13.305 -8.934,21.629 -22.238,21.629 H 31.978 C 18.675,140.441 6.915,133.562 6.915,120.26 Z"
       fill="#f1f1f2"
       id="path39" />
    <path
       d="m 7.026,120.246 v -19.52 h 178.263 v 18.035 c 0,13.297 -8.9,21.549 -22.197,21.549 H 32.103 C 18.806,140.311 7.026,133.543 7.026,120.246 Z"
       fill="#f3f3f4"
       id="path40" />
    <path
       d="m 7.134,120.234 v -19.508 h 178.032 v 17.982 c 0,13.287 -8.861,21.475 -22.152,21.475 H 32.227 C 18.937,140.184 7.134,133.525 7.134,120.234 Z"
       fill="#f8f8f8"
       id="path41" />
    <path
       d="m 7.244,120.225 v -19.498 h 177.799 v 17.93 c 0,13.281 -8.824,21.398 -22.109,21.398 H 32.352 c -13.284,0 -25.108,-6.549 -25.108,-19.83 z"
       fill="#fbfbfb"
       id="path42" />
    <path
       d="m 184.922,100.727 v 17.875 c 0,13.275 -8.787,21.322 -22.064,21.322 H 32.477 c -13.278,0 -25.122,-6.436 -25.122,-19.713 v -19.484 z"
       fill="#ffffff"
       id="path43" />
    <path
       d="m 27.582,47.533 h 137.596 c 14.262,0 24.742,10.817 24.742,25.492 v 35.292 H 2.84 V 73.025 C 2.84,58.35 13.32,47.533 27.582,47.533 Z"
       fill="#093b6a"
       id="path44" />
    <path
       d="M 2.949,108.316 V 73.134 c 0,-14.669 10.41,-25.479 24.666,-25.479 h 137.519 c 14.256,0 24.666,10.811 24.666,25.479 l -0.002,35.183 H 2.949 Z"
       fill="#0c3c6b"
       id="path45" />
    <path
       d="M 3.06,108.316 V 73.242 C 3.06,58.579 13.398,47.775 27.645,47.775 H 165.09 c 14.248,0 24.586,10.804 24.586,25.467 v 35.075 H 3.06 Z"
       fill="#0f3d6e"
       id="path46" />
    <path
       d="M 3.17,108.316 V 73.351 c 0,-14.655 10.267,-25.456 24.507,-25.456 h 137.368 c 14.242,0 24.508,10.801 24.508,25.456 v 34.966 H 3.17 Z"
       fill="#103e6f"
       id="path47" />
    <path
       d="M 3.281,108.316 V 73.458 c 0,-14.648 10.194,-25.442 24.427,-25.442 h 137.294 c 14.236,0 24.432,10.794 24.432,25.442 v 34.858 z"
       fill="#113f71"
       id="path48" />
    <path
       d="M 3.389,108.316 V 73.565 c 0,-14.64 10.125,-25.429 24.352,-25.429 h 137.216 c 14.229,0 24.354,10.789 24.354,25.429 v 34.751 z"
       fill="#114072"
       id="path49" />
    <path
       d="M 3.499,108.316 V 73.673 c 0,-14.634 10.054,-25.418 24.273,-25.418 h 137.142 c 14.221,0 24.273,10.784 24.273,25.418 v 34.643 z"
       fill="#124173"
       id="path50" />
    <path
       d="M 3.61,108.316 V 73.782 c 0,-14.628 9.982,-25.406 24.195,-25.406 h 137.066 c 14.213,0 24.195,10.778 24.195,25.406 v 34.535 H 3.61 Z"
       fill="#134275"
       id="path51" />
    <path
       d="M 3.72,108.316 3.718,73.888 c 0,-14.618 9.913,-25.392 24.119,-25.392 h 136.989 c 14.207,0 24.117,10.774 24.117,25.392 v 34.428 z"
       fill="#144478"
       id="path52" />
    <path
       d="m 3.829,108.316 v -34.32 c 0,-14.612 9.841,-25.379 24.04,-25.379 h 136.915 c 14.199,0 24.041,10.768 24.041,25.379 v 34.32 z"
       fill="#154579"
       id="path53" />
    <path
       d="M 3.939,108.316 V 74.105 C 3.939,59.5 13.708,48.736 27.9,48.736 h 136.837 c 14.191,0 23.963,10.763 23.963,25.369 v 34.211 z"
       fill="#15457a"
       id="path54" />
    <path
       d="M 4.049,108.316 V 74.213 c 0,-14.6 9.698,-25.356 23.882,-25.356 h 136.764 c 14.188,0 23.885,10.757 23.885,25.356 l -0.002,34.103 z"
       fill="#17477d"
       id="path55" />
    <path
       d="M 4.16,108.316 4.158,74.32 c 0,-14.591 9.628,-25.343 23.806,-25.343 H 164.65 c 14.18,0 23.807,10.752 23.807,25.343 v 33.997 H 4.16 Z"
       fill="#17487e"
       id="path56" />
    <path
       d="M 4.269,108.316 V 74.428 c 0,-14.583 9.554,-25.33 23.728,-25.33 h 136.61 c 14.172,0 23.729,10.747 23.729,25.33 l -0.002,33.888 z"
       fill="#184980"
       id="path57" />
    <path
       d="m 4.379,108.316 v -33.78 c 0,-14.577 9.483,-25.318 23.649,-25.318 h 136.537 c 14.164,0 23.648,10.742 23.648,25.318 v 33.78 z"
       fill="#184a81"
       id="path58" />
    <path
       d="M 4.49,108.316 4.487,74.645 c 0,-14.571 9.414,-25.306 23.573,-25.306 h 136.46 c 14.158,0 23.57,10.735 23.57,25.306 v 33.671 z"
       fill="#194b82"
       id="path59" />
    <path
       d="M 4.6,108.316 4.598,74.751 c 0,-14.561 9.342,-25.293 23.493,-25.293 h 136.386 c 14.15,0 23.494,10.733 23.494,25.293 l -0.004,33.565 z"
       fill="#194c84"
       id="path60" />
    <path
       d="M 4.708,108.316 V 74.86 c 0,-14.554 9.271,-25.281 23.416,-25.281 h 136.308 c 14.145,0 23.416,10.727 23.416,25.281 v 33.457 H 4.708 Z"
       fill="#1a4d87"
       id="path61" />
    <path
       d="M 4.819,108.316 V 74.968 c 0,-14.548 9.199,-25.269 23.335,-25.269 h 136.235 c 14.137,0 23.338,10.721 23.338,25.269 l -0.002,33.348 z"
       fill="#1b4e88"
       id="path62" />
    <path
       d="M 4.929,108.316 4.927,75.074 c 0,-14.54 9.13,-25.254 23.26,-25.254 h 136.157 c 14.131,0 23.26,10.715 23.26,25.254 v 33.242 z"
       fill="#1b4f89"
       id="path63" />
    <path
       d="M 5.038,108.316 V 75.183 c 0,-14.533 9.058,-25.242 23.182,-25.242 h 136.081 c 14.123,0 23.182,10.709 23.182,25.242 l -0.002,33.133 z"
       fill="#1c518c"
       id="path64" />
    <path
       d="M 5.148,108.316 V 75.292 c 0,-14.525 8.986,-25.23 23.103,-25.23 h 136.007 c 14.115,0 23.102,10.705 23.102,25.23 v 33.025 H 5.148 Z"
       fill="#1d528e"
       id="path65" />
    <path
       d="M 5.258,108.316 5.256,75.4 c 0,-14.52 8.917,-25.22 23.027,-25.22 h 135.929 c 14.111,0 23.025,10.7 23.025,25.22 v 32.917 H 5.258 Z"
       fill="#1d538f"
       id="path66" />
    <path
       d="M 5.369,108.316 5.367,75.506 c 0,-14.511 8.845,-25.205 22.947,-25.205 H 164.17 c 14.102,0 22.947,10.694 22.947,25.205 l -0.002,32.81 z"
       fill="#1d5390"
       id="path67" />
    <path
       d="M 5.477,108.316 V 75.615 c 0,-14.505 8.773,-25.193 22.87,-25.193 h 135.778 c 14.096,0 22.869,10.688 22.869,25.193 v 32.702 H 5.477 Z"
       fill="#1e5492"
       id="path68" />
    <path
       d="M 5.588,108.316 V 75.723 c 0,-14.497 8.702,-25.181 22.79,-25.181 h 135.705 c 14.088,0 22.791,10.684 22.791,25.181 l -0.002,32.593 z"
       fill="#1e5593"
       id="path69" />
    <path
       d="M 5.698,108.316 5.696,75.832 c 0,-14.491 8.632,-25.169 22.714,-25.169 h 135.627 c 14.082,0 22.713,10.678 22.713,25.169 v 32.485 H 5.698 Z"
       fill="#1f5796"
       id="path70" />
    <path
       d="M 5.809,108.316 5.806,75.938 c 0,-14.483 8.561,-25.156 22.637,-25.156 h 135.551 c 14.074,0 22.637,10.673 22.637,25.156 l -0.004,32.378 z"
       fill="#1f5897"
       id="path71" />
    <path
       d="m 5.917,108.316 v -32.27 c 0,-14.476 8.489,-25.144 22.557,-25.144 h 135.478 c 14.066,0 22.557,10.667 22.557,25.144 l -0.002,32.271 H 5.917 Z"
       fill="#1f5898"
       id="path72" />
    <path
       d="M 6.027,108.316 V 76.155 c 0,-14.469 8.417,-25.132 22.479,-25.132 h 135.4 c 14.061,0 22.479,10.663 22.479,25.132 v 32.162 H 6.027 Z"
       fill="#20599a"
       id="path73" />
    <path
       d="M 6.138,108.316 6.136,76.263 c 0,-14.462 8.348,-25.12 22.401,-25.12 h 135.327 c 14.053,0 22.4,10.658 22.4,25.12 l -0.002,32.053 z"
       fill="#205b9c"
       id="path74" />
    <path
       d="M 6.248,108.316 6.247,76.37 c 0,-14.454 8.276,-25.105 22.323,-25.105 h 135.249 c 14.047,0 22.322,10.651 22.322,25.105 v 31.947 H 6.248 Z"
       fill="#215c9d"
       id="path75" />
    <path
       d="M 6.357,108.316 V 76.478 c 0,-14.447 8.205,-25.094 22.243,-25.094 h 135.175 c 14.039,0 22.246,10.647 22.246,25.094 l -0.004,31.839 H 6.357 Z"
       fill="#215c9f"
       id="path76" />
    <path
       d="M 6.467,108.316 6.465,76.586 C 6.465,62.144 14.6,51.503 28.633,51.503 H 163.73 c 14.035,0 22.168,10.641 22.168,25.083 l -0.002,31.73 z"
       fill="#215da0"
       id="path77" />
    <path
       d="M 6.578,108.316 6.576,76.693 c 0,-14.432 8.063,-25.069 22.09,-25.069 h 135.022 c 14.025,0 22.09,10.637 22.09,25.069 l -0.002,31.624 H 6.578 Z"
       fill="#225ea1"
       id="path78" />
    <path
       d="M 6.688,108.316 6.686,76.801 c 0,-14.426 7.992,-25.057 22.01,-25.057 h 134.948 c 14.018,0 22.01,10.631 22.01,25.057 l -0.002,31.515 z"
       fill="#2260a4"
       id="path79" />
    <path
       d="M 6.796,108.316 6.794,76.91 c 0,-14.419 7.923,-25.044 21.935,-25.044 H 163.6 c 14.012,0 21.932,10.625 21.932,25.044 v 31.407 H 6.796 Z"
       fill="#2360a5"
       id="path80" />
    <path
       d="M 6.907,108.316 6.905,77.018 c 0,-14.413 7.851,-25.034 21.855,-25.034 h 134.796 c 14.004,0 21.854,10.621 21.854,25.034 l -0.002,31.298 z"
       fill="#2361a7"
       id="path81" />
    <path
       d="M 7.018,108.316 7.015,77.124 c 0,-14.403 7.779,-25.019 21.777,-25.019 h 134.719 c 13.998,0 21.777,10.616 21.777,25.019 l -0.002,31.192 z"
       fill="#2362a8"
       id="path82" />
    <path
       d="M 7.128,108.316 7.126,77.233 c 0,-14.397 7.708,-25.007 21.697,-25.007 h 134.646 c 13.988,0 21.699,10.61 21.699,25.007 l -0.002,31.083 z"
       fill="#2464ab"
       id="path83" />
    <path
       d="M 7.236,108.316 7.235,77.341 c 0,-14.391 7.638,-24.995 21.621,-24.995 h 134.568 c 13.984,0 21.621,10.604 21.621,24.995 l -0.002,30.976 H 7.236 Z"
       fill="#2465ad"
       id="path84" />
    <path
       d="M 7.347,108.316 7.345,77.448 c 0,-14.383 7.567,-24.981 21.544,-24.981 h 134.492 c 13.977,0 21.543,10.598 21.543,24.981 l -0.002,30.869 H 7.347 Z"
       fill="#2566af"
       id="path85" />
    <path
       d="m 15.155,97.34 c 0,16.963 9.252,20.963 24.803,20.963 h 27.681 c 15.55,0 24.802,-4 24.802,-20.963 V 80.058 c 0,-16.961 -9.252,-20.963 -24.802,-20.963 H 39.958 c -15.55,0 -24.803,4.002 -24.803,20.963 z M 32.882,84.879 c 0,-7.201 1.709,-11.6 10.809,-11.6 h 20.214 c 9.099,0 10.809,4.399 10.809,11.6 v 8.078 c 0,8.401 -1.71,11.6 -9.876,11.6 H 42.756 c -8.165,0 -9.874,-3.199 -9.874,-11.6 z m 72.493,32.785 h 17.262 V 95.42 h 7.619 l 24.881,22.244 h 24.416 L 145.496,88.06 175.975,59.735 h -23.481 l -21.771,21.282 h -8.086 V 59.735 h -17.262 z m -10.404,-36.972 9.238,7.075 -9.238,7.913 z"
       fill="#ffffff"
       id="path86" />
    <path
       d="m 19.623,127.045 c 0,4.758 2.669,5.879 7.159,5.879 h 7.99 c 4.488,0 7.159,-1.121 7.159,-5.879 v -4.85 c 0,-4.758 -2.671,-5.881 -7.159,-5.881 h -7.99 c -4.49,0 -7.159,1.123 -7.159,5.881 z m 5.115,-3.301 c 0,-2.021 0.495,-3.254 3.121,-3.254 h 5.834 c 2.626,0 3.119,1.232 3.119,3.254 v 1.752 c 0,2.355 -0.493,3.254 -2.85,3.254 H 27.59 c -2.356,0 -2.852,-0.898 -2.852,-3.254 z m 20.2,9.002 h 4.849 v -11.672 h 0.044 l 6.532,11.672 h 3.725 l 6.532,-11.672 h 0.044 v 11.672 h 4.848 v -16.252 h -7.655 l -5.633,10.461 -5.634,-10.461 h -7.652 z m 29.949,0 h 4.981 v -11.808 h 0.046 l 9.36,11.808 h 7.72 v -16.252 h -4.983 v 11.807 h -0.046 l -9.358,-11.807 h -7.72 z m 25.746,0 h 4.982 v -16.252 h -4.982 z m 8.615,0 h 4.984 v -6.242 h 2.2 l 7.181,6.242 h 7.049 l -9.832,-8.307 8.799,-7.945 h -6.779 l -6.286,5.971 h -2.332 v -5.971 h -4.984 z m 23.277,0 h 18.069 v -3.908 h -13.086 v -2.602 h 12.121 v -3.367 h -12.121 v -2.603 h 12.793 v -3.772 h -17.776 z m 28.549,0 h 4.985 v -5.656 l 9,-10.596 h -6.016 l -5.477,6.643 -5.476,-6.643 h -6.016 l 9,10.596 z"
       id="path87" />
  </g>
</svg>
