<?xml version="1.0" encoding="UTF-8" standalone="no"?>
<svg
   xmlns:svg="http://www.w3.org/2000/svg"
   xmlns="http://www.w3.org/2000/svg"
   version="1.0"
   width="234"
   height="88"
   id="svg7719">
  <defs
     id="defs7721" />
  <path
     d="M 0,-6.1617378e-15 L 234,-6.1617378e-15 L 234,88 L 0,88 L 0,-6.1617378e-15 z"
     id="path13509"
     style="fill:#fe000c" />
  <path
     d="M 46.859375,21.546875 C 44.035888,21.546875 41.6045,23.29565 40.671875,25.796875 L 40.671875,25.828125 L 24.703125,66.453125 L 34.296875,66.453125 L 37.953125,56.359375 L 55.765625,56.359375 L 59.640625,66.453125 L 69.453125,66.453125 L 53.015625,25.796875 C 52.07325,23.308475 49.6853,21.546875 46.859375,21.546875 z M 114.32812,21.578125 C 114.32812,26.615962 114.26783,36.649175 111.07812,43.515625 C 107.58753,51.027838 98.600698,55.146237 95.921875,55.171875 L 95.921875,66.296875 C 106.19837,65.262325 113.18151,55.208364 115.79688,45.453125 C 118.02283,37.157225 117.75343,23.0039 117.76563,21.578125 L 114.32812,21.578125 z M 119.85938,21.578125 C 119.85938,21.578125 119.92554,40.451539 119.45313,48.015625 C 118.63282,61.191287 114.98438,66.296872 114.98438,66.296875 L 129.29688,66.296875 C 129.29688,66.296875 125.3534,61.155527 124.45313,47.921875 C 123.92944,40.230225 123.92188,21.578125 123.92188,21.578125 L 119.85938,21.578125 z M 125.98438,21.578125 C 125.99659,23.0039 125.72778,37.157226 127.95313,45.453125 C 130.56787,55.208362 137.52039,65.262329 147.79688,66.296875 L 147.79688,55.171875 C 145.11681,55.146238 136.15882,51.027837 132.67188,43.515625 C 129.47791,36.649175 129.42188,26.615963 129.42188,21.578125 L 125.98438,21.578125 z M 67.109375,21.859375 C 65.543825,21.859375 64.265624,23.110588 64.265625,24.671875 L 64.265625,29.390625 L 78.203125,29.390625 L 78.203125,66.453125 L 87.171875,66.453125 L 87.171875,29.390625 L 101.07812,29.390625 L 101.07812,24.671875 C 101.07812,23.110588 99.830573,21.859376 98.265625,21.859375 L 67.109375,21.859375 z M 162.57812,21.859375 C 158.93739,21.859374 155.98438,24.812387 155.98438,28.453125 L 155.98438,66.421875 L 164.95312,66.421875 L 164.95312,31.171875 C 164.95312,30.066538 165.85082,29.140625 166.95312,29.140625 L 172.98438,29.140625 C 173.53309,29.140624 175.18968,29.1886 175.51562,29.234375 C 178.18958,29.453499 180.35388,31.372313 180.98438,33.890625 C 181.01794,33.993774 181.05859,34.098763 181.07812,34.203125 C 181.11291,34.356939 181.12108,34.521725 181.14062,34.671875 C 181.17298,34.905637 181.17188,35.147087 181.17188,35.390625 C 181.17189,37.709951 179.90893,39.713375 178.01562,40.765625 C 177.63233,40.992675 177.21497,41.189687 176.79688,41.359375 C 176.49964,41.494261 176.15697,41.644175 175.79688,41.765625 C 173.37806,42.618288 172.33765,43.107663 171.32812,44.078125 C 170.1947,45.2616 169.47267,46.871825 169.45312,48.640625 C 169.43727,50.301389 170.03174,51.809437 171.01562,52.984375 L 182.39062,66.421875 L 193.07812,66.421875 L 180.01562,50.640625 C 179.74829,50.297611 179.57812,49.881475 179.57812,49.421875 C 179.57812,49.006225 179.73523,48.65405 179.95312,48.328125 C 180.29431,47.925287 180.89039,47.676025 181.29688,47.484375 C 186.09852,45.295049 189.51562,40.71655 189.51562,35.390625 C 189.51562,28.247063 183.51648,22.373538 176.07812,21.921875 C 175.15162,21.830326 173.07812,21.859375 173.07812,21.859375 L 162.57812,21.859375 z M 200.35938,21.859375 L 200.35938,66.453125 L 209.29688,66.453125 L 209.29688,21.859375 L 200.35938,21.859375 z M 46.734375,32.265625 L 52.890625,48.828125 L 40.703125,48.828125 L 46.734375,32.265625 z"
     id="path13511"
     style="fill:#ffffff" />
</svg>
