<svg xmlns="http://www.w3.org/2000/svg" xmlns:xlink="http://www.w3.org/1999/xlink" xml:space="preserve" width="300" height="238.649"><defs><clipPath id="m" clipPathUnits="userSpaceOnUse"><use xlink:href="#a" width="100%" height="100%" transform="matrix(1.40466 0 0 -1.40895 -1641.344 192.084)"/></clipPath><clipPath id="k" clipPathUnits="userSpaceOnUse"><use xlink:href="#b" width="100%" height="100%"/></clipPath><clipPath id="j" clipPathUnits="userSpaceOnUse"><use xlink:href="#c" width="100%" height="100%" transform="matrix(1.40466 0 0 -1.40895 -1638.192 169.612)"/></clipPath><clipPath id="i" clipPathUnits="userSpaceOnUse"><use xlink:href="#d" width="100%" height="100%" transform="matrix(1.40466 0 0 -1.40895 -1625.922 156.739)"/></clipPath><clipPath id="h" clipPathUnits="userSpaceOnUse"><use xlink:href="#d" width="100%" height="100%" transform="matrix(1.40466 0 0 -1.40895 -1617.843 154.392)"/></clipPath><clipPath id="g" clipPathUnits="userSpaceOnUse"><use xlink:href="#d" width="100%" height="100%" transform="matrix(1.40466 0 0 -1.40895 -1604.2 163.375)"/></clipPath><clipPath id="f" clipPathUnits="userSpaceOnUse"><use xlink:href="#d" width="100%" height="100%" transform="matrix(1.40466 0 0 -1.40895 -1595.732 163.934)"/></clipPath><clipPath id="e" clipPathUnits="userSpaceOnUse"><use xlink:href="#d" width="100%" height="100%" transform="matrix(1.40466 0 0 -1.40895 -1588.265 157.163)"/></clipPath><path id="d" d="m 6.827,6.827 1218.898,0 0,1712.126 -1218.898,0 0,-1712.126 z"/><path id="c" d="m 6.827,6.827 1218.898,0 0,1712.126 -1218.898,0 0,-1712.126 z"/><path id="b" d="m 1127.2872,131.54814 12.3278,32.01726 42.7554,-16.36235 -12.3278,-32.01725 -42.7554,16.36234 z"/><path id="a" d="m 6.827,6.827 1218.898,0 0,1712.126 -1218.898,0 0,-1712.126 z"/><linearGradient id="l" x1="0" x2="1" y1="0" y2="0" gradientTransform="matrix(9.03566 23.46706 23.53868 -9.00816 1131.245 138.558)" gradientUnits="userSpaceOnUse" spreadMethod="pad"><stop offset="0" stop-color="#ee2722"/><stop offset="1" stop-color="#f4694f"/></linearGradient></defs><path d="m 0,0 c -0.444,1.106 -0.684,1.439 -1.356,1.952 -0.81,0.634 -1.336,0.82 -2.438,0.82 l -2.95,0 c -0.418,0 -0.751,-0.017 -1.02,-0.063 C -8.626,2.557 -9.16,1.817 -8.979,1.03 -8.941,0.879 -8.765,0.412 -8.466,-0.315 l 2.071,-5.123 c 0.568,-1.379 0.879,-1.787 1.807,-2.271 0.687,-0.361 0.984,-0.42 2.237,-0.42 l 4.866,0 -0.944,2.359 -4.305,0 -0.465,0 c -0.292,0.013 -0.544,0.194 -0.641,0.45 l -0.164,0.349 -1.838,4.55 c -0.084,0.211 -0.147,0.362 -0.16,0.409 -0.05,0.227 0.114,0.437 0.383,0.437 l 0.368,0 1.663,0 c 0.568,0 0.905,-0.151 1.031,-0.484 l 0.118,-0.286 1.278,-3.146 2.587,0 L 0,0 Z" clip-path="url(#e)" transform="matrix(4.14364 0 0 4.13102 37.352 226.209)"/><path d="m 0,0 c 0.7,-0.938 1.638,-1.468 2.61,-1.468 1.017,0 1.526,0.518 1.457,1.468 l -0.558,9.543 -2.7,0 0.139,-2.347 -3.663,0 -1.762,2.347 -2.7,0 L 0,0 Z m -1.037,4.975 2.103,0 0.214,-3.524 -2.317,3.524 z" clip-path="url(#f)" transform="matrix(4.14364 0 0 4.13102 68.292 198.236)"/><path d="m 0,0 c 0.505,-1.253 1.707,-2.056 3.142,-2.056 1.118,0 1.709,0.546 1.558,1.421 L 3.638,5.669 7.864,-0.635 c 0.587,-0.875 1.615,-1.421 2.665,-1.421 1.318,0 1.894,0.605 1.64,1.711 C 12.142,-0.24 12.112,-0.105 12.07,0 L 8.424,8.983 5.959,8.983 9.13,1.182 4.571,7.755 C 3.894,8.735 3.133,9.223 2.263,9.223 1.434,9.223 1.043,8.735 1.173,7.755 L 1.979,1.182 -1.18,8.983 -3.651,8.983 0,0 Z" clip-path="url(#g)" transform="matrix(4.14364 0 0 4.13102 103.381 200.548)"/><path d="m 0,0 c -1.651,0 -2.38,-0.593 -2.111,-1.758 0.038,-0.181 0.092,-0.332 0.168,-0.513 l 2.549,-6.258 c 0.597,-1.497 1.884,-2.372 3.455,-2.372 l 5.347,0 -0.942,2.359 -4.218,0 -0.452,0 c -0.116,0 -0.229,0.043 -0.36,0.101 -0.244,0.122 -0.408,0.337 -0.532,0.593 l -0.482,1.194 5.27,0 -0.963,2.36 -5.253,0 -0.492,1.207 c -0.033,0.059 -0.048,0.135 -0.067,0.21 -0.084,0.366 0.046,0.53 0.425,0.53 l 0.385,0 4.22,0 L 4.984,0 0,0 Z" clip-path="url(#h)" transform="matrix(4.14364 0 0 4.13102 159.911 237.658)"/><path d="m 0,0 4.184,0 c 0.653,0 0.995,-0.193 1.17,-0.635 L 5.682,-1.421 5.715,-1.556 C 5.762,-1.766 5.606,-1.947 5.337,-1.947 l -0.284,0 -1.87,0 c -1.198,0 -1.888,-0.757 -1.644,-1.817 0.029,-0.122 0.065,-0.21 0.109,-0.332 L 2.58,-6.392 C 2.847,-7.103 3.554,-7.86 4.235,-8.209 4.668,-8.42 5.265,-8.554 5.917,-8.554 l 5.236,0 -0.965,2.359 -4.168,0 c -0.65,0 -1.003,0.147 -1.159,0.526 l -0.302,0.74 -0.032,0.139 c -0.08,0.345 0.09,0.483 0.639,0.483 l 1.851,0 c 1.352,0 1.92,0.636 1.651,1.801 -0.032,0.134 -0.074,0.239 -0.116,0.357 L 7.66,0.047 c -0.578,1.421 -1.915,2.3 -3.518,2.3 l -5.099,0 L 0,0 Z" clip-path="url(#i)" transform="matrix(4.14364 0 0 4.13102 193.389 227.962)"/><path d="m 0,0 0.886,-2.2 4.573,0 L 4.58,0 0,0 Z" transform="matrix(4.14364 0 0 4.13102 21.458 218.754)"/><path fill="#ee2722" d="m 0,0 c -0.322,0.9 -1.479,1.632 -2.584,1.632 l -49.891,0 C -53.582,1.632 -54.217,0.9 -53.901,0 l 15.346,-40.678 c 0.324,-0.9 1.48,-1.632 2.586,-1.632 l 47.919,0 c 1.104,0 1.745,0.732 1.428,1.632 L 0,0 Z" clip-path="url(#j)" transform="matrix(4.14364 0 0 4.13102 244.231 174.784)"/><path fill="url(#l)" d="m 1142.567,149.667 c 0,0 -2.992,-0.073 -3.839,-2.357 l 0,0 c -0.842,-2.279 -4.372,-11.903 -4.372,-11.903 l 0,0 c 0,0 4.042,-6.564 17.49,-6.564 l 0,0 c 13.443,0 18.648,7.394 18.648,7.394 l 0,0 4.123,11.718 c 0,0 0.684,1.953 -1.32,1.953 l 0,0 -30.73,-0.241 z" clip-path="url(#k)" transform="matrix(5.82041 0 0 -5.82041 -6543.84 875.453)"/><path fill="#fff" d="M 0,0 -11.12,0 -21.31,7.495 -18.9,0 -36.692,0 c 0.776,-0.799 1.912,-1.287 3.855,-1.623 l 8.152,-1.443 c 3.249,-0.576 7.932,-2.203 9.225,-6.241 1.897,-5.942 -4.262,-7.17 -11.245,-7.17 -5.421,0 -12.752,0.979 -15.734,8.301 l 9.19,0 c 1.131,-2.758 3.553,-2.973 5.879,-2.973 1.994,0 3.337,0.492 2.944,1.712 -0.284,0.891 -1.043,1.442 -2.181,1.657 l -6.71,1.35 c -5.438,1.102 -11.41,3.579 -14.177,11.759 l 18.492,0 -5.087,15.906 8.389,0 1.823,-5.707 3.545,-2.443 3.194,8.15 11.149,0 L -12.112,8.209 0,0 Z" clip-path="url(#m)" transform="matrix(4.14364 0 0 4.13102 257.291 81.951)"/></svg>