<?xml version="1.0" encoding="UTF-8"?>
<!-- Created with Inkscape (http://www.inkscape.org/) -->
<svg width="1522.4" height="693.41" version="1.1" viewBox="0 0 1522.4 693.41" xmlns="http://www.w3.org/2000/svg">
 <g>
  <path d="m223.27 204.2c2.84-3.4 6.8-8.4934 6.8-13.587 0-5.6667-15.293-4.5333-17.56-4.5333h-86.707c-84.44 0-78.773 60.027-95.2 60.027-3.4 0-5.1067-2.84-5.1067-5.6666 0-3.4 2.84-12.453 3.4-15.293l16.44-61.147c1.1333-4.5334 2.2667-17 9.6267-17 5.6667 0 6.8 5.1066 7.9333 10.2 0.5733 4.5333 1.1333 9.0533 5.6667 11.32 6.24 2.84 18.707 2.2666 24.947 2.2666h188.13c3.4 0 11.907-1.6933 11.907 4.5334 0 2.8266-1.1333 3.96-2.84 6.2266l-218.17 305.23c-2.2667 3.96-8.5067 10.76-8.5067 15.293 0 7.92 15.307 5.0934 19.267 5.0934h107.68c51 0 86.133-9.0667 92.373-65.693 0.56-5.0933 0.56-13.587 7.36-13.587 9.0667 0 5.6667 13.027 5.6667 18.12v45.307c0 30.573 3.9733 32.28-23.8 32.28h-252.17c-3.9733 0-20.4 2.2534-20.4-5.6666 0-3.4 1.6933-5.0934 3.4-7.36l219.87-306.36"/>
  <path d="m498.61 161.73c107.68 0 197.21 74.747 197.21 184.04s-89.533 184.6-197.21 184.6c-102 0-197.77-81.547-197.77-184.6 0-103.07 95.773-184.04 197.77-184.04zm108.24 66.813c-27.2-32.28-64.6-51.533-107.11-51.533-44.2 0-85 18.693-112.2 53.24-26.067 32.267-35.707 74.747-35.707 115.52 0 42.467 10.2 85.507 37.973 118.35 27.2 32.853 66.867 50.4 109.93 50.4 43.64 0 82.173-20.947 109.37-54.36 26.64-33.973 35.133-71.92 35.133-114.39 0-43.613-9.0667-82.68-37.4-117.23"/>
  <path d="m917.88 161.73c107.67 0 197.2 74.747 197.2 184.04s-89.533 184.6-197.2 184.6c-102 0-197.77-81.547-197.77-184.6 0-103.07 95.773-184.04 197.77-184.04zm108.24 66.813c-27.2-32.28-64.613-51.533-107.11-51.533-44.2 0-85 18.693-112.2 53.24-26.08 32.267-35.707 74.747-35.707 115.52 0 42.467 10.2 85.507 37.973 118.35 27.2 32.853 66.867 50.4 109.93 50.4 43.627 0 82.173-20.947 109.37-54.36 26.627-33.973 35.133-71.92 35.133-114.39 0-43.613-9.0665-82.68-37.4-117.23"/>
  <path d="m1308.2 445.44 116.73-267.29c3.4-7.36 9.0667-7.36 15.293-7.36h62.907c6.24 0 16.44-2.8266 16.44 6.2267 0 7.9333-7.9333 9.0667-13.6 9.0667-7.3733 0-19.84-1.6934-24.933 4.5333-6.8133 7.92-4.5467 30.013-4.5467 40.2v233.88c0 9.0533-0.56 31.707 6.24 39.64 5.6667 6.7867 14.173 7.36 22.107 7.36 5.6667 0 17.56-1.1333 17.56 7.36 0 6.2267-6.2267 6.7867-10.76 6.7867-18.133 0-36.28-2.2534-54.413-2.2534-22.667 0-45.333 2.2534-67.427 2.2534-4.5333 0-10.773-0.56-10.773-6.7867 0-8.4933 11.907-7.36 17.573-7.36 8.4933 0 20.4-2.84 26.627-7.9333 9.64-7.92 8.5066-28.88 8.5066-39.067v-256.53h-3.9733l-125.8 294.47c-1.6933 3.9734-3.4 10.2-8.5066 10.2-5.6667 0-7.36-6.8-8.4934-10.76l-111.64-287.11h-3.96l-16.44 233.31c-2.2666 34.547-2.8266 63.427 37.4 63.427 5.6667 0 17.573-0.573 17.573 7.36 0 6.7867-7.3734 6.7867-12.467 6.7867-17 0-34-2.2534-51-2.2534-17 0-34 2.2534-50.44 2.2534-5.1067 0-9.0667-1.12-9.0667-6.7867 0-6.8 9.6267-7.36 14.734-7.36 31.733 0 33.44-14.72 35.133-42.48l17.573-250.85c2.2668-28.88 0-32.28-30.6-32.28-5.6666 0-13.6-1.1334-13.6-9.0667 0-9.0533 10.2-6.2267 16.427-6.2267h65.733c10.773 0 11.333 7.36 14.733 16.427l103.15 258.23"/>
  <path d="m14.053 119.05h1494.1v-119.05h-1494.1z" fill="#ed1c24"/>
  <path d="m14.053 693.41h1494.1v-119.05h-1494.1z" fill="#00adef"/>
 </g>
</svg>
