<?xml version="1.0" encoding="UTF-8" standalone="no"?>
<svg
   width="2042.7119"
   height="1788.4741"
   viewBox="0 0 157.49799 137.89565"
   version="1.1"
   id="svg5"
   sodipodi:docname="sst-logo-svg-vector.svg"
   inkscape:version="1.3 (0e150ed, 2023-07-21)"
   xmlns:inkscape="http://www.inkscape.org/namespaces/inkscape"
   xmlns:sodipodi="http://sodipodi.sourceforge.net/DTD/sodipodi-0.dtd"
   xmlns="http://www.w3.org/2000/svg"
   xmlns:svg="http://www.w3.org/2000/svg">
  <defs
     id="defs5" />
  <sodipodi:namedview
     id="namedview5"
     pagecolor="#ffffff"
     bordercolor="#000000"
     borderopacity="0.25"
     inkscape:showpageshadow="2"
     inkscape:pageopacity="0.0"
     inkscape:pagecheckerboard="0"
     inkscape:deskcolor="#d1d1d1"
     inkscape:zoom="0.0944"
     inkscape:cx="1048.7288"
     inkscape:cy="1027.5424"
     inkscape:window-width="1656"
     inkscape:window-height="947"
     inkscape:window-x="1931"
     inkscape:window-y="28"
     inkscape:window-maximized="0"
     inkscape:current-layer="g5" />
  <g
     fill-rule="evenodd"
     clip-rule="evenodd"
     id="g5"
     transform="translate(-15.17872,-16.812244)">
    <path
       fill="#ffffff"
       fill-opacity="0"
       d="M 0,0 H 192.756 V 192.756 H 0 Z"
       id="path1" />
    <path
       d="m 95.916,20.035 c 0.82,0 1.637,0.021 2.449,0.054 v 21.387 a 64.213,64.213 0 0 0 -4.898,0 V 20.089 a 60.31,60.31 0 0 1 2.449,-0.054 z m 4.768,0.188 c 1.652,0.13 3.285,0.328 4.898,0.588 V 42.16 a 64.222,64.222 0 0 0 -4.898,-0.553 z m 7.216,1.009 c 1.658,0.335 3.291,0.738 4.898,1.207 V 43.69 A 63.666,63.666 0 0 0 107.9,42.557 Z m 7.219,1.933 a 60.079,60.079 0 0 1 4.896,1.889 v 21.085 a 64.056,64.056 0 0 0 -4.896,-1.766 z m 7.215,2.958 a 59.976,59.976 0 0 1 4.898,2.672 v 20.826 a 64.034,64.034 0 0 0 -4.898,-2.482 z m 7.219,4.155 a 61.314,61.314 0 0 1 4.896,3.653 v 20.411 a 64.998,64.998 0 0 0 -4.896,-3.351 z m 7.217,5.675 a 61.146,61.146 0 0 1 4.896,5.028 v 19.695 a 65.128,65.128 0 0 0 -4.896,-4.499 z m 7.216,7.877 a 60.748,60.748 0 0 1 4.896,7.454 v 18.165 a 64.79,64.79 0 0 0 -4.896,-6.284 z m 7.217,12.072 a 59.997,59.997 0 0 1 4.896,17.893 v 9.562 A 64.174,64.174 0 0 0 151.203,73.083 Z M 91.147,41.606 c -1.65,0.123 -3.283,0.307 -4.897,0.553 V 20.812 a 60.61,60.61 0 0 1 4.897,-0.589 z m -7.216,0.951 A 64.003,64.003 0 0 0 79.034,43.69 V 22.439 a 59.508,59.508 0 0 1 4.897,-1.207 z m -7.217,1.816 a 63.62,63.62 0 0 0 -4.897,1.766 V 25.054 a 60.1,60.1 0 0 1 4.897,-1.889 z m -7.217,2.765 A 64.379,64.379 0 0 0 64.6,49.62 V 28.795 a 60.43,60.43 0 0 1 4.897,-2.672 z m -7.217,3.854 a 64.425,64.425 0 0 0 -4.897,3.352 V 33.932 a 60.673,60.673 0 0 1 4.897,-3.653 z m -7.217,5.186 a 64.725,64.725 0 0 0 -4.897,4.498 V 40.982 a 61.162,61.162 0 0 1 4.897,-5.028 z m -7.217,6.987 a 64.597,64.597 0 0 0 -4.897,6.283 V 51.285 a 60.948,60.948 0 0 1 4.897,-7.454 z m -7.217,9.919 a 63.927,63.927 0 0 0 -4.897,10.274 v -9.562 a 60.02,60.02 0 0 1 4.897,-17.895 z"
       fill="#808183"
       id="path3" />
    <path
       d="m 95.916,45.037 c 0.82,0 1.637,0.021 2.449,0.054 V 153.034 H 93.467 V 45.09 a 60.314,60.314 0 0 1 2.449,-0.053 z m 4.768,0.187 c 1.652,0.13 3.285,0.328 4.898,0.589 v 107.22 h -4.898 z m 7.216,1.009 a 60.04,60.04 0 0 1 4.898,1.207 V 153.033 H 107.9 Z m 7.219,1.933 a 60.447,60.447 0 0 1 4.896,1.889 v 102.978 h -4.896 z m 7.215,2.958 a 59.986,59.986 0 0 1 4.898,2.673 v 99.237 h -4.898 z m 7.219,4.156 a 61.314,61.314 0 0 1 4.896,3.653 v 93.342 c -0.309,0.254 -0.619,0.508 -0.932,0.758 h -3.965 V 55.28 Z m 7.217,5.675 a 61.146,61.146 0 0 1 4.896,5.028 v 79.24 a 61.372,61.372 0 0 1 -4.896,5.033 z m 7.216,7.877 a 60.748,60.748 0 0 1 4.896,7.454 v 58.642 a 60.875,60.875 0 0 1 -4.896,7.455 z m 7.217,12.072 a 60.005,60.005 0 0 1 4.896,17.893 v 13.65 a 60.024,60.024 0 0 1 -4.896,17.859 z M 91.147,153.033 H 86.25 V 45.813 a 60.61,60.61 0 0 1 4.897,-0.589 z m -7.216,0 H 79.034 V 47.44 a 59.92,59.92 0 0 1 4.897,-1.208 z m -7.217,0 H 71.817 V 50.055 a 60.1,60.1 0 0 1 4.897,-1.889 z m -7.217,0 H 64.6 V 53.796 a 61.064,61.064 0 0 1 4.897,-2.673 z m -7.217,0 h -3.965 c -0.314,-0.25 -0.624,-0.504 -0.932,-0.758 V 58.934 A 61.404,61.404 0 0 1 62.28,55.28 Z m -7.217,-2.777 a 61.38,61.38 0 0 1 -4.897,-5.033 v -79.24 a 61.321,61.321 0 0 1 4.897,-5.028 z m -7.217,-7.873 a 60.92,60.92 0 0 1 -4.897,-7.455 V 76.286 a 60.948,60.948 0 0 1 4.897,-7.454 z M 40.629,130.307 A 60.034,60.034 0 0 1 35.732,112.444 V 98.799 a 60.02,60.02 0 0 1 4.897,-17.895 z"
       fill="#e6e6e7"
       id="path4" />
    <path
       d="m 170.973,53.868 -2.725,20.035 h -17.322 l -7.152,54.22 h -26.236 l 1.039,-7.873 a 28.371,28.371 0 0 1 -3.617,2.924 c -6.223,4.24 -13.447,4.801 -23.733,4.801 H 62.491 l 7.114,-19.018 H 88.31 c 4.387,0 7.054,-0.305 8.993,-0.887 1.953,-0.588 3.086,-1.562 3.406,-2.91 0.182,-0.764 0.162,-1.438 -0.076,-2.023 -0.221,-0.586 -0.627,-0.994 -1.211,-1.189 -1.211,-0.496 -3.426,-0.939 -6.633,-1.365 C 79.75,98.925 71.319,93.397 74.872,78.452 79.565,58.711 97.239,53.869 114.286,53.869 h 56.687 z m -48,33.061 1.719,-13.026 -0.518,-0.599 h -7.943 c -4.873,0 -8.367,0.32 -10.455,0.941 -2.109,0.621 -3.324,1.65 -3.67,3.105 -0.16,0.674 -0.119,1.26 0.135,1.775 0.238,0.515 0.617,0.887 1.127,1.083 1.297,0.604 3.633,1.13 6.975,1.598 4.596,0.641 9.186,2.304 12.63,5.123 z M 72.522,73.304 h -1.399 c -4.873,0 -8.365,0.323 -10.455,0.941 -2.108,0.623 -3.324,1.65 -3.669,3.105 -0.16,0.674 -0.113,1.256 0.135,1.775 a 2.2,2.2 0 0 0 1.128,1.083 c 1.311,0.58 3.632,1.13 6.975,1.598 a 34.69,34.69 0 0 1 5.159,1.126 c -0.446,6.103 1.244,10.689 4.521,14.129 2.258,2.369 5.223,4.076 8.712,5.277 a 60.084,60.084 0 0 1 -0.668,2.894 H 67.036 l -0.909,2.43 -7.114,19.018 -0.282,0.756 c -3.415,0.438 -7.223,0.539 -11.58,0.539 H 18.416 l 7.114,-19.018 h 18.706 c 4.387,0 7.054,-0.305 8.992,-0.887 1.955,-0.588 3.086,-1.562 3.407,-2.91 0.182,-0.764 0.162,-1.438 -0.077,-2.023 -0.221,-0.586 -0.626,-0.994 -1.21,-1.189 -1.212,-0.496 -3.426,-0.939 -6.634,-1.365 C 35.675,98.925 27.244,93.397 30.797,78.452 35.49,58.709 53.164,53.868 70.21,53.868 h 21.53 a 39.354,39.354 0 0 0 -3.497,1.586 c -6.96,3.587 -12.614,9.236 -15.721,17.85 z"
       id="path5" />
  </g>
  <rect
     style="opacity:0;fill:#000000;stroke:#ffffff;stroke-width:2.31307;stroke-linecap:round;stroke-linejoin:round"
     id="rect5"
     width="155.18492"
     height="135.58258"
     x="1.156535"
     y="1.156535" />
</svg>
