<?xml version="1.0" encoding="UTF-8" standalone="no"?>
<svg
   xmlns:svg="http://www.w3.org/2000/svg"
   xmlns="http://www.w3.org/2000/svg"
   version="1.0"
   width="386"
   height="241"
   id="svg2">
  <defs
     id="defs22">
    <clipPath
       id="clippath1">
      <path
         d="M 0,550.918 L 0,792 L 386.145,792 L 386.145,550.918"
         id="path9" />
    </clipPath>
  </defs>
  <g
     transform="translate(-1.8177356,-551.68282)"
     style="fill:#00050c;fill-opacity:1;fill-rule:nonzero;stroke-width:0;stroke-linecap:butt;stroke-linejoin:miter;stroke-miterlimit:10"
     id="g13">
    <path
       d="M 368.48,774.688 C 368.559,778.469 366.828,783.703 361.75,787.078 C 358.605,789.125 354.418,790.254 349.645,790.34 C 345.406,790.418 341.871,789.848 338.848,788.59 L 338.84,788.59 C 337.371,787.965 337.176,787.273 337.242,785.359 C 337.348,782.582 337.34,780.098 337.434,778.668 C 337.434,778.668 337.484,777.824 337.484,777.801 C 337.523,777.34 337.328,776.055 338.332,776.039 C 339.434,776.016 339.129,777.152 339.137,777.535 C 339.148,778.148 339.012,778.852 339.25,779.762 C 340.289,783.957 344.164,786.313 350.188,786.203 C 357.227,786.074 361.301,781.223 361.211,776.867 C 361.117,772.422 360.281,770.086 353.254,765.098 L 349.656,762.555 C 340.809,756.313 338.574,751.809 338.477,746.934 C 338.309,738.84 344.691,733.844 354.938,733.656 C 357.734,733.605 360.102,733.785 362.375,734.23 C 363.926,734.496 364.492,734.539 365.051,734.527 C 365.383,734.523 366.387,734.504 366.41,735.617 L 366.383,736.18 C 366.316,737.133 366.023,739.262 366.102,743.008 C 366.113,743.617 366.406,745.441 365.309,745.355 C 364.672,745.309 364.793,744.223 364.715,743.723 C 364.621,742.945 364.621,741.598 363.805,740.547 C 363.227,739.805 360.277,737.273 353.52,737.395 C 348.047,737.496 344.531,740.754 344.523,745.125 C 344.52,748.883 346.664,751.281 354.117,756.281 C 354.117,756.281 356.355,757.793 356.355,757.793 C 366.344,764.555 368.367,769.109 368.48,774.688 z M 42.1758,764.609 C 42.1758,772.895 44.3359,777.117 47.2344,779.746 C 51.3828,783.516 56.8398,783.688 59.8555,783.688 C 63.5469,783.688 67.6406,783.059 71.6797,779.574 C 76.4531,775.461 77.0781,768.723 77.0781,762.379 L 77.0781,756.273 C 77.0781,747.59 77.0781,740.465 77.1914,738.637 C 77.3047,736.641 77.7617,735.668 79.2969,735.383 C 79.9766,735.27 80.3203,735.211 80.9453,735.211 C 81.625,735.211 81.9688,735.098 81.9688,734.699 C 81.9688,734.301 81.5703,734.184 80.7734,734.184 C 78.5586,734.184 74.9766,734.355 74.293,734.355 C 74.2344,734.355 70.6563,734.184 67.7578,734.184 C 66.9609,734.184 66.5625,734.301 66.5625,734.699 C 66.5625,735.098 66.9023,735.211 67.5273,735.211 C 68.1523,735.211 69.1211,735.27 69.5742,735.383 C 71.4492,735.781 71.9063,736.699 72.0195,738.637 C 72.1328,740.465 72.1328,747.59 72.1328,756.273 L 72.1328,763.41 C 72.1328,769.293 71.9609,774.434 68.8359,777.574 C 66.5625,779.859 63.4922,780.66 60.9922,780.66 C 59.0586,780.66 56.4414,780.434 53.8867,778.32 C 51.0977,776.035 49.4492,772.551 49.4492,764.266 L 49.4492,756.273 C 49.4492,747.59 49.4492,740.465 49.5664,738.637 C 49.6797,736.641 50.1328,735.668 51.668,735.383 C 52.3516,735.27 52.6914,735.211 53.3164,735.211 C 53.8867,735.211 54.2266,735.098 54.2266,734.699 C 54.2266,734.301 53.8281,734.184 52.9766,734.184 C 50.9297,734.184 47.3477,734.355 45.9844,734.355 C 44.2773,734.355 40.6953,734.184 37.6836,734.184 C 36.832,734.184 36.4336,734.301 36.4336,734.699 C 36.4336,735.098 36.7734,735.211 37.3984,735.211 C 38.1953,735.211 39.1641,735.27 39.6172,735.383 C 41.4922,735.781 41.9453,736.699 42.0625,738.637 C 42.1758,740.465 42.1758,747.59 42.1758,756.273 L 42.1758,764.609 z M 110.84,779.352 C 114.27,779.352 118.34,778.941 120.48,778.004 C 121.395,777.594 121.605,777.301 121.875,776.305 C 122.41,774.313 123.055,769.211 123.055,768.508 C 123.055,768.039 122.945,767.629 122.57,767.629 C 122.145,767.629 122.035,767.863 121.875,768.801 C 121.66,769.859 120.965,771.559 120.055,772.672 C 117.91,775.367 115.02,775.953 110.25,775.953 C 103.07,775.953 93.375,769.035 93.375,755.09 C 93.375,749.406 94.3945,743.84 98.3047,739.914 C 100.66,737.566 103.715,736.281 108.379,736.281 C 113.305,736.281 117.48,737.859 119.25,739.914 C 120.59,741.438 121.285,743.488 121.34,745.305 C 121.34,746.125 121.445,746.594 121.875,746.594 C 122.355,746.594 122.465,746.125 122.52,745.246 C 122.629,744.074 122.57,740.852 122.68,738.914 C 122.785,736.867 122.945,736.16 122.945,735.695 C 122.945,735.34 122.73,735.051 122.145,734.988 C 120.535,734.816 118.82,734.285 116.785,733.992 C 114.32,733.641 112.34,733.406 109.02,733.406 C 101.035,733.406 95.9492,735.75 92.0898,739.617 C 86.9492,744.777 85.8203,751.691 85.8203,755.676 C 85.8203,761.359 87.2148,767.922 92.4648,772.965 C 97.3398,777.594 103.504,779.352 110.84,779.352 z M 152.844,762.602 C 153.129,762.602 153.301,762.715 153.41,763 L 157.961,775.051 C 158.242,775.734 157.848,776.246 157.445,776.359 C 156.879,776.414 156.523,776.539 156.523,776.879 C 156.523,777.277 156.695,777.426 158.305,777.426 C 162.836,777.426 167.07,777.238 169.117,777.238 C 171.223,777.238 172.305,776.902 172.305,776.445 C 172.305,776.051 172.094,775.781 171.637,775.781 C 170.953,775.781 170.156,775.781 169.305,775.613 C 168.109,775.328 166.172,774.293 164.012,769.176 C 160.176,760.074 150.949,737.094 149.762,734.363 C 149.191,733.055 148.711,732.801 148.195,732.801 C 147.629,732.801 147.16,733.844 146.477,735.492 L 132.133,771.891 C 130.992,774.73 129.918,776.836 127.305,777.176 C 126.848,777.231 126.316,777.488 125.805,777.488 C 125.352,777.488 125,777.715 125.055,778.051 C 125.133,778.535 125.188,778.547 125.926,778.547 C 129.199,778.547 132.137,778.301 132.551,778.301 C 134.313,778.301 136.813,778.109 138.621,778.07 C 139.246,778.059 139.648,777.988 139.648,777.535 C 139.648,777.191 139.457,777.07 138.773,777.07 L 137.742,776.926 C 135.977,776.926 135.652,776.066 135.652,775.043 C 135.652,774.363 135.938,772.996 136.508,771.578 L 139.656,763.059 C 139.77,762.715 139.883,762.602 140.168,762.602 L 152.844,762.602 z M 141.305,759.762 C 141.074,759.762 141.02,759.59 141.074,759.363 L 146.309,745.383 C 146.363,745.156 146.477,744.871 146.645,744.871 C 146.816,744.871 146.875,745.156 146.934,745.383 L 152.051,759.418 C 152.105,759.59 152.051,759.762 151.766,759.762 L 141.305,759.762 z M 233.645,762.602 C 233.926,762.602 234.09,762.715 234.203,763 L 238.738,776.066 C 239.016,776.75 238.625,777.262 238.234,777.375 C 237.68,777.43 237.457,777.543 237.457,777.887 C 237.457,778.285 238.121,778.379 239.125,778.438 C 243.582,778.551 248.348,778.906 250.328,778.996 C 252.398,779.09 252.387,778.816 252.387,778.363 C 252.387,777.965 252.109,777.906 251.664,777.906 C 250.996,777.906 251.059,777.785 250.223,777.613 C 249.051,777.328 247.586,776.328 245.469,771.211 C 241.906,762.57 232.227,737.82 230.887,734.695 C 230.16,732.992 229.34,733.098 229.293,733.098 C 228.605,733.082 228.074,733.844 227.406,735.492 L 213.422,771.188 C 212.309,774.027 211.25,775.961 208.688,776.301 C 208.242,776.359 207.461,776.414 206.961,776.414 C 206.516,776.414 206.289,776.531 206.289,776.871 C 206.289,777.324 206.625,777.438 207.352,777.438 C 210.246,777.438 213.316,777.477 213.93,777.477 C 215.656,777.477 218.047,777.672 219.828,777.672 C 220.441,777.672 220.777,777.559 220.777,777.106 C 220.777,776.766 220.609,776.648 219.941,776.648 L 219.105,776.648 C 217.379,776.648 216.875,775.91 216.875,774.887 C 216.875,774.207 217.156,772.84 217.715,771.422 L 220.723,763.059 C 220.832,762.715 220.945,762.602 221.223,762.602 L 233.645,762.602 z M 222.336,759.762 C 222.113,759.762 222.059,759.59 222.113,759.363 L 227.238,745.383 C 227.293,745.156 227.406,744.871 227.574,744.871 C 227.742,744.871 227.797,745.156 227.852,745.383 L 232.867,759.418 C 232.922,759.59 232.867,759.762 232.59,759.762 L 222.336,759.762 z M 259.539,761.449 C 259.566,766.82 259.578,772.234 259.578,774.777 C 259.359,776.469 259.082,777.754 257.949,777.988 C 257.438,778.106 257.891,778.059 256.898,778.164 C 256.219,778.238 256.102,778.394 256.102,778.684 C 256.102,779.094 256.512,779.344 256.969,779.379 C 259.223,779.539 263.047,779.769 264.129,779.879 C 265.02,779.902 267.547,780.109 270.844,780.316 C 271.297,780.344 271.691,780.117 271.688,779.707 C 271.688,779.414 271.637,779.102 270.938,778.949 C 269.906,778.777 269.582,778.582 269.031,778.457 C 266.5,777.051 266.895,772.945 266.895,766.238 L 266.867,760.988 C 266.867,760.641 266.988,760.125 267.273,760.125 L 273.109,760.148 C 273.508,760.148 274.344,760.262 274.629,760.613 C 275.371,761.488 279.871,770.289 282.16,773.496 C 285.367,777.992 286.074,780.055 288.488,781.606 C 289.914,782.523 291.469,783.188 294.676,783.508 L 299.75,783.805 C 300.594,783.867 301.602,783.734 301.645,783.133 C 301.684,782.672 301.328,782.477 300.688,782.316 C 300.121,782.176 299.789,782.113 299.164,781.996 C 298.313,781.82 296.637,781.484 293.438,778.098 C 290.324,774.762 285.402,764.836 280.094,758.023 C 285.813,753.238 286.582,749.004 286.559,744.684 C 286.539,740.773 284.25,737.797 282.652,736.688 C 279.57,734.527 275.758,734.023 272.176,734.023 C 270.414,734.023 265.348,734.199 263.414,734.199 C 262.223,734.199 257.918,734.102 254.906,734.102 C 254.055,734.102 253.656,734.219 253.656,734.625 C 253.66,735.035 254,735.305 254.629,735.305 C 255.422,735.305 256.391,735.363 256.844,735.48 C 258.723,735.891 259.184,736.824 259.309,738.809 C 259.43,740.676 259.551,743.141 259.551,751.066 L 259.539,761.449 z M 266.844,738.617 C 266.84,738.148 266.68,737.641 267.441,737.246 C 267.973,736.973 269.203,736.711 271.441,736.773 C 274.797,736.773 279.824,739.313 279.867,747.602 C 279.891,752.387 278.258,755.648 276.555,756.934 C 275.535,757.691 274.801,757.926 272.527,757.926 C 271.105,757.926 269.398,757.75 268.203,757.34 C 267.805,757.168 266.801,756.762 266.797,756.121 L 266.844,738.617 z M 309.391,767.105 C 309.391,772.199 309.379,777.203 309.379,779.879 C 309.379,782.684 308.895,783.125 307.699,783.375 C 307.191,783.488 306.914,783.473 306.063,783.473 C 305.383,783.473 305.145,783.801 305.148,784.094 C 305.152,784.508 305.648,784.793 306.387,784.793 C 309.578,785.055 312.984,785.574 313.387,785.574 C 315.063,785.742 316.637,786.063 320.359,786.395 C 320.191,786.395 321.523,786.539 321.551,785.867 C 321.551,785.57 321.414,785.254 320.824,785.023 C 319.945,784.82 319.895,784.988 318.73,784.586 C 317.395,784.125 317.188,781.867 317.191,780.894 C 317.211,778.43 317.211,772.852 317.258,767.129 L 317.238,737.602 L 323.977,737.789 C 329.035,737.902 330.645,739.488 330.762,740.988 L 330.816,741.625 C 330.875,742.492 330.988,742.781 331.441,742.781 C 331.781,742.781 331.895,742.438 331.953,741.859 C 331.953,740.352 332.125,736.363 332.125,735.148 C 332.125,734.281 332.066,733.934 331.672,733.934 C 331.441,733.934 330.988,734.051 330.137,734.223 C 329.281,734.34 328.031,734.512 326.215,734.512 L 304.934,734.43 C 303.059,734.43 300.898,734.313 299.25,734.141 C 297.828,734.023 296.555,733.844 295.746,733.844 C 295.227,733.844 295.336,734.496 295.289,735.266 C 295.234,736.145 295.313,740.34 295.313,741.266 C 295.313,741.902 295.617,742.188 296.016,742.188 C 296.355,742.188 296.508,741.715 296.535,741.238 C 296.59,740.422 296.535,740.48 296.898,739.41 C 297.395,737.953 299.082,737.82 302.477,737.824 L 309.355,737.695 L 309.391,767.105 z M 186.527,777.84 C 189.934,777.84 193.559,777.324 196.816,775.488 C 201.551,772.77 202.648,768.926 202.664,765.574 C 202.688,760.074 199.867,756.129 191.965,751.051 L 190.148,749.887 C 184.801,746.414 183.328,744.453 183.336,741.82 C 183.336,738.379 186.875,735.672 191.68,735.488 C 195.93,735.328 197.789,737.035 198.813,738.066 C 200.449,739.723 200.184,741.047 200.18,741.57 C 200.176,742.27 200.422,742.859 200.883,742.844 C 201.414,742.828 201.613,742.355 201.617,741.074 C 201.637,736.527 201.906,734.824 201.91,734.063 C 201.918,733.43 201.113,733.359 200.508,733.355 C 198.48,733.336 196.504,732.59 192.246,732.762 C 184.32,733.086 177.375,736.703 177.375,744.152 C 177.375,748.762 180.184,752.234 187.219,756.992 L 190.184,759 C 195.57,762.648 196.133,765.73 196.121,768.547 C 196.113,771.59 193.238,775.094 187.426,775.109 C 183.461,775.121 179.715,773.605 178.32,769.434 C 178.004,768.477 177.754,767.293 177.754,766.555 C 177.754,766.105 177.691,765.598 177.121,765.602 C 176.617,765.609 176.43,766.23 176.367,767.078 C 176.301,767.984 176.051,771.367 176.051,774.465 C 176.051,775.703 176.242,775.984 177.25,776.379 C 179.965,777.445 182.82,777.84 186.527,777.84 z M 14.3047,784.254 C 13.4414,782.824 13.0938,768.121 13.0938,760.805 L 13.0938,750.539 C 13.0938,741.852 12.9688,740.582 13.0938,738.754 C 13.2188,736.75 14.4922,735.734 16.1797,735.445 C 16.9297,735.332 17.293,735.313 17.9805,735.313 C 18.7305,735.313 19.2539,735.219 19.2539,734.816 C 19.2539,734.418 18.8555,734.281 17.9805,734.281 C 15.707,734.285 11.7148,734.422 9.93359,734.426 C 8.24609,734.426 4.30859,734.258 1.375,734.262 C 0.4375,734.266 0,734.379 0,734.777 C 0,735.18 0.375,735.293 1.0625,735.293 C 1.875,735.293 2.625,735.348 3.125,735.461 C 5.1875,735.859 5.68359,736.773 5.80859,738.715 C 5.93359,740.543 5.93359,742.145 5.93359,750.832 L 5.93359,760.891 C 5.93359,766.148 5.94922,781.383 5.94922,784.113 C 5.94922,786.68 5.94531,789.344 4.14063,790.262 C 3.1875,790.746 3.11328,790.77 2.57813,791 C 1.89063,791.301 1.75391,791.727 1.91016,792 C 2.44141,792.93 3.91797,792.059 6.62109,791.727 L 33.0156,787.211 C 33.2227,787.113 34.4961,786.66 34.8906,785.266 C 35.3164,783.77 35.1289,784.352 35.8008,781.629 C 36.6797,778.063 37.0664,776.477 37.0664,776.234 C 37.0664,775.547 36.957,775.266 36.5234,775.266 C 36.0234,775.266 35.8633,775.906 35.6914,776.402 C 35.293,777.531 34.4102,778.965 33.5977,780.375 C 32.7422,781.391 31.332,783.332 26.9375,784.258 C 25.3984,784.582 15.7813,786.719 14.3047,784.254 z M 379.988,790.363 L 379.988,783.91 L 381.273,783.91 L 382.797,788.473 C 382.938,788.898 383.039,789.215 383.105,789.426 C 383.18,789.191 383.297,788.848 383.453,788.395 L 385.016,783.91 L 386.145,783.91 L 386.145,790.363 L 385.316,790.363 L 385.316,784.961 L 383.434,790.363 L 382.672,790.363 L 380.816,784.863 L 380.816,790.363 L 379.988,790.363 z M 375.785,790.363 L 375.785,784.676 L 373.66,784.676 L 373.66,783.91 L 378.77,783.91 L 378.77,784.676 L 376.645,784.676 L 376.645,790.363 L 375.785,790.363"
       style="fill:#00050c;fill-opacity:1"
       id="path15" />
  </g>
  <g
     transform="translate(-1.8177356,-551.68282)"
     style="fill:#ffd73a;fill-opacity:1;fill-rule:nonzero;stroke-width:0;stroke-linecap:butt;stroke-linejoin:miter;stroke-miterlimit:10"
     id="g17">
    <path
       d="M 247.992,592.156 C 247.938,591.91 247.707,591.746 247.453,591.773 L 243.176,592.258 C 243.188,592.258 237.391,593.105 235.121,593.437 C 234.145,590.016 232.363,585.477 229.137,580.883 C 230.129,579.895 234.855,575.191 234.855,575.191 C 234.852,575.203 238.063,572.012 238.063,572.012 C 238.238,571.836 238.262,571.547 238.105,571.348 C 237.945,571.148 237.668,571.098 237.449,571.23 L 234.008,573.371 C 234.008,573.371 228.766,576.809 226.926,578.027 C 224.895,575.633 222.453,573.297 219.465,571.176 C 218.281,570.344 217.074,569.609 215.848,568.934 C 216.73,566.777 219.16,560.848 219.16,560.848 C 219.156,560.863 220.543,557.48 220.543,557.48 C 220.641,557.246 220.547,556.973 220.324,556.852 C 220.102,556.727 219.824,556.789 219.68,556.996 L 217.77,559.684 C 217.77,559.684 213.98,565.305 212.617,567.332 C 208.129,565.371 203.441,564.348 198.766,564.172 C 198.516,561.605 197.871,554.941 197.871,554.941 C 197.871,554.953 197.523,551.371 197.523,551.371 C 197.496,551.117 197.285,550.922 197.031,550.918 C 197.031,550.918 197.031,550.918 197.031,550.918 C 196.777,550.914 196.563,551.098 196.531,551.348 L 196.105,554.57 C 196.105,554.57 195.352,561.59 195.074,564.195 C 190.195,564.477 185.402,565.672 180.934,567.687 C 180.09,566.109 176.301,559.051 176.301,559.051 C 176.309,559.062 174.617,555.91 174.617,555.91 C 174.5,555.687 174.23,555.586 173.992,555.68 C 173.801,555.754 173.68,555.937 173.676,556.133 C 173.676,556.18 173.684,556.227 173.695,556.273 L 174.531,559.383 C 176.109,564.652 177.047,567.793 177.535,569.422 C 173.629,571.641 170.059,574.527 167,578.004 C 164.949,576.508 158.883,572.074 158.883,572.074 C 158.898,572.082 155.934,569.906 155.934,569.906 C 155.727,569.758 155.441,569.781 155.27,569.969 C 155.18,570.062 155.137,570.18 155.133,570.301 C 155.133,570.418 155.172,570.535 155.254,570.633 L 157.41,573.141 C 157.41,573.141 162.793,579.09 164.559,581.043 C 162.746,583.574 160.254,588.031 159.438,590.789 C 160.574,588.141 166.121,591.016 167.777,588.449 C 178.742,571.484 201.508,565.172 219.66,577.457 C 225.254,581.25 229.387,586.34 232.059,591.891 C 232.059,591.891 235.086,596.797 235.621,606.648 C 235.387,610.09 235.586,612.234 234.77,615.758 C 236.57,609.641 236.77,605.02 236.285,599.16 C 236.27,599.008 236.188,598.184 235.949,596.898 C 238.309,596.059 247.672,592.738 247.672,592.738 C 247.91,592.656 248.051,592.406 247.992,592.156 z M 159.477,655.852 C 148.535,661.258 140.223,671.758 138.02,684.699 C 137.516,687.652 137.359,690.594 137.516,693.465 C 137.32,690.625 143.77,690.871 144.273,687.941 C 146.527,674.691 155.691,664.348 167.441,659.957 C 173.258,657.781 179.703,657.059 186.27,658.176 C 192.695,659.27 198.438,662 203.152,665.848 C 203.152,665.848 207.715,668.82 212.484,677.379 C 214.078,680.48 215.25,683.812 215.898,687.293 C 215.281,681.152 213.219,675.344 210.004,670.262 C 210.004,670.262 208.059,666.805 203.871,662.879 C 200.914,659.395 194.68,649.898 208.973,644.383 C 208.973,644.383 220.672,640.535 227.691,630.273 C 229.387,627.797 230.887,625.27 232.008,622.617 C 230.934,625.254 225.262,622.191 223.52,624.598 C 216.887,633.805 206.754,638.98 196.25,639.633 C 195.191,639.57 194.305,639.344 193.676,638.906 C 192.133,637.828 192.148,636.039 193.027,634.348 C 193.465,633.512 193.922,633.055 194.73,632.621 C 194.965,632.523 195.188,632.422 195.406,632.309 C 195.516,632.262 195.594,632.223 195.711,632.172 L 195.688,632.16 C 198.035,630.883 199.945,628.773 200.902,626.051 C 202.957,620.207 199.898,613.801 194.051,611.758 C 188.219,609.695 181.813,612.762 179.758,618.598 C 178.563,621.98 179.102,625.543 180.891,628.352 C 181.488,629.484 181.773,630.375 181.566,631.531 C 181.168,633.695 179.703,635.02 177.531,634.914 C 176.539,634.863 175.785,634.621 174.926,634.25 C 174.188,633.793 173.441,633.344 172.727,632.828 C 170.781,631.422 169.02,629.859 167.441,628.172 C 164.727,625.27 162.551,621.996 160.945,618.496 C 160.945,618.496 158.152,613.812 157.637,604.039 C 157.566,600.547 157.988,597.043 158.934,593.621 C 156.781,599.414 156.082,605.543 156.73,611.508 C 156.73,611.508 157.086,620.223 163.961,630.152 C 163.961,630.152 174.555,646.973 159.477,655.852"
       style="fill:#ffd73a;fill-opacity:1"
       id="path19" />
  </g>
</svg>
