<?xml version="1.0" encoding="UTF-8" standalone="no"?>
<!-- Created with Inkscape (http://www.inkscape.org/) -->
<svg xmlns:dc="http://purl.org/dc/elements/1.1/" xmlns:cc="http://creativecommons.org/ns#" xmlns:rdf="http://www.w3.org/1999/02/22-rdf-syntax-ns#" xmlns:svg="http://www.w3.org/2000/svg" xmlns="http://www.w3.org/2000/svg" xmlns:sodipodi="http://sodipodi.sourceforge.net/DTD/sodipodi-0.dtd" xmlns:inkscape="http://www.inkscape.org/namespaces/inkscape" width="195.96503" height="36.117676" id="svg2" sodipodi:version="0.32" inkscape:version="0.46" version="1.0" sodipodi:docname="Verbatim logo.svg" inkscape:output_extension="org.inkscape.output.svg.inkscape">
  <defs id="defs4">
    <inkscape:perspective sodipodi:type="inkscape:persp3d" inkscape:vp_x="0 : 526.18109 : 1" inkscape:vp_y="0 : 1000 : 0" inkscape:vp_z="744.09448 : 526.18109 : 1" inkscape:persp3d-origin="372.04724 : 350.78739 : 1" id="perspective10"/>
    <clipPath id="clipPath3424" clipPathUnits="userSpaceOnUse">
      <path id="path3426" d="M 0,792.12 L 612,792.12 L 612,0.12 L 0,0.12 L 0,792.12 z"/>
    </clipPath>
    <clipPath id="clipPath3418" clipPathUnits="userSpaceOnUse">
      <path id="path3420" d="M -1,793 L 613,793 L 613,-1 L -1,-1 L -1,793 z"/>
    </clipPath>
    <clipPath id="clipPath3412" clipPathUnits="userSpaceOnUse">
      <path id="path3414" clip-rule="evenodd" d="M 53.97,124.66 L 198.569,137.303 L 202.824,88.629 L 58.226,75.986 L 53.97,124.66 z"/>
    </clipPath>
    <clipPath id="clipPath3406" clipPathUnits="userSpaceOnUse">
      <path id="path3408" clip-rule="evenodd" d="M 76.996,81.978 C 76.383,81.756 75.408,81.333 75.081,81.22 C 74.754,81.107 74.503,81.085 74.279,81.234 C 73.951,81.122 73.091,80.836 73.091,80.836 L 72.722,80.719 C 72.722,80.719 71.489,80.358 71.238,80.336 C 70.987,80.314 69.895,80.261 69.6,80.741 C 69.305,81.221 68.588,82.676 68.399,82.913 C 68.209,83.149 68.02,83.386 67.671,83.524 C 67.322,83.662 64.281,86.136 63.538,86.914 C 62.796,87.693 61.775,89.248 61.254,90.383 C 60.733,91.517 59.318,95.675 59.702,98.973 C 60.039,101.87 61.171,103.818 61.293,103.961 C 61.476,104.175 61.436,104.422 61.522,104.782 C 61.608,105.141 61.882,105.693 61.991,105.791 C 62.1,105.888 62.72,106.177 62.72,106.177 C 62.72,106.177 65.014,107.111 65.131,107.121 C 65.247,107.132 65.541,107.128 65.541,107.128 L 65.647,107.254 L 72.467,109.435 L 122.025,125.411 C 122.025,125.411 122.42,125.592 122.528,125.367 C 122.635,125.142 123.317,124.057 123.317,124.057 C 123.317,124.057 123.433,124.067 123.518,124.104 C 123.603,124.141 131.88,126.771 132.023,126.813 C 132.166,126.854 132.365,126.931 132.433,126.819 C 132.501,126.708 133.681,124.963 133.681,124.963 L 146.363,129.21 C 146.363,129.21 146.843,129.428 147.046,129.123 C 147.248,128.818 153.485,117.541 153.485,117.541 C 153.485,117.541 153.689,116.884 153.592,116.641 C 153.496,116.398 152.645,114.388 152.645,114.388 C 152.645,114.388 152.486,114.198 152.314,114.153 C 152.142,114.109 140.831,110.275 140.831,110.275 C 140.831,110.275 140.664,110.172 140.594,109.961 C 140.525,109.75 140.378,109.414 140.486,109.189 C 140.594,108.964 140.71,108.299 140.646,108.029 C 140.581,107.76 140.065,107.627 139.927,107.527 C 139.789,107.427 139.693,107.184 139.475,106.989 C 139.258,106.793 138.747,106.602 138.747,106.602 L 131.843,104.033 C 131.843,104.033 131.842,103.711 131.658,103.46 C 131.475,103.209 131.058,102.938 130.931,102.722 C 130.803,102.505 130.623,101.873 130.493,101.686 C 130.363,101.499 129.968,101.318 129.825,101.276 C 129.682,101.234 77.609,82.2 76.996,81.978 M 162.92,107.673 C 162.92,107.673 162.779,107.771 162.733,108.053 C 162.703,108.231 162.587,110.387 162.587,110.387 L 162.628,110.596 L 162.588,113.731 L 162.496,113.782 C 162.496,113.782 162.638,115.848 162.599,115.961 C 162.56,116.075 162.631,116.932 162.631,116.932 L 162.827,123.755 L 163.097,129.733 C 163.097,129.733 163.089,129.821 163.293,129.839 C 163.497,129.856 183.157,129.11 183.157,129.11 C 183.157,129.11 189.453,128.852 189.665,128.828 C 189.961,128.796 190.556,128.701 191.121,128.281 C 191.685,127.861 193.376,126.952 194.173,124.91 C 194.626,123.747 194.61,122.25 194.61,122.25 L 194.552,121.57 L 194.624,120.755 L 194.782,120.622 L 195.014,118.97 C 195.014,118.97 195.064,118.065 194.943,117.438 C 194.822,116.812 194.45,115.694 194.45,115.694 L 194.411,115.133 C 194.411,115.133 194.399,114.604 194.395,114.31 C 194.391,114.017 194.283,112.57 193.732,111.495 C 193.18,110.42 191.735,108.827 191.457,108.656 C 191.178,108.485 190.619,108.422 190.224,108.409 C 189.829,108.397 162.92,107.673 162.92,107.673"/>
    </clipPath>
    <clipPath id="clipPath3376" clipPathUnits="userSpaceOnUse">
      <path id="path3378" d="M 0,792.12 L 612,792.12 L 612,0.12 L 0,0.12 L 0,792.12 z"/>
    </clipPath>
    <clipPath id="clipPath3370" clipPathUnits="userSpaceOnUse">
      <path id="path3372" d="M -1,793 L 613,793 L 613,-1 L -1,-1 L -1,793 z"/>
    </clipPath>
    <clipPath id="clipPath3360" clipPathUnits="userSpaceOnUse">
      <path id="path3362" clip-rule="evenodd" d="M 315,153 L 569.96,153 C 573.296,153 576,150.296 576,146.96 L 576,142.04 C 576,138.704 573.296,136 569.96,136 L 60.04,136 C 56.704,136 54,138.704 54,142.04 L 54,146.96 C 54,150.296 56.704,153 60.04,153"/>
    </clipPath>
    <clipPath id="clipPath3350" clipPathUnits="userSpaceOnUse">
      <path id="path3352" d="M 0,792.12 L 612,792.12 L 612,0.12 L 0,0.12 L 0,792.12 z"/>
    </clipPath>
    <clipPath id="clipPath3344" clipPathUnits="userSpaceOnUse">
      <path id="path3346" d="M -1,793 L 613,793 L 613,-1 L -1,-1 L -1,793 z"/>
    </clipPath>
    <clipPath id="clipPath3334" clipPathUnits="userSpaceOnUse">
      <path id="path3336" clip-rule="evenodd" d="M 315,153 L 569.96,153 C 573.296,153 576,150.296 576,146.96 L 576,78.04 C 576,74.704 573.296,72 569.96,72 L 60.04,72 C 56.704,72 54,74.704 54,78.04 L 54,146.96 C 54,150.296 56.704,153 60.04,153"/>
    </clipPath>
    <clipPath id="clipPath3302" clipPathUnits="userSpaceOnUse">
      <path id="path3304" d="M 0,792.12 L 612,792.12 L 612,0.12 L 0,0.12 L 0,792.12 z"/>
    </clipPath>
    <clipPath id="clipPath3296" clipPathUnits="userSpaceOnUse">
      <path id="path3298" d="M -1,793 L 613,793 L 613,-1 L -1,-1 L -1,793 z"/>
    </clipPath>
    <clipPath id="clipPath3260" clipPathUnits="userSpaceOnUse">
      <path id="path3262" d="M 0,792.12 L 612,792.12 L 612,0.12 L 0,0.12 L 0,792.12 z"/>
    </clipPath>
    <clipPath id="clipPath3254" clipPathUnits="userSpaceOnUse">
      <path id="path3256" d="M -1,793 L 613,793 L 613,-1 L -1,-1 L -1,793 z"/>
    </clipPath>
    <clipPath id="clipPath3248" clipPathUnits="userSpaceOnUse">
      <path id="path3250" clip-rule="evenodd" d="M 494.85,64.15 L 576,64.15 L 576,31.97 L 494.85,31.97 L 494.85,64.15 z"/>
    </clipPath>
    <linearGradient id="linearGradient3236" spreadMethod="pad" gradientTransform="matrix(-7.6579, 2.3413, 3.0679, 10.0347, 502.859, 47.235)" gradientUnits="userSpaceOnUse" y2="0" x2="1" y1="0" x1="0">
      <stop id="stop3238" offset="0" style="stop-opacity: 1; stop-color: rgb(0, 123, 194);"/>
      <stop id="stop3240" offset="1" style="stop-opacity: 1; stop-color: rgb(52, 54, 149);"/>
    </linearGradient>
    <linearGradient id="linearGradient3218" spreadMethod="pad" gradientTransform="matrix(7.56, -2.1678, -2.8409, -9.9074, 503.849, 58.3175)" gradientUnits="userSpaceOnUse" y2="0" x2="1" y1="0" x1="0">
      <stop id="stop3220" offset="0" style="stop-opacity: 1; stop-color: rgb(242, 166, 44);"/>
      <stop id="stop3222" offset="1" style="stop-opacity: 1; stop-color: rgb(162, 123, 47);"/>
    </linearGradient>
    <clipPath id="clipPath3196" clipPathUnits="userSpaceOnUse">
      <path id="path3198" d="M 0,792.12 L 612,792.12 L 612,0.12 L 0,0.12 L 0,792.12 z"/>
    </clipPath>
    <clipPath id="clipPath3190" clipPathUnits="userSpaceOnUse">
      <path id="path3192" d="M -1,793 L 613,793 L 613,-1 L -1,-1 L -1,793 z"/>
    </clipPath>
    <clipPath id="clipPath3184" clipPathUnits="userSpaceOnUse">
      <path id="path3186" clip-rule="evenodd" d="M 494.85,64.15 L 576,64.15 L 576,31.97 L 494.85,31.97 L 494.85,64.15 z"/>
    </clipPath>
    <linearGradient id="linearGradient3172" spreadMethod="pad" gradientTransform="matrix(-7.659, 2.3416, 3.0679, 10.0347, 504.496, 52.5851)" gradientUnits="userSpaceOnUse" y2="0" x2="1" y1="0" x1="0">
      <stop id="stop3174" offset="0" style="stop-opacity: 1; stop-color: rgb(239, 129, 50);"/>
      <stop id="stop3176" offset="1" style="stop-opacity: 1; stop-color: rgb(160, 50, 41);"/>
    </linearGradient>
    <linearGradient id="linearGradient3154" spreadMethod="pad" gradientTransform="matrix(7.5619, -2.1683, -2.8455, -9.9233, 505.281, 63.735)" gradientUnits="userSpaceOnUse" y2="0" x2="1" y1="0" x1="0">
      <stop id="stop3156" offset="0" style="stop-opacity: 1; stop-color: rgb(117, 166, 65);"/>
      <stop id="stop3158" offset="1" style="stop-opacity: 1; stop-color: rgb(62, 130, 63);"/>
    </linearGradient>
    <clipPath id="clipPath3040" clipPathUnits="userSpaceOnUse">
      <path id="path3042" d="M 0,792.12 L 612,792.12 L 612,0.12 L 0,0.12 L 0,792.12 z"/>
    </clipPath>
    <clipPath id="clipPath3034" clipPathUnits="userSpaceOnUse">
      <path id="path3036" d="M -1,793 L 613,793 L 613,-1 L -1,-1 L -1,793 z"/>
    </clipPath>
    <clipPath id="clipPath3028" clipPathUnits="userSpaceOnUse">
      <path id="path3030" clip-rule="evenodd" d="M 494.85,64.15 L 576,64.15 L 576,31.97 L 494.85,31.97 L 494.85,64.15 z"/>
    </clipPath>
    <clipPath id="clipPath2968" clipPathUnits="userSpaceOnUse">
      <path id="path2970" d="M 0,792.12 L 612,792.12 L 612,0.12 L 0,0.12 L 0,792.12 z"/>
    </clipPath>
    <clipPath id="clipPath2962" clipPathUnits="userSpaceOnUse">
      <path id="path2964" d="M -1,793 L 613,793 L 613,-1 L -1,-1 L -1,793 z"/>
    </clipPath>
    <clipPath id="clipPath2906" clipPathUnits="userSpaceOnUse">
      <path id="path2908" d="M 0,792.12 L 612,792.12 L 612,0.12 L 0,0.12 L 0,792.12 z"/>
    </clipPath>
    <clipPath id="clipPath2900" clipPathUnits="userSpaceOnUse">
      <path id="path2902" d="M -1,793 L 613,793 L 613,-1 L -1,-1 L -1,793 z"/>
    </clipPath>
    <clipPath id="clipPath2894" clipPathUnits="userSpaceOnUse">
      <path id="path2896" clip-rule="evenodd" d="M 511.43,389.01 L 579,389.01 L 579,348 L 511.43,348 L 511.43,389.01 z"/>
    </clipPath>
    <clipPath id="clipPath2804" clipPathUnits="userSpaceOnUse">
      <path id="path2806" d="M 0,792.12 L 612,792.12 L 612,0.12 L 0,0.12 L 0,792.12 z"/>
    </clipPath>
    <clipPath id="clipPath2798" clipPathUnits="userSpaceOnUse">
      <path id="path2800" d="M -1,793 L 613,793 L 613,-1 L -1,-1 L -1,793 z"/>
    </clipPath>
    <clipPath id="clipPath2706" clipPathUnits="userSpaceOnUse">
      <path id="path2708" d="M 0,792.12 L 612,792.12 L 612,0.12 L 0,0.12 L 0,792.12 z"/>
    </clipPath>
    <clipPath id="clipPath2700" clipPathUnits="userSpaceOnUse">
      <path id="path2702" d="M -1,793 L 613,793 L 613,-1 L -1,-1 L -1,793 z"/>
    </clipPath>
    <clipPath id="clipPath2694" clipPathUnits="userSpaceOnUse">
      <path id="path2696" clip-rule="evenodd" d="M 51,638 L 114.75,638 L 114.75,598.89 L 51,598.89 L 51,638 z"/>
    </clipPath>
    <clipPath id="clipPath2664" clipPathUnits="userSpaceOnUse">
      <path id="path2666" d="M 0,792.12 L 612,792.12 L 612,0.12 L 0,0.12 L 0,792.12 z"/>
    </clipPath>
    <clipPath id="clipPath2658" clipPathUnits="userSpaceOnUse">
      <path id="path2660" d="M -1,793 L 613,793 L 613,-1 L -1,-1 L -1,793 z"/>
    </clipPath>
    <clipPath id="clipPath2646" clipPathUnits="userSpaceOnUse">
      <path id="path2648" clip-rule="evenodd" d="M 207,302 L 307,302 L 307,243.53 L 207,243.53 L 207,302 z"/>
    </clipPath>
    <clipPath id="clipPath2636" clipPathUnits="userSpaceOnUse">
      <path id="path2638" d="M 0,792.12 L 612,792.12 L 612,0.12 L 0,0.12 L 0,792.12 z"/>
    </clipPath>
    <clipPath id="clipPath2630" clipPathUnits="userSpaceOnUse">
      <path id="path2632" d="M -1,793 L 613,793 L 613,-1 L -1,-1 L -1,793 z"/>
    </clipPath>
    <clipPath id="clipPath2618" clipPathUnits="userSpaceOnUse">
      <path id="path2620" clip-rule="evenodd" d="M 445.99,253.46 L 565.99,253.46 L 565.99,195.5 L 445.99,195.5 L 445.99,253.46 z"/>
    </clipPath>
    <clipPath id="clipPath2544" clipPathUnits="userSpaceOnUse">
      <path id="path2546" d="M 0,792.12 L 612,792.12 L 612,0.12 L 0,0.12 L 0,792.12 z"/>
    </clipPath>
    <clipPath id="clipPath2538" clipPathUnits="userSpaceOnUse">
      <path id="path2540" d="M -1,793 L 613,793 L 613,-1 L -1,-1 L -1,793 z"/>
    </clipPath>
    <clipPath id="clipPath2528" clipPathUnits="userSpaceOnUse">
      <path id="path2530" clip-rule="evenodd" d="M 315,342 L 569.96,342 C 573.296,342 576,339.296 576,335.96 L 576,170.54 C 576,167.204 573.296,164.5 569.96,164.5 L 60.04,164.5 C 56.704,164.5 54,167.204 54,170.54 L 54,335.96 C 54,339.296 56.704,342 60.04,342"/>
    </clipPath>
    <clipPath id="clipPath2518" clipPathUnits="userSpaceOnUse">
      <path id="path2520" d="M 0,792.12 L 612,792.12 L 612,0.12 L 0,0.12 L 0,792.12 z"/>
    </clipPath>
    <clipPath id="clipPath2512" clipPathUnits="userSpaceOnUse">
      <path id="path2514" d="M -1,793 L 613,793 L 613,-1 L -1,-1 L -1,793 z"/>
    </clipPath>
    <clipPath id="clipPath2490" clipPathUnits="userSpaceOnUse">
      <path id="path2492" d="M 0,792.12 L 612,792.12 L 612,0.12 L 0,0.12 L 0,792.12 z"/>
    </clipPath>
    <clipPath id="clipPath2484" clipPathUnits="userSpaceOnUse">
      <path id="path2486" d="M -1,793 L 613,793 L 613,-1 L -1,-1 L -1,793 z"/>
    </clipPath>
    <clipPath id="clipPath2478" clipPathUnits="userSpaceOnUse">
      <path id="path2480" clip-rule="evenodd" d="M -9,778.5 L 621,778.5 L 621,663.91 L -9,663.91 L -9,778.5 z"/>
    </clipPath>
    <clipPath id="clipPath2466" clipPathUnits="userSpaceOnUse">
      <path id="path2468" clip-rule="evenodd" d="M 273,617.39 L 499,617.39 L 499,501.4 L 273,501.4 L 273,617.39 z"/>
    </clipPath>
    <clipPath id="clipPath2460" clipPathUnits="userSpaceOnUse">
      <path id="path2462" clip-rule="evenodd" d="M 520.605,607.853 C 521.996,607.787 523.387,607.721 524.778,607.655 C 524.778,607.589 524.778,607.522 524.778,607.456 C 525.639,607.456 526.501,607.456 527.362,607.456 C 527.362,607.39 527.362,607.324 527.362,607.257 C 528.09,607.257 528.819,607.257 529.548,607.257 C 529.929,607.224 529.945,607.059 529.945,607.059 C 530.74,607.059 531.535,607.059 532.329,607.059 C 532.329,606.992 532.329,606.926 532.329,606.86 C 533.19,606.86 534.052,606.86 534.913,606.86 C 534.913,606.794 534.913,606.727 534.913,606.661 C 535.708,606.661 536.503,606.661 537.298,606.661 C 537.298,606.661 537.309,606.495 537.695,606.462 C 538.424,606.462 539.152,606.462 539.881,606.462 C 539.881,606.396 539.881,606.33 539.881,606.264 C 540.742,606.264 541.603,606.264 542.464,606.264 C 542.464,606.197 542.464,606.131 542.464,606.065 C 543.259,606.065 544.054,606.065 544.849,606.065 C 544.849,606.065 544.861,605.899 545.246,605.866 C 545.975,605.866 546.704,605.866 547.432,605.866 C 547.432,605.8 547.432,605.734 547.432,605.668 C 548.227,605.668 549.022,605.668 549.817,605.668 C 549.817,605.601 549.817,605.535 549.817,605.469 C 550.678,605.469 551.539,605.469 552.4,605.469 C 552.4,605.403 552.4,605.336 552.4,605.27 C 554.056,605.204 555.713,605.138 557.368,605.071 C 557.368,605.005 557.368,604.939 557.368,604.873 C 558.229,604.873 559.091,604.873 559.952,604.873 C 560.222,604.796 559.873,604.719 560.151,604.674 C 560.879,604.674 561.608,604.674 562.336,604.674 C 562.336,604.608 562.336,604.541 562.336,604.475 C 563.197,604.475 564.059,604.475 564.92,604.475 C 564.92,604.409 564.92,604.343 564.92,604.276 C 565.781,604.276 566.642,604.276 567.503,604.276 C 567.503,604.21 567.503,604.144 567.503,604.078 C 568.298,604.078 569.093,604.078 569.888,604.078 C 569.888,604.078 569.9,603.912 570.285,603.879 C 571.014,603.879 571.742,603.879 572.471,603.879 C 572.471,603.813 572.471,603.747 572.471,603.68 C 573.266,603.68 574.061,603.68 574.856,603.68 C 574.856,603.614 574.856,603.548 574.856,603.482 C 576.776,603.349 578.698,603.217 580.618,603.084 C 580.618,603.018 580.618,602.952 580.618,602.885 C 580.751,602.885 580.883,602.885 581.016,602.885 C 581.016,602.819 581.016,602.753 581.016,602.687 C 581.215,602.687 581.413,602.687 581.612,602.687 C 581.678,602.554 581.745,602.422 581.811,602.289 C 581.943,602.289 582.076,602.289 582.208,602.289 C 582.275,602.157 582.341,602.024 582.407,601.892 C 582.54,601.892 582.672,601.892 582.805,601.892 C 582.871,601.759 582.937,601.627 583.003,601.494 C 583.136,601.494 583.268,601.494 583.401,601.494 C 583.401,601.428 583.401,601.362 583.401,601.296 C 583.599,601.229 583.798,601.163 583.997,601.097 C 584.063,600.964 584.129,600.832 584.196,600.7 C 584.328,600.7 584.461,600.7 584.593,600.7 C 584.792,600.435 584.99,600.169 585.189,599.905 C 588.234,597.711 589.784,595.034 590.952,590.962 C 590.886,588.975 590.82,586.988 590.753,585.001 C 590.753,584.272 590.753,583.543 590.753,582.815 C 590.82,582.815 590.886,582.815 590.952,582.815 C 590.952,582.616 590.952,582.417 590.952,582.219 C 591.018,582.219 591.085,582.219 591.151,582.219 C 591.151,581.159 591.151,580.099 591.151,579.039 C 591.151,578.509 591.151,577.979 591.151,577.449 C 590.82,576.058 590.488,574.667 590.157,573.276 C 590.091,573.276 590.025,573.276 589.958,573.276 C 589.958,573.144 589.958,573.011 589.958,572.879 C 589.892,572.879 589.826,572.879 589.76,572.879 C 589.627,572.481 589.495,572.084 589.362,571.686 C 589.296,571.686 589.23,571.686 589.163,571.686 C 589.031,570.428 588.898,569.169 588.766,567.911 C 588.7,567.911 588.633,567.911 588.567,567.911 C 588.501,567.381 588.435,566.851 588.368,566.321 C 588.302,566.321 588.236,566.321 588.17,566.321 C 588.17,566.189 588.17,566.056 588.17,565.923 C 588.104,565.923 588.037,565.923 587.971,565.923 C 587.971,565.725 587.971,565.526 587.971,565.327 C 587.905,565.327 587.839,565.327 587.772,565.327 C 587.772,565.129 587.772,564.93 587.772,564.731 C 587.706,564.731 587.64,564.731 587.574,564.731 C 587.507,564.466 587.441,564.201 587.375,563.936 C 587.309,563.936 587.242,563.936 587.176,563.936 C 587.176,563.738 587.176,563.539 587.176,563.34 C 587.11,563.34 587.044,563.34 586.978,563.34 C 586.978,563.208 586.978,563.075 586.978,562.943 C 586.911,562.943 586.845,562.943 586.779,562.943 C 586.779,562.81 586.779,562.678 586.779,562.545 C 586.646,562.479 586.514,562.413 586.381,562.346 C 586.315,562.082 586.249,561.817 586.183,561.552 C 586.05,561.485 585.918,561.419 585.785,561.353 C 585.454,560.956 585.123,560.558 584.792,560.161 C 584.659,560.161 584.527,560.161 584.394,560.161 C 584.262,559.962 584.129,559.763 583.997,559.564 C 583.864,559.564 583.732,559.564 583.599,559.564 C 583.533,559.432 583.467,559.3 583.401,559.167 C 583.268,559.167 583.136,559.167 583.003,559.167 C 582.937,559.035 582.871,558.902 582.805,558.77 C 581.552,557.981 579.289,558.173 577.24,558.173 C 573.2,558.173 569.159,558.173 565.118,558.173 C 549.951,558.372 534.779,558.571 519.612,558.77 C 519.258,559.72 519.403,561.469 519.413,562.744 C 518.949,563.273 519.214,565.212 519.214,566.122 C 519.148,568.904 519.082,571.687 519.015,574.469 C 518.949,577.714 518.883,580.96 518.817,584.206 C 518.817,585.684 518.691,587.623 519.015,588.776 C 519.015,589.439 519.015,590.101 519.015,590.764 C 519.082,591.956 519.148,593.148 519.214,594.341 C 519.28,594.341 519.347,594.341 519.413,594.341 C 519.413,595.069 519.413,595.798 519.413,596.526 C 519.446,596.906 519.612,596.924 519.612,596.924 C 519.612,597.785 519.612,598.646 519.612,599.507 C 519.678,599.507 519.744,599.507 519.81,599.507 C 519.81,600.368 519.81,601.229 519.81,602.091 C 520.283,603.762 520.016,606.26 520.605,607.853 M 459.598,555.59 C 458.846,555.446 458.538,555.045 458.008,554.795 C 457.81,554.795 457.611,554.795 457.412,554.795 C 457.081,554.398 456.75,554 456.419,553.603 C 456.021,553.537 455.624,553.47 455.226,553.404 C 455.226,553.338 455.226,553.272 455.226,553.205 C 455.028,553.205 454.829,553.205 454.63,553.205 C 454.63,553.139 454.63,553.073 454.63,553.007 C 454.166,552.941 453.703,552.874 453.239,552.808 C 453.239,552.742 453.239,552.675 453.239,552.609 C 453.04,552.609 452.841,552.609 452.643,552.609 C 452.643,552.543 452.643,552.477 452.643,552.411 C 452.444,552.411 452.245,552.411 452.047,552.411 C 452.047,552.344 452.047,552.278 452.047,552.212 C 451.848,552.212 451.649,552.212 451.451,552.212 C 451.451,552.146 451.451,552.079 451.451,552.013 C 451.252,552.013 451.053,552.013 450.854,552.013 C 450.854,551.947 450.854,551.881 450.854,551.814 C 450.589,551.814 450.325,551.814 450.06,551.814 C 450.06,551.748 450.06,551.682 450.06,551.616 C 449.861,551.616 449.662,551.616 449.463,551.616 C 449.463,551.549 449.463,551.483 449.463,551.417 C 449.265,551.417 449.066,551.417 448.867,551.417 C 448.867,551.351 448.867,551.285 448.867,551.218 C 448.669,551.218 448.47,551.218 448.271,551.218 C 448.271,551.152 448.271,551.086 448.271,551.019 C 448.072,551.019 447.874,551.019 447.675,551.019 C 447.675,550.953 447.675,550.887 447.675,550.821 C 447.41,550.821 447.145,550.821 446.88,550.821 C 446.88,550.755 446.88,550.688 446.88,550.622 C 446.681,550.622 446.482,550.622 446.284,550.622 C 446.284,550.556 446.284,550.49 446.284,550.423 C 446.085,550.423 445.886,550.423 445.687,550.423 C 445.687,550.357 445.687,550.291 445.687,550.225 C 445.489,550.225 445.29,550.225 445.091,550.225 C 445.091,550.158 445.091,550.092 445.091,550.026 C 444.893,550.026 444.694,550.026 444.495,550.026 C 444.495,549.96 444.495,549.893 444.495,549.827 C 444.297,549.827 444.098,549.827 443.899,549.827 C 443.899,549.761 443.899,549.695 443.899,549.629 C 443.634,549.629 443.369,549.629 443.104,549.629 C 442.061,549.25 440.92,548.693 439.726,548.436 C 439.575,546.307 438.605,546.563 437.341,545.654 C 437.275,545.522 437.209,545.389 437.143,545.257 C 436.811,544.992 436.48,544.727 436.149,544.462 C 436.149,544.329 436.149,544.197 436.149,544.064 C 436.083,544.064 436.017,544.064 435.95,544.064 C 435.818,543.866 435.685,543.667 435.553,543.468 C 435.222,543.402 434.891,543.336 434.559,543.269 C 434.559,543.203 434.559,543.137 434.559,543.071 C 434.361,543.071 434.162,543.071 433.963,543.071 C 433.963,543.004 433.963,542.938 433.963,542.872 C 433.765,542.872 433.566,542.872 433.367,542.872 C 433.367,542.806 433.367,542.74 433.367,542.673 C 433.168,542.673 432.97,542.673 432.771,542.673 C 432.771,542.607 432.771,542.541 432.771,542.475 C 432.506,542.475 432.241,542.475 431.976,542.475 C 425.839,540.254 419.038,538.729 412.899,536.513 C 412.634,536.513 412.369,536.513 412.104,536.513 C 412.104,536.447 412.104,536.38 412.104,536.314 C 411.905,536.314 411.707,536.314 411.508,536.314 C 411.508,536.248 411.508,536.182 411.508,536.115 C 411.309,536.115 411.11,536.115 410.912,536.115 C 410.912,536.049 410.912,535.983 410.912,535.917 C 410.249,535.784 409.587,535.652 408.925,535.519 C 408.925,535.453 408.925,535.387 408.925,535.321 C 408.66,535.321 408.395,535.321 408.13,535.321 C 401.357,532.857 393.882,531.216 387.065,528.763 C 386.8,528.763 386.535,528.763 386.271,528.763 C 386.271,528.697 386.271,528.63 386.271,528.564 C 386.072,528.564 385.873,528.564 385.674,528.564 C 385.674,528.498 385.674,528.432 385.674,528.365 C 385.409,528.365 385.144,528.365 384.879,528.365 C 382.13,527.369 378.881,526.576 376.136,525.583 C 374.944,525.318 373.751,525.053 372.559,524.788 C 369.357,523.628 365.628,522.762 362.424,521.609 C 361.232,521.344 360.039,521.079 358.847,520.814 C 354.554,519.252 349.631,518.193 345.334,516.641 C 345.069,516.641 344.804,516.641 344.539,516.641 C 344.539,516.575 344.539,516.508 344.539,516.442 C 344.341,516.442 344.142,516.442 343.943,516.442 C 343.943,516.376 343.943,516.31 343.943,516.244 C 343.678,516.244 343.413,516.244 343.148,516.244 C 340.124,515.149 336.636,514.351 333.609,513.263 C 333.345,513.263 333.08,513.263 332.815,513.263 C 332.815,513.196 332.815,513.13 332.815,513.064 C 332.616,513.064 332.417,513.064 332.219,513.064 C 332.219,512.998 332.219,512.932 332.219,512.865 C 332.02,512.865 331.821,512.865 331.622,512.865 C 331.622,512.799 331.622,512.733 331.622,512.667 C 331.357,512.667 331.093,512.667 330.828,512.667 C 326.257,511.015 321.086,509.931 316.52,508.295 C 315.327,508.03 314.135,507.765 312.943,507.5 C 312.943,507.434 312.943,507.367 312.943,507.301 C 312.28,507.169 311.618,507.036 310.955,506.904 C 310.955,506.837 310.955,506.771 310.955,506.705 C 310.757,506.705 310.558,506.705 310.359,506.705 C 310.359,506.639 310.359,506.573 310.359,506.506 C 310.161,506.506 309.962,506.506 309.763,506.506 C 309.763,506.44 309.763,506.374 309.763,506.307 C 309.564,506.307 309.366,506.307 309.167,506.307 C 309.167,506.241 309.167,506.175 309.167,506.109 C 308.968,506.109 308.77,506.109 308.571,506.109 C 308.571,506.043 308.571,505.976 308.571,505.91 C 308.372,505.91 308.173,505.91 307.975,505.91 C 307.975,505.844 307.975,505.778 307.975,505.711 C 307.776,505.711 307.577,505.711 307.379,505.711 C 307.379,505.645 307.379,505.579 307.379,505.513 C 307.18,505.513 306.981,505.513 306.783,505.513 C 306.783,505.446 306.783,505.38 306.783,505.314 C 306.186,505.181 305.59,505.049 304.994,504.917 C 304.994,504.85 304.994,504.784 304.994,504.718 C 304.729,504.718 304.464,504.718 304.199,504.718 C 304.199,504.652 304.199,504.585 304.199,504.519 C 303.934,504.519 303.669,504.519 303.404,504.519 C 303.404,504.453 303.404,504.387 303.404,504.32 C 302.94,504.32 302.477,504.32 302.013,504.32 C 302.006,504.319 301.854,504.028 301.417,504.122 C 301.417,504.188 301.417,504.254 301.417,504.32 C 300.887,504.32 300.357,504.32 299.827,504.32 C 299.827,504.387 299.827,504.453 299.827,504.519 C 299.496,504.519 299.165,504.519 298.834,504.519 C 298.834,504.585 298.834,504.652 298.834,504.718 C 298.436,504.85 298.039,504.983 297.641,505.115 C 297.509,505.38 297.376,505.645 297.244,505.91 C 297.111,505.976 296.979,506.043 296.846,506.109 C 296.846,506.241 296.846,506.374 296.846,506.506 C 296.78,506.506 296.714,506.506 296.648,506.506 C 296.515,506.904 296.383,507.301 296.25,507.699 C 296.184,507.699 296.118,507.699 296.051,507.699 C 296.051,507.897 296.051,508.096 296.051,508.295 C 295.985,508.295 295.919,508.295 295.853,508.295 C 295.853,508.427 295.853,508.56 295.853,508.692 C 295.786,508.692 295.72,508.692 295.654,508.692 C 295.455,509.288 295.257,509.885 295.058,510.481 C 294.793,510.679 294.528,510.878 294.263,511.077 C 294.197,511.209 294.13,511.342 294.064,511.474 C 293.932,511.474 293.799,511.474 293.667,511.474 C 293.534,511.673 293.402,511.872 293.269,512.07 C 293.137,512.07 293.004,512.07 292.872,512.07 C 291.746,513.263 290.62,514.455 289.494,515.647 C 288.235,516.84 286.977,518.032 285.718,519.224 C 285.718,519.357 285.718,519.489 285.718,519.622 C 285.519,519.754 285.321,519.887 285.122,520.019 C 285.056,520.218 284.989,520.417 284.923,520.615 C 284.791,520.682 284.658,520.748 284.526,520.814 C 284.526,520.947 284.526,521.079 284.526,521.211 C 284.393,521.278 284.261,521.344 284.128,521.41 C 284.062,521.609 283.996,521.808 283.93,522.006 C 283.863,522.006 283.797,522.006 283.731,522.006 C 283.731,522.139 283.731,522.271 283.731,522.404 C 283.598,522.47 283.466,522.536 283.334,522.603 C 283.267,522.867 283.201,523.133 283.135,523.397 C 283.002,523.464 282.87,523.53 282.737,523.596 C 282.671,523.861 282.605,524.126 282.539,524.391 C 282.406,524.457 282.274,524.523 282.141,524.59 C 282.141,524.722 282.141,524.855 282.141,524.987 C 282.075,524.987 282.009,524.987 281.943,524.987 C 281.943,525.12 281.943,525.252 281.943,525.385 C 281.876,525.385 281.81,525.385 281.744,525.385 C 281.744,525.517 281.744,525.65 281.744,525.782 C 281.678,525.782 281.611,525.782 281.545,525.782 C 281.545,525.915 281.545,526.047 281.545,526.18 C 281.479,526.18 281.412,526.18 281.346,526.18 C 281.346,526.312 281.346,526.444 281.346,526.577 C 281.28,526.577 281.214,526.577 281.147,526.577 C 281.147,526.709 281.147,526.842 281.147,526.974 C 281.081,526.974 281.015,526.974 280.949,526.974 C 280.949,527.107 280.949,527.239 280.949,527.372 C 280.883,527.372 280.816,527.372 280.75,527.372 C 280.618,527.769 280.485,528.167 280.353,528.564 C 280.286,528.564 280.22,528.564 280.154,528.564 C 280.154,528.763 280.154,528.962 280.154,529.16 C 280.088,529.16 280.021,529.16 279.955,529.16 C 279.955,529.293 279.955,529.425 279.955,529.558 C 279.889,529.558 279.823,529.558 279.756,529.558 C 279.756,529.756 279.756,529.955 279.756,530.154 C 279.69,530.154 279.624,530.154 279.558,530.154 C 279.558,530.419 279.558,530.684 279.558,530.949 C 279.491,530.949 279.425,530.949 279.359,530.949 C 279.359,531.214 279.359,531.479 279.359,531.744 C 279.293,531.744 279.226,531.744 279.16,531.744 C 279.16,532.075 279.16,532.406 279.16,532.737 C 279.094,532.737 279.028,532.737 278.961,532.737 C 278.961,533.068 278.961,533.4 278.961,533.731 C 278.895,533.731 278.829,533.731 278.763,533.731 C 278.763,534.195 278.763,534.658 278.763,535.122 C 278.697,535.122 278.63,535.122 278.564,535.122 C 278.564,535.784 278.564,536.447 278.564,537.109 C 278.498,537.109 278.432,537.109 278.365,537.109 C 278.365,537.97 278.365,538.831 278.365,539.692 C 278.299,539.692 278.233,539.692 278.167,539.692 C 278.167,540.752 278.167,541.812 278.167,542.872 C 278.166,546.081 278.367,548.871 279.16,551.218 C 279.293,551.881 279.425,552.543 279.558,553.205 C 279.624,553.205 279.69,553.205 279.756,553.205 C 279.756,553.338 279.756,553.47 279.756,553.603 C 279.823,553.603 279.889,553.603 279.955,553.603 C 280.021,554 280.088,554.398 280.154,554.795 C 280.22,554.795 280.286,554.795 280.353,554.795 C 280.353,554.928 280.353,555.06 280.353,555.193 C 280.419,555.193 280.485,555.193 280.551,555.193 C 280.618,555.524 280.684,555.855 280.75,556.186 C 280.816,556.186 280.883,556.186 280.949,556.186 C 281.081,556.584 281.214,556.981 281.346,557.379 C 281.412,557.379 281.479,557.379 281.545,557.379 C 281.545,557.511 281.545,557.644 281.545,557.776 C 281.611,557.776 281.678,557.776 281.744,557.776 C 281.744,557.908 281.744,558.041 281.744,558.173 C 281.81,558.173 281.876,558.173 281.943,558.173 C 282.075,558.571 282.208,558.968 282.34,559.366 C 282.539,559.498 282.737,559.631 282.936,559.763 C 282.936,559.829 282.936,559.896 282.936,559.962 C 283.069,559.962 283.201,559.962 283.334,559.962 C 283.334,560.028 283.334,560.094 283.334,560.161 C 283.466,560.161 283.598,560.161 283.731,560.161 C 283.863,560.359 283.996,560.558 284.128,560.757 C 284.195,560.757 284.261,560.757 284.327,560.757 C 284.327,561.022 284.327,561.287 284.327,561.552 C 284.393,561.552 284.46,561.552 284.526,561.552 C 284.945,562.435 284.775,562.532 285.519,563.141 C 285.519,563.208 285.519,563.274 285.519,563.34 C 287.97,564.135 290.421,564.93 292.872,565.725 C 292.938,565.923 293.004,566.122 293.071,566.321 C 294.029,566.337 294.756,566.677 295.455,566.917 C 295.72,566.917 295.985,566.917 296.25,566.917 C 296.25,566.983 296.25,567.05 296.25,567.116 C 296.515,567.116 296.78,567.116 297.045,567.116 C 297.045,567.182 297.045,567.248 297.045,567.315 C 297.31,567.315 297.575,567.315 297.84,567.315 C 297.84,567.381 297.84,567.447 297.84,567.513 C 298.105,567.513 298.37,567.513 298.635,567.513 C 298.635,567.579 298.635,567.646 298.635,567.712 C 299.231,567.778 299.827,567.845 300.423,567.911 C 302.138,568.5 304.272,568.913 305.988,569.5 C 307.577,569.832 309.167,570.163 310.757,570.494 C 316.079,572.324 322.313,573.046 327.648,574.866 C 328.443,574.998 329.238,575.131 330.033,575.263 C 332.517,576.116 335.496,576.602 337.982,577.449 C 338.776,577.582 339.571,577.714 340.366,577.847 C 342.735,578.701 345.695,579.207 348.116,580.033 C 348.911,580.165 349.706,580.298 350.501,580.43 C 352.216,581.018 354.349,581.435 356.065,582.02 C 356.595,582.086 357.125,582.152 357.655,582.219 C 358.853,582.629 360.431,583 361.629,583.411 C 361.894,583.411 362.159,583.411 362.424,583.411 C 366.577,584.908 371.522,585.55 375.738,586.988 C 377.063,587.253 378.388,587.518 379.713,587.783 C 379.713,587.849 379.713,587.915 379.713,587.981 C 380.507,588.114 381.302,588.246 382.097,588.379 C 384.026,589.04 386.321,589.507 388.258,590.167 C 388.787,590.234 389.317,590.3 389.847,590.366 C 394.127,591.831 399.078,592.486 403.36,593.943 C 404.685,594.208 406.01,594.473 407.335,594.738 C 407.335,594.804 407.335,594.87 407.335,594.937 C 408.924,595.268 410.514,595.599 412.104,595.93 C 413.562,596.426 415.415,596.827 416.873,597.321 C 417.403,597.387 417.933,597.454 418.463,597.52 C 418.463,597.586 418.463,597.653 418.463,597.719 C 418.728,597.719 418.993,597.719 419.258,597.719 C 419.258,597.785 419.258,597.851 419.258,597.917 C 419.523,597.917 419.788,597.917 420.053,597.917 C 420.053,597.984 420.053,598.05 420.053,598.116 C 420.318,598.116 420.583,598.116 420.848,598.116 C 420.848,598.182 420.848,598.249 420.848,598.315 C 421.599,598.563 421.843,598.396 422.437,598.315 C 422.504,598.116 422.57,597.917 422.636,597.719 C 422.702,597.719 422.769,597.719 422.835,597.719 C 422.835,597.586 422.835,597.454 422.835,597.321 C 422.901,597.321 422.967,597.321 423.034,597.321 C 423.034,597.189 423.034,597.056 423.034,596.924 C 423.166,596.858 423.299,596.791 423.431,596.725 C 423.497,596.46 423.563,596.195 423.63,595.93 C 423.762,595.864 423.895,595.798 424.027,595.731 C 424.093,595.533 424.16,595.334 424.226,595.135 C 424.425,595.135 424.624,595.135 424.822,595.135 C 425.277,595.537 425.768,595.313 426.412,595.533 C 427.348,595.852 428.654,596.209 429.591,596.526 C 429.856,596.526 430.121,596.526 430.386,596.526 C 432.356,597.196 434.774,597.648 436.745,598.315 C 437.275,598.381 437.805,598.447 438.335,598.514 C 438.335,598.58 438.335,598.646 438.335,598.712 C 439.196,598.845 440.057,598.977 440.919,599.11 C 442.116,599.496 443.065,599.864 444.694,599.905 C 444.826,599.651 445.008,599.633 445.091,599.507 C 445.091,599.375 445.091,599.242 445.091,599.11 C 445.224,599.043 445.356,598.977 445.489,598.911 C 445.489,598.779 445.489,598.646 445.489,598.514 C 445.555,598.514 445.621,598.514 445.687,598.514 C 445.687,598.381 445.687,598.249 445.687,598.116 C 445.754,598.116 445.82,598.116 445.886,598.116 C 445.886,597.984 445.886,597.851 445.886,597.719 C 445.952,597.719 446.019,597.719 446.085,597.719 C 446.085,597.586 446.085,597.454 446.085,597.321 C 446.151,597.321 446.217,597.321 446.284,597.321 C 446.284,597.189 446.284,597.056 446.284,596.924 C 446.35,596.924 446.416,596.924 446.482,596.924 C 446.482,596.791 446.482,596.659 446.482,596.526 C 446.615,596.46 446.747,596.394 446.88,596.328 C 446.88,596.195 446.88,596.063 446.88,595.93 C 447.12,595.505 447.45,595.026 447.675,594.539 C 452.169,596.099 457.174,596.925 461.585,598.514 C 462.844,598.779 464.103,599.043 465.361,599.308 C 465.361,599.375 465.361,599.441 465.361,599.507 C 465.825,599.573 466.288,599.64 466.752,599.706 C 466.752,599.772 466.752,599.838 466.752,599.905 C 466.951,599.905 467.149,599.905 467.348,599.905 C 467.348,599.971 467.348,600.037 467.348,600.103 C 468.077,600.236 468.805,600.368 469.534,600.501 C 469.534,600.567 469.534,600.633 469.534,600.7 C 469.998,600.766 470.461,600.832 470.925,600.898 C 470.925,600.964 470.925,601.031 470.925,601.097 C 471.455,601.163 471.985,601.229 472.515,601.296 C 473.952,601.81 475.373,602.436 477.284,602.488 C 477.35,602.289 477.416,602.091 477.483,601.892 C 477.549,601.892 477.615,601.892 477.681,601.892 C 477.681,601.759 477.681,601.627 477.681,601.494 C 477.748,601.494 477.814,601.494 477.88,601.494 C 477.88,601.296 477.88,601.097 477.88,600.898 C 477.946,600.898 478.013,600.898 478.079,600.898 C 478.079,600.766 478.079,600.633 478.079,600.501 C 478.145,600.501 478.211,600.501 478.278,600.501 C 478.278,600.368 478.278,600.236 478.278,600.103 C 478.344,600.103 478.41,600.103 478.476,600.103 C 478.476,599.971 478.476,599.838 478.476,599.706 C 478.543,599.706 478.609,599.706 478.675,599.706 C 478.675,599.507 478.675,599.308 478.675,599.11 C 478.741,599.11 478.808,599.11 478.874,599.11 C 478.874,598.977 478.874,598.845 478.874,598.712 C 478.94,598.712 479.006,598.712 479.073,598.712 C 479.139,598.447 479.205,598.182 479.271,597.917 C 479.338,597.917 479.404,597.917 479.47,597.917 C 479.47,597.719 479.47,597.52 479.47,597.321 C 479.536,597.321 479.603,597.321 479.669,597.321 C 479.669,597.189 479.669,597.056 479.669,596.924 C 479.735,596.924 479.801,596.924 479.868,596.924 C 479.934,596.659 480,596.394 480.066,596.129 C 480.133,596.129 480.199,596.129 480.265,596.129 C 480.265,595.93 480.265,595.731 480.265,595.533 C 480.331,595.533 480.398,595.533 480.464,595.533 C 480.464,595.4 480.464,595.268 480.464,595.135 C 480.53,595.135 480.596,595.135 480.663,595.135 C 480.729,594.87 480.795,594.605 480.861,594.341 C 480.927,594.341 480.994,594.341 481.06,594.341 C 481.06,594.142 481.06,593.943 481.06,593.744 C 481.126,593.744 481.192,593.744 481.259,593.744 C 481.259,593.612 481.259,593.479 481.259,593.347 C 481.325,593.347 481.391,593.347 481.457,593.347 C 481.524,593.082 481.59,592.817 481.656,592.552 C 481.722,592.552 481.789,592.552 481.855,592.552 C 481.855,592.353 481.855,592.155 481.855,591.956 C 481.921,591.956 481.987,591.956 482.053,591.956 C 482.053,591.823 482.053,591.691 482.053,591.558 C 482.12,591.558 482.186,591.558 482.252,591.558 C 482.318,591.293 482.385,591.029 482.451,590.764 C 482.517,590.764 482.583,590.764 482.65,590.764 C 482.65,590.565 482.65,590.366 482.65,590.167 C 482.716,590.167 482.782,590.167 482.848,590.167 C 482.848,590.035 482.848,589.902 482.848,589.77 C 482.915,589.77 482.981,589.77 483.047,589.77 C 483.113,589.505 483.18,589.24 483.246,588.975 C 483.312,588.975 483.378,588.975 483.444,588.975 C 483.444,588.776 483.444,588.578 483.444,588.379 C 483.511,588.379 483.577,588.379 483.643,588.379 C 483.643,588.246 483.643,588.114 483.643,587.981 C 483.709,587.981 483.776,587.981 483.842,587.981 C 483.842,587.849 483.842,587.716 483.842,587.584 C 483.908,587.584 483.974,587.584 484.041,587.584 C 484.041,587.452 484.041,587.319 484.041,587.187 C 484.107,587.187 484.173,587.187 484.239,587.187 C 484.306,586.855 484.372,586.524 484.438,586.193 C 484.504,586.193 484.57,586.193 484.637,586.193 C 484.703,585.928 484.769,585.663 484.835,585.398 C 484.902,585.398 484.968,585.398 485.034,585.398 C 485.034,585.199 485.034,585.001 485.034,584.802 C 485.1,584.802 485.167,584.802 485.233,584.802 C 485.233,584.669 485.233,584.537 485.233,584.404 C 485.299,584.404 485.365,584.404 485.432,584.404 C 485.498,584.14 485.564,583.875 485.63,583.61 C 485.696,583.61 485.763,583.61 485.829,583.61 C 485.829,583.411 485.829,583.212 485.829,583.013 C 485.895,583.013 485.962,583.013 486.028,583.013 C 486.028,582.881 486.028,582.748 486.028,582.616 C 486.094,582.616 486.16,582.616 486.226,582.616 C 486.293,582.351 486.359,582.086 486.425,581.821 C 486.491,581.821 486.558,581.821 486.624,581.821 C 486.624,581.622 486.624,581.424 486.624,581.225 C 486.69,581.225 486.756,581.225 486.823,581.225 C 486.823,581.093 486.823,580.96 486.823,580.828 C 486.889,580.828 486.955,580.828 487.021,580.828 C 487.088,580.563 487.154,580.298 487.22,580.033 C 487.286,580.033 487.353,580.033 487.419,580.033 C 487.419,579.834 487.419,579.635 487.419,579.437 C 487.485,579.437 487.551,579.437 487.618,579.437 C 487.618,579.304 487.618,579.171 487.618,579.039 C 487.684,579.039 487.75,579.039 487.816,579.039 C 487.816,578.906 487.816,578.774 487.816,578.642 C 487.883,578.642 487.949,578.642 488.015,578.642 C 488.015,578.509 488.015,578.377 488.015,578.244 C 488.081,578.244 488.148,578.244 488.214,578.244 C 488.214,578.045 488.214,577.847 488.214,577.648 C 488.28,577.648 488.346,577.648 488.413,577.648 C 488.413,577.516 488.413,577.383 488.413,577.25 C 488.479,577.25 488.545,577.25 488.611,577.25 C 488.611,577.118 488.611,576.986 488.611,576.853 C 488.678,576.853 488.744,576.853 488.81,576.853 C 488.876,576.588 488.943,576.323 489.009,576.058 C 489.075,576.058 489.141,576.058 489.207,576.058 C 489.207,575.86 489.207,575.661 489.207,575.462 C 489.274,575.462 489.34,575.462 489.406,575.462 C 489.406,575.33 489.406,575.197 489.406,575.065 C 489.472,575.065 489.539,575.065 489.605,575.065 C 489.671,574.8 489.737,574.535 489.804,574.27 C 489.87,574.27 489.936,574.27 490.002,574.27 C 490.069,573.806 490.135,573.342 490.201,572.879 C 490.267,572.879 490.333,572.879 490.4,572.879 C 490.4,572.812 490.4,572.746 490.4,572.68 C 490.333,572.68 490.267,572.68 490.201,572.68 C 490.201,572.415 490.201,572.15 490.201,571.885 C 489.911,571.703 489.378,570.988 489.207,570.693 C 489.207,570.56 489.207,570.428 489.207,570.295 C 489.075,570.229 488.943,570.163 488.81,570.097 C 488.81,569.964 488.81,569.832 488.81,569.699 C 488.678,569.633 488.545,569.567 488.413,569.5 C 488.413,569.368 488.413,569.235 488.413,569.103 C 488.28,569.037 488.148,568.971 488.015,568.904 C 488.015,568.772 488.015,568.639 488.015,568.507 C 487.684,568.109 487.353,567.712 487.021,567.315 C 478.08,564.732 469.136,562.148 460.194,559.564 C 460.048,559.285 459.837,558.964 459.598,558.77 C 459.598,557.71 459.598,556.65 459.598,555.59"/>
    </clipPath>
    <clipPath id="clipPath2450" clipPathUnits="userSpaceOnUse">
      <path id="path2452" clip-rule="evenodd" d="M 472.68,557.88 C 472.68,513.168 436.392,476.88 391.68,476.88 C 346.968,476.88 310.68,513.168 310.68,557.88 C 310.68,602.592 346.968,638.88 391.68,638.88 C 436.392,638.88 472.68,602.592 472.68,557.88"/>
    </clipPath>
    <clipPath id="clipPath2440" clipPathUnits="userSpaceOnUse">
      <path id="path2442" d="M 0,792.12 L 612,792.12 L 612,0.12 L 0,0.12 L 0,792.12 z"/>
    </clipPath>
    <clipPath id="clipPath2434" clipPathUnits="userSpaceOnUse">
      <path id="path2436" d="M -1,793 L 613,793 L 613,-1 L -1,-1 L -1,793 z"/>
    </clipPath>
    <clipPath id="clipPath2422" clipPathUnits="userSpaceOnUse">
      <path id="path2424" clip-rule="evenodd" d="M 500.5,617.39 L 584,617.39 L 584,501.4 L 500.5,501.4 L 500.5,617.39 z"/>
    </clipPath>
    <clipPath id="clipPath2416" clipPathUnits="userSpaceOnUse">
      <path id="path2418" clip-rule="evenodd" d="M 509.605,607.853 C 510.996,607.787 512.387,607.721 513.778,607.655 C 513.778,607.589 513.778,607.522 513.778,607.456 C 514.639,607.456 515.501,607.456 516.362,607.456 C 516.362,607.39 516.362,607.324 516.362,607.257 C 517.09,607.257 517.819,607.257 518.547,607.257 C 518.929,607.224 518.945,607.059 518.945,607.059 C 519.74,607.059 520.535,607.059 521.329,607.059 C 521.329,606.992 521.329,606.926 521.329,606.86 C 522.19,606.86 523.052,606.86 523.913,606.86 C 523.913,606.794 523.913,606.727 523.913,606.661 C 524.708,606.661 525.503,606.661 526.298,606.661 C 526.298,606.661 526.309,606.495 526.695,606.462 C 527.424,606.462 528.152,606.462 528.881,606.462 C 528.881,606.396 528.881,606.33 528.881,606.264 C 529.742,606.264 530.603,606.264 531.464,606.264 C 531.464,606.197 531.464,606.131 531.464,606.065 C 532.259,606.065 533.054,606.065 533.849,606.065 C 533.849,606.065 533.861,605.899 534.246,605.866 C 534.975,605.866 535.704,605.866 536.432,605.866 C 536.432,605.8 536.432,605.734 536.432,605.668 C 537.227,605.668 538.022,605.668 538.817,605.668 C 538.817,605.601 538.817,605.535 538.817,605.469 C 539.678,605.469 540.539,605.469 541.4,605.469 C 541.4,605.403 541.4,605.336 541.4,605.27 C 543.056,605.204 544.713,605.138 546.368,605.071 C 546.368,605.005 546.368,604.939 546.368,604.873 C 547.229,604.873 548.091,604.873 548.952,604.873 C 549.222,604.796 548.873,604.719 549.151,604.674 C 549.879,604.674 550.608,604.674 551.336,604.674 C 551.336,604.608 551.336,604.541 551.336,604.475 C 552.197,604.475 553.059,604.475 553.92,604.475 C 553.92,604.409 553.92,604.343 553.92,604.276 C 554.781,604.276 555.642,604.276 556.503,604.276 C 556.503,604.21 556.503,604.144 556.503,604.078 C 557.298,604.078 558.093,604.078 558.888,604.078 C 558.888,604.078 558.9,603.912 559.285,603.879 C 560.014,603.879 560.742,603.879 561.471,603.879 C 561.471,603.813 561.471,603.747 561.471,603.68 C 562.266,603.68 563.061,603.68 563.856,603.68 C 563.856,603.614 563.856,603.548 563.856,603.482 C 565.776,603.349 567.698,603.217 569.618,603.084 C 569.618,603.018 569.618,602.952 569.618,602.885 C 569.751,602.885 569.883,602.885 570.016,602.885 C 570.016,602.819 570.016,602.753 570.016,602.687 C 570.215,602.687 570.413,602.687 570.612,602.687 C 570.678,602.554 570.745,602.422 570.811,602.289 C 570.943,602.289 571.076,602.289 571.208,602.289 C 571.275,602.157 571.341,602.024 571.407,601.892 C 571.54,601.892 571.672,601.892 571.805,601.892 C 571.871,601.759 571.937,601.627 572.003,601.494 C 572.136,601.494 572.268,601.494 572.401,601.494 C 572.401,601.428 572.401,601.362 572.401,601.296 C 572.599,601.229 572.798,601.163 572.997,601.097 C 573.063,600.964 573.129,600.832 573.196,600.7 C 573.328,600.7 573.461,600.7 573.593,600.7 C 573.792,600.435 573.99,600.169 574.189,599.905 C 577.234,597.711 578.784,595.034 579.952,590.962 C 579.886,588.975 579.82,586.988 579.753,585.001 C 579.753,584.272 579.753,583.543 579.753,582.815 C 579.82,582.815 579.886,582.815 579.952,582.815 C 579.952,582.616 579.952,582.417 579.952,582.219 C 580.018,582.219 580.085,582.219 580.151,582.219 C 580.151,581.159 580.151,580.099 580.151,579.039 C 580.151,578.509 580.151,577.979 580.151,577.449 C 579.82,576.058 579.488,574.667 579.157,573.276 C 579.091,573.276 579.025,573.276 578.958,573.276 C 578.958,573.144 578.958,573.011 578.958,572.879 C 578.892,572.879 578.826,572.879 578.76,572.879 C 578.627,572.481 578.495,572.084 578.362,571.686 C 578.296,571.686 578.23,571.686 578.163,571.686 C 578.031,570.428 577.898,569.169 577.766,567.911 C 577.7,567.911 577.633,567.911 577.567,567.911 C 577.501,567.381 577.435,566.851 577.368,566.321 C 577.302,566.321 577.236,566.321 577.17,566.321 C 577.17,566.189 577.17,566.056 577.17,565.923 C 577.104,565.923 577.037,565.923 576.971,565.923 C 576.971,565.725 576.971,565.526 576.971,565.327 C 576.905,565.327 576.839,565.327 576.772,565.327 C 576.772,565.129 576.772,564.93 576.772,564.731 C 576.706,564.731 576.64,564.731 576.574,564.731 C 576.507,564.466 576.441,564.201 576.375,563.936 C 576.309,563.936 576.242,563.936 576.176,563.936 C 576.176,563.738 576.176,563.539 576.176,563.34 C 576.11,563.34 576.044,563.34 575.978,563.34 C 575.978,563.208 575.978,563.075 575.978,562.943 C 575.911,562.943 575.845,562.943 575.779,562.943 C 575.779,562.81 575.779,562.678 575.779,562.545 C 575.646,562.479 575.514,562.413 575.381,562.346 C 575.315,562.082 575.249,561.817 575.183,561.552 C 575.05,561.485 574.918,561.419 574.785,561.353 C 574.454,560.956 574.123,560.558 573.792,560.161 C 573.659,560.161 573.527,560.161 573.394,560.161 C 573.262,559.962 573.129,559.763 572.997,559.564 C 572.864,559.564 572.732,559.564 572.599,559.564 C 572.533,559.432 572.467,559.3 572.401,559.167 C 572.268,559.167 572.136,559.167 572.003,559.167 C 571.937,559.035 571.871,558.902 571.805,558.77 C 570.552,557.981 568.289,558.173 566.24,558.173 C 562.2,558.173 558.159,558.173 554.118,558.173 C 538.951,558.372 523.779,558.571 508.612,558.77 C 508.258,559.72 508.403,561.469 508.413,562.744 C 507.949,563.273 508.214,565.212 508.214,566.122 C 508.148,568.904 508.082,571.687 508.015,574.469 C 507.949,577.714 507.883,580.96 507.817,584.206 C 507.817,585.684 507.691,587.623 508.015,588.776 C 508.015,589.439 508.015,590.101 508.015,590.764 C 508.082,591.956 508.148,593.148 508.214,594.341 C 508.28,594.341 508.347,594.341 508.413,594.341 C 508.413,595.069 508.413,595.798 508.413,596.526 C 508.446,596.906 508.612,596.924 508.612,596.924 C 508.612,597.785 508.612,598.646 508.612,599.507 C 508.678,599.507 508.744,599.507 508.81,599.507 C 508.81,600.368 508.81,601.229 508.81,602.091 C 509.283,603.762 509.016,606.26 509.605,607.853 M 448.598,555.59 C 447.846,555.446 447.538,555.045 447.008,554.795 C 446.81,554.795 446.611,554.795 446.412,554.795 C 446.081,554.398 445.75,554 445.419,553.603 C 445.021,553.537 444.624,553.47 444.226,553.404 C 444.226,553.338 444.226,553.272 444.226,553.205 C 444.028,553.205 443.829,553.205 443.63,553.205 C 443.63,553.139 443.63,553.073 443.63,553.007 C 443.166,552.941 442.703,552.874 442.239,552.808 C 442.239,552.742 442.239,552.675 442.239,552.609 C 442.04,552.609 441.841,552.609 441.643,552.609 C 441.643,552.543 441.643,552.477 441.643,552.411 C 441.444,552.411 441.245,552.411 441.047,552.411 C 441.047,552.344 441.047,552.278 441.047,552.212 C 440.848,552.212 440.649,552.212 440.451,552.212 C 440.451,552.146 440.451,552.079 440.451,552.013 C 440.252,552.013 440.053,552.013 439.854,552.013 C 439.854,551.947 439.854,551.881 439.854,551.814 C 439.589,551.814 439.325,551.814 439.06,551.814 C 439.06,551.748 439.06,551.682 439.06,551.616 C 438.861,551.616 438.662,551.616 438.463,551.616 C 438.463,551.549 438.463,551.483 438.463,551.417 C 438.265,551.417 438.066,551.417 437.867,551.417 C 437.867,551.351 437.867,551.285 437.867,551.218 C 437.669,551.218 437.47,551.218 437.271,551.218 C 437.271,551.152 437.271,551.086 437.271,551.019 C 437.072,551.019 436.874,551.019 436.675,551.019 C 436.675,550.953 436.675,550.887 436.675,550.821 C 436.41,550.821 436.145,550.821 435.88,550.821 C 435.88,550.755 435.88,550.688 435.88,550.622 C 435.681,550.622 435.482,550.622 435.284,550.622 C 435.284,550.556 435.284,550.49 435.284,550.423 C 435.085,550.423 434.886,550.423 434.687,550.423 C 434.687,550.357 434.687,550.291 434.687,550.225 C 434.489,550.225 434.29,550.225 434.091,550.225 C 434.091,550.158 434.091,550.092 434.091,550.026 C 433.893,550.026 433.694,550.026 433.495,550.026 C 433.495,549.96 433.495,549.893 433.495,549.827 C 433.297,549.827 433.098,549.827 432.899,549.827 C 432.899,549.761 432.899,549.695 432.899,549.629 C 432.634,549.629 432.369,549.629 432.104,549.629 C 431.061,549.25 429.92,548.693 428.726,548.436 C 428.575,546.307 427.605,546.563 426.341,545.654 C 426.275,545.522 426.209,545.389 426.143,545.257 C 425.811,544.992 425.48,544.727 425.149,544.462 C 425.149,544.329 425.149,544.197 425.149,544.064 C 425.083,544.064 425.017,544.064 424.95,544.064 C 424.818,543.866 424.685,543.667 424.553,543.468 C 424.222,543.402 423.891,543.336 423.559,543.269 C 423.559,543.203 423.559,543.137 423.559,543.071 C 423.361,543.071 423.162,543.071 422.963,543.071 C 422.963,543.004 422.963,542.938 422.963,542.872 C 422.765,542.872 422.566,542.872 422.367,542.872 C 422.367,542.806 422.367,542.74 422.367,542.673 C 422.168,542.673 421.97,542.673 421.771,542.673 C 421.771,542.607 421.771,542.541 421.771,542.475 C 421.506,542.475 421.241,542.475 420.976,542.475 C 414.839,540.254 408.038,538.729 401.899,536.513 C 401.634,536.513 401.369,536.513 401.104,536.513 C 401.104,536.447 401.104,536.38 401.104,536.314 C 400.905,536.314 400.707,536.314 400.508,536.314 C 400.508,536.248 400.508,536.182 400.508,536.115 C 400.309,536.115 400.11,536.115 399.912,536.115 C 399.912,536.049 399.912,535.983 399.912,535.917 C 399.249,535.784 398.587,535.652 397.925,535.519 C 397.925,535.453 397.925,535.387 397.925,535.321 C 397.66,535.321 397.395,535.321 397.13,535.321 C 390.357,532.857 382.882,531.216 376.065,528.763 C 375.8,528.763 375.535,528.763 375.27,528.763 C 375.27,528.697 375.27,528.63 375.27,528.564 C 375.072,528.564 374.873,528.564 374.674,528.564 C 374.674,528.498 374.674,528.432 374.674,528.365 C 374.409,528.365 374.144,528.365 373.879,528.365 C 371.13,527.369 367.881,526.576 365.136,525.583 C 363.944,525.318 362.751,525.053 361.559,524.788 C 358.357,523.628 354.628,522.762 351.424,521.609 C 350.232,521.344 349.039,521.079 347.847,520.814 C 343.553,519.252 338.631,518.193 334.334,516.641 C 334.069,516.641 333.804,516.641 333.539,516.641 C 333.539,516.575 333.539,516.508 333.539,516.442 C 333.341,516.442 333.142,516.442 332.943,516.442 C 332.943,516.376 332.943,516.31 332.943,516.244 C 332.678,516.244 332.413,516.244 332.148,516.244 C 329.124,515.149 325.636,514.351 322.609,513.263 C 322.345,513.263 322.08,513.263 321.815,513.263 C 321.815,513.196 321.815,513.13 321.815,513.064 C 321.616,513.064 321.417,513.064 321.219,513.064 C 321.219,512.998 321.219,512.932 321.219,512.865 C 321.02,512.865 320.821,512.865 320.622,512.865 C 320.622,512.799 320.622,512.733 320.622,512.667 C 320.357,512.667 320.093,512.667 319.828,512.667 C 315.257,511.015 310.086,509.931 305.52,508.295 C 304.327,508.03 303.135,507.765 301.943,507.5 C 301.943,507.434 301.943,507.367 301.943,507.301 C 301.28,507.169 300.618,507.036 299.955,506.904 C 299.955,506.837 299.955,506.771 299.955,506.705 C 299.757,506.705 299.558,506.705 299.359,506.705 C 299.359,506.639 299.359,506.573 299.359,506.506 C 299.161,506.506 298.962,506.506 298.763,506.506 C 298.763,506.44 298.763,506.374 298.763,506.307 C 298.564,506.307 298.366,506.307 298.167,506.307 C 298.167,506.241 298.167,506.175 298.167,506.109 C 297.968,506.109 297.77,506.109 297.571,506.109 C 297.571,506.043 297.571,505.976 297.571,505.91 C 297.372,505.91 297.173,505.91 296.975,505.91 C 296.975,505.844 296.975,505.778 296.975,505.711 C 296.776,505.711 296.577,505.711 296.379,505.711 C 296.379,505.645 296.379,505.579 296.379,505.513 C 296.18,505.513 295.981,505.513 295.783,505.513 C 295.783,505.446 295.783,505.38 295.783,505.314 C 295.186,505.181 294.59,505.049 293.994,504.917 C 293.994,504.85 293.994,504.784 293.994,504.718 C 293.729,504.718 293.464,504.718 293.199,504.718 C 293.199,504.652 293.199,504.585 293.199,504.519 C 292.934,504.519 292.669,504.519 292.404,504.519 C 292.404,504.453 292.404,504.387 292.404,504.32 C 291.94,504.32 291.477,504.32 291.013,504.32 C 291.006,504.319 290.854,504.028 290.417,504.122 C 290.417,504.188 290.417,504.254 290.417,504.32 C 289.887,504.32 289.357,504.32 288.827,504.32 C 288.827,504.387 288.827,504.453 288.827,504.519 C 288.496,504.519 288.165,504.519 287.834,504.519 C 287.834,504.585 287.834,504.652 287.834,504.718 C 287.436,504.85 287.039,504.983 286.641,505.115 C 286.509,505.38 286.376,505.645 286.244,505.91 C 286.111,505.976 285.979,506.043 285.846,506.109 C 285.846,506.241 285.846,506.374 285.846,506.506 C 285.78,506.506 285.714,506.506 285.648,506.506 C 285.515,506.904 285.383,507.301 285.25,507.699 C 285.184,507.699 285.118,507.699 285.051,507.699 C 285.051,507.897 285.051,508.096 285.051,508.295 C 284.985,508.295 284.919,508.295 284.853,508.295 C 284.853,508.427 284.853,508.56 284.853,508.692 C 284.786,508.692 284.72,508.692 284.654,508.692 C 284.455,509.288 284.256,509.885 284.058,510.481 C 283.793,510.679 283.528,510.878 283.263,511.077 C 283.197,511.209 283.13,511.342 283.064,511.474 C 282.932,511.474 282.799,511.474 282.667,511.474 C 282.534,511.673 282.402,511.872 282.269,512.07 C 282.137,512.07 282.004,512.07 281.872,512.07 C 280.746,513.263 279.62,514.455 278.494,515.647 C 277.235,516.84 275.977,518.032 274.718,519.224 C 274.718,519.357 274.718,519.489 274.718,519.622 C 274.519,519.754 274.321,519.887 274.122,520.019 C 274.056,520.218 273.989,520.417 273.923,520.615 C 273.791,520.682 273.658,520.748 273.526,520.814 C 273.526,520.947 273.526,521.079 273.526,521.211 C 273.393,521.278 273.261,521.344 273.128,521.41 C 273.062,521.609 272.996,521.808 272.93,522.006 C 272.863,522.006 272.797,522.006 272.731,522.006 C 272.731,522.139 272.731,522.271 272.731,522.404 C 272.598,522.47 272.466,522.536 272.333,522.603 C 272.267,522.867 272.201,523.133 272.135,523.397 C 272.002,523.464 271.87,523.53 271.737,523.596 C 271.671,523.861 271.605,524.126 271.539,524.391 C 271.406,524.457 271.274,524.523 271.141,524.59 C 271.141,524.722 271.141,524.855 271.141,524.987 C 271.075,524.987 271.009,524.987 270.943,524.987 C 270.943,525.12 270.943,525.252 270.943,525.385 C 270.876,525.385 270.81,525.385 270.744,525.385 C 270.744,525.517 270.744,525.65 270.744,525.782 C 270.678,525.782 270.611,525.782 270.545,525.782 C 270.545,525.915 270.545,526.047 270.545,526.18 C 270.479,526.18 270.412,526.18 270.346,526.18 C 270.346,526.312 270.346,526.444 270.346,526.577 C 270.28,526.577 270.214,526.577 270.147,526.577 C 270.147,526.709 270.147,526.842 270.147,526.974 C 270.081,526.974 270.015,526.974 269.949,526.974 C 269.949,527.107 269.949,527.239 269.949,527.372 C 269.883,527.372 269.816,527.372 269.75,527.372 C 269.618,527.769 269.485,528.167 269.353,528.564 C 269.286,528.564 269.22,528.564 269.154,528.564 C 269.154,528.763 269.154,528.962 269.154,529.16 C 269.088,529.16 269.021,529.16 268.955,529.16 C 268.955,529.293 268.955,529.425 268.955,529.558 C 268.889,529.558 268.823,529.558 268.756,529.558 C 268.756,529.756 268.756,529.955 268.756,530.154 C 268.69,530.154 268.624,530.154 268.558,530.154 C 268.558,530.419 268.558,530.684 268.558,530.949 C 268.491,530.949 268.425,530.949 268.359,530.949 C 268.359,531.214 268.359,531.479 268.359,531.744 C 268.293,531.744 268.226,531.744 268.16,531.744 C 268.16,532.075 268.16,532.406 268.16,532.737 C 268.094,532.737 268.028,532.737 267.961,532.737 C 267.961,533.068 267.961,533.4 267.961,533.731 C 267.895,533.731 267.829,533.731 267.763,533.731 C 267.763,534.195 267.763,534.658 267.763,535.122 C 267.697,535.122 267.63,535.122 267.564,535.122 C 267.564,535.784 267.564,536.447 267.564,537.109 C 267.498,537.109 267.432,537.109 267.365,537.109 C 267.365,537.97 267.365,538.831 267.365,539.692 C 267.299,539.692 267.233,539.692 267.167,539.692 C 267.167,540.752 267.167,541.812 267.167,542.872 C 267.166,546.081 267.367,548.871 268.16,551.218 C 268.293,551.881 268.425,552.543 268.558,553.205 C 268.624,553.205 268.69,553.205 268.756,553.205 C 268.756,553.338 268.756,553.47 268.756,553.603 C 268.823,553.603 268.889,553.603 268.955,553.603 C 269.021,554 269.088,554.398 269.154,554.795 C 269.22,554.795 269.286,554.795 269.353,554.795 C 269.353,554.928 269.353,555.06 269.353,555.193 C 269.419,555.193 269.485,555.193 269.551,555.193 C 269.618,555.524 269.684,555.855 269.75,556.186 C 269.816,556.186 269.883,556.186 269.949,556.186 C 270.081,556.584 270.214,556.981 270.346,557.379 C 270.412,557.379 270.479,557.379 270.545,557.379 C 270.545,557.511 270.545,557.644 270.545,557.776 C 270.611,557.776 270.678,557.776 270.744,557.776 C 270.744,557.908 270.744,558.041 270.744,558.173 C 270.81,558.173 270.876,558.173 270.943,558.173 C 271.075,558.571 271.207,558.968 271.34,559.366 C 271.539,559.498 271.737,559.631 271.936,559.763 C 271.936,559.829 271.936,559.896 271.936,559.962 C 272.069,559.962 272.201,559.962 272.333,559.962 C 272.333,560.028 272.333,560.094 272.333,560.161 C 272.466,560.161 272.598,560.161 272.731,560.161 C 272.863,560.359 272.996,560.558 273.128,560.757 C 273.195,560.757 273.261,560.757 273.327,560.757 C 273.327,561.022 273.327,561.287 273.327,561.552 C 273.393,561.552 273.46,561.552 273.526,561.552 C 273.945,562.435 273.775,562.532 274.519,563.141 C 274.519,563.208 274.519,563.274 274.519,563.34 C 276.97,564.135 279.421,564.93 281.872,565.725 C 281.938,565.923 282.004,566.122 282.071,566.321 C 283.029,566.337 283.756,566.677 284.455,566.917 C 284.72,566.917 284.985,566.917 285.25,566.917 C 285.25,566.983 285.25,567.05 285.25,567.116 C 285.515,567.116 285.78,567.116 286.045,567.116 C 286.045,567.182 286.045,567.248 286.045,567.315 C 286.31,567.315 286.575,567.315 286.84,567.315 C 286.84,567.381 286.84,567.447 286.84,567.513 C 287.105,567.513 287.37,567.513 287.635,567.513 C 287.635,567.579 287.635,567.646 287.635,567.712 C 288.231,567.778 288.827,567.845 289.423,567.911 C 291.138,568.5 293.272,568.913 294.988,569.5 C 296.577,569.832 298.167,570.163 299.757,570.494 C 305.079,572.324 311.313,573.046 316.648,574.866 C 317.443,574.998 318.238,575.131 319.033,575.263 C 321.517,576.116 324.496,576.602 326.982,577.449 C 327.776,577.582 328.571,577.714 329.366,577.847 C 331.735,578.701 334.695,579.207 337.116,580.033 C 337.911,580.165 338.706,580.298 339.501,580.43 C 341.216,581.018 343.349,581.435 345.065,582.02 C 345.595,582.086 346.125,582.152 346.655,582.219 C 347.853,582.629 349.431,583 350.629,583.411 C 350.894,583.411 351.159,583.411 351.424,583.411 C 355.577,584.908 360.522,585.55 364.738,586.988 C 366.063,587.253 367.388,587.518 368.713,587.783 C 368.713,587.849 368.713,587.915 368.713,587.981 C 369.507,588.114 370.302,588.246 371.097,588.379 C 373.026,589.04 375.321,589.507 377.258,590.167 C 377.787,590.234 378.317,590.3 378.847,590.366 C 383.127,591.831 388.078,592.486 392.36,593.943 C 393.685,594.208 395.01,594.473 396.335,594.738 C 396.335,594.804 396.335,594.87 396.335,594.937 C 397.924,595.268 399.514,595.599 401.104,595.93 C 402.562,596.426 404.415,596.827 405.873,597.321 C 406.403,597.387 406.933,597.454 407.463,597.52 C 407.463,597.586 407.463,597.653 407.463,597.719 C 407.728,597.719 407.993,597.719 408.258,597.719 C 408.258,597.785 408.258,597.851 408.258,597.917 C 408.523,597.917 408.788,597.917 409.053,597.917 C 409.053,597.984 409.053,598.05 409.053,598.116 C 409.318,598.116 409.583,598.116 409.848,598.116 C 409.848,598.182 409.848,598.249 409.848,598.315 C 410.599,598.563 410.843,598.396 411.437,598.315 C 411.504,598.116 411.57,597.917 411.636,597.719 C 411.702,597.719 411.769,597.719 411.835,597.719 C 411.835,597.586 411.835,597.454 411.835,597.321 C 411.901,597.321 411.967,597.321 412.034,597.321 C 412.034,597.189 412.034,597.056 412.034,596.924 C 412.166,596.858 412.299,596.791 412.431,596.725 C 412.497,596.46 412.563,596.195 412.63,595.93 C 412.762,595.864 412.895,595.798 413.027,595.731 C 413.093,595.533 413.16,595.334 413.226,595.135 C 413.425,595.135 413.624,595.135 413.822,595.135 C 414.277,595.537 414.768,595.313 415.412,595.533 C 416.348,595.852 417.654,596.209 418.591,596.526 C 418.856,596.526 419.121,596.526 419.386,596.526 C 421.356,597.196 423.774,597.648 425.745,598.315 C 426.275,598.381 426.805,598.447 427.335,598.514 C 427.335,598.58 427.335,598.646 427.335,598.712 C 428.196,598.845 429.057,598.977 429.919,599.11 C 431.116,599.496 432.065,599.864 433.694,599.905 C 433.826,599.651 434.008,599.633 434.091,599.507 C 434.091,599.375 434.091,599.242 434.091,599.11 C 434.224,599.043 434.356,598.977 434.489,598.911 C 434.489,598.779 434.489,598.646 434.489,598.514 C 434.555,598.514 434.621,598.514 434.687,598.514 C 434.687,598.381 434.687,598.249 434.687,598.116 C 434.754,598.116 434.82,598.116 434.886,598.116 C 434.886,597.984 434.886,597.851 434.886,597.719 C 434.952,597.719 435.019,597.719 435.085,597.719 C 435.085,597.586 435.085,597.454 435.085,597.321 C 435.151,597.321 435.217,597.321 435.284,597.321 C 435.284,597.189 435.284,597.056 435.284,596.924 C 435.35,596.924 435.416,596.924 435.482,596.924 C 435.482,596.791 435.482,596.659 435.482,596.526 C 435.615,596.46 435.747,596.394 435.88,596.328 C 435.88,596.195 435.88,596.063 435.88,595.93 C 436.12,595.505 436.45,595.026 436.675,594.539 C 441.169,596.099 446.174,596.925 450.585,598.514 C 451.844,598.779 453.103,599.043 454.361,599.308 C 454.361,599.375 454.361,599.441 454.361,599.507 C 454.825,599.573 455.288,599.64 455.752,599.706 C 455.752,599.772 455.752,599.838 455.752,599.905 C 455.951,599.905 456.149,599.905 456.348,599.905 C 456.348,599.971 456.348,600.037 456.348,600.103 C 457.077,600.236 457.805,600.368 458.534,600.501 C 458.534,600.567 458.534,600.633 458.534,600.7 C 458.998,600.766 459.461,600.832 459.925,600.898 C 459.925,600.964 459.925,601.031 459.925,601.097 C 460.455,601.163 460.985,601.229 461.515,601.296 C 462.952,601.81 464.373,602.436 466.284,602.488 C 466.35,602.289 466.416,602.091 466.483,601.892 C 466.549,601.892 466.615,601.892 466.681,601.892 C 466.681,601.759 466.681,601.627 466.681,601.494 C 466.748,601.494 466.814,601.494 466.88,601.494 C 466.88,601.296 466.88,601.097 466.88,600.898 C 466.946,600.898 467.013,600.898 467.079,600.898 C 467.079,600.766 467.079,600.633 467.079,600.501 C 467.145,600.501 467.211,600.501 467.278,600.501 C 467.278,600.368 467.278,600.236 467.278,600.103 C 467.344,600.103 467.41,600.103 467.476,600.103 C 467.476,599.971 467.476,599.838 467.476,599.706 C 467.543,599.706 467.609,599.706 467.675,599.706 C 467.675,599.507 467.675,599.308 467.675,599.11 C 467.741,599.11 467.808,599.11 467.874,599.11 C 467.874,598.977 467.874,598.845 467.874,598.712 C 467.94,598.712 468.006,598.712 468.073,598.712 C 468.139,598.447 468.205,598.182 468.271,597.917 C 468.338,597.917 468.404,597.917 468.47,597.917 C 468.47,597.719 468.47,597.52 468.47,597.321 C 468.536,597.321 468.603,597.321 468.669,597.321 C 468.669,597.189 468.669,597.056 468.669,596.924 C 468.735,596.924 468.801,596.924 468.868,596.924 C 468.934,596.659 469,596.394 469.066,596.129 C 469.133,596.129 469.199,596.129 469.265,596.129 C 469.265,595.93 469.265,595.731 469.265,595.533 C 469.331,595.533 469.398,595.533 469.464,595.533 C 469.464,595.4 469.464,595.268 469.464,595.135 C 469.53,595.135 469.596,595.135 469.663,595.135 C 469.729,594.87 469.795,594.605 469.861,594.341 C 469.927,594.341 469.994,594.341 470.06,594.341 C 470.06,594.142 470.06,593.943 470.06,593.744 C 470.126,593.744 470.192,593.744 470.259,593.744 C 470.259,593.612 470.259,593.479 470.259,593.347 C 470.325,593.347 470.391,593.347 470.457,593.347 C 470.524,593.082 470.59,592.817 470.656,592.552 C 470.722,592.552 470.789,592.552 470.855,592.552 C 470.855,592.353 470.855,592.155 470.855,591.956 C 470.921,591.956 470.987,591.956 471.053,591.956 C 471.053,591.823 471.053,591.691 471.053,591.558 C 471.12,591.558 471.186,591.558 471.252,591.558 C 471.318,591.293 471.385,591.029 471.451,590.764 C 471.517,590.764 471.583,590.764 471.65,590.764 C 471.65,590.565 471.65,590.366 471.65,590.167 C 471.716,590.167 471.782,590.167 471.848,590.167 C 471.848,590.035 471.848,589.902 471.848,589.77 C 471.914,589.77 471.981,589.77 472.047,589.77 C 472.113,589.505 472.18,589.24 472.246,588.975 C 472.312,588.975 472.378,588.975 472.444,588.975 C 472.444,588.776 472.444,588.578 472.444,588.379 C 472.511,588.379 472.577,588.379 472.643,588.379 C 472.643,588.246 472.643,588.114 472.643,587.981 C 472.709,587.981 472.776,587.981 472.842,587.981 C 472.842,587.849 472.842,587.716 472.842,587.584 C 472.908,587.584 472.974,587.584 473.041,587.584 C 473.041,587.452 473.041,587.319 473.041,587.187 C 473.107,587.187 473.173,587.187 473.239,587.187 C 473.305,586.855 473.372,586.524 473.438,586.193 C 473.504,586.193 473.57,586.193 473.637,586.193 C 473.703,585.928 473.769,585.663 473.835,585.398 C 473.902,585.398 473.968,585.398 474.034,585.398 C 474.034,585.199 474.034,585.001 474.034,584.802 C 474.1,584.802 474.167,584.802 474.233,584.802 C 474.233,584.669 474.233,584.537 474.233,584.404 C 474.299,584.404 474.365,584.404 474.431,584.404 C 474.498,584.14 474.564,583.875 474.63,583.61 C 474.696,583.61 474.763,583.61 474.829,583.61 C 474.829,583.411 474.829,583.212 474.829,583.013 C 474.895,583.013 474.962,583.013 475.028,583.013 C 475.028,582.881 475.028,582.748 475.028,582.616 C 475.094,582.616 475.16,582.616 475.226,582.616 C 475.293,582.351 475.359,582.086 475.425,581.821 C 475.491,581.821 475.558,581.821 475.624,581.821 C 475.624,581.622 475.624,581.424 475.624,581.225 C 475.69,581.225 475.756,581.225 475.823,581.225 C 475.823,581.093 475.823,580.96 475.823,580.828 C 475.889,580.828 475.955,580.828 476.021,580.828 C 476.088,580.563 476.154,580.298 476.22,580.033 C 476.286,580.033 476.353,580.033 476.419,580.033 C 476.419,579.834 476.419,579.635 476.419,579.437 C 476.485,579.437 476.551,579.437 476.618,579.437 C 476.618,579.304 476.618,579.171 476.618,579.039 C 476.684,579.039 476.75,579.039 476.816,579.039 C 476.816,578.906 476.816,578.774 476.816,578.642 C 476.883,578.642 476.949,578.642 477.015,578.642 C 477.015,578.509 477.015,578.377 477.015,578.244 C 477.081,578.244 477.148,578.244 477.214,578.244 C 477.214,578.045 477.214,577.847 477.214,577.648 C 477.28,577.648 477.346,577.648 477.413,577.648 C 477.413,577.516 477.413,577.383 477.413,577.25 C 477.479,577.25 477.545,577.25 477.611,577.25 C 477.611,577.118 477.611,576.986 477.611,576.853 C 477.678,576.853 477.744,576.853 477.81,576.853 C 477.876,576.588 477.943,576.323 478.009,576.058 C 478.075,576.058 478.141,576.058 478.207,576.058 C 478.207,575.86 478.207,575.661 478.207,575.462 C 478.274,575.462 478.34,575.462 478.406,575.462 C 478.406,575.33 478.406,575.197 478.406,575.065 C 478.472,575.065 478.539,575.065 478.605,575.065 C 478.671,574.8 478.737,574.535 478.804,574.27 C 478.87,574.27 478.936,574.27 479.002,574.27 C 479.068,573.806 479.135,573.342 479.201,572.879 C 479.267,572.879 479.333,572.879 479.4,572.879 C 479.4,572.812 479.4,572.746 479.4,572.68 C 479.333,572.68 479.267,572.68 479.201,572.68 C 479.201,572.415 479.201,572.15 479.201,571.885 C 478.911,571.703 478.378,570.988 478.207,570.693 C 478.207,570.56 478.207,570.428 478.207,570.295 C 478.075,570.229 477.943,570.163 477.81,570.097 C 477.81,569.964 477.81,569.832 477.81,569.699 C 477.678,569.633 477.545,569.567 477.413,569.5 C 477.413,569.368 477.413,569.235 477.413,569.103 C 477.28,569.037 477.148,568.971 477.015,568.904 C 477.015,568.772 477.015,568.639 477.015,568.507 C 476.684,568.109 476.353,567.712 476.021,567.315 C 467.08,564.732 458.136,562.148 449.194,559.564 C 449.048,559.285 448.837,558.964 448.598,558.77 C 448.598,557.71 448.598,556.65 448.598,555.59"/>
    </clipPath>
    <clipPath id="clipPath2406" clipPathUnits="userSpaceOnUse">
      <path id="path2408" d="M 0,792.12 L 612,792.12 L 612,0.12 L 0,0.12 L 0,792.12 z"/>
    </clipPath>
    <clipPath id="clipPath2400" clipPathUnits="userSpaceOnUse">
      <path id="path2402" d="M -1,793 L 613,793 L 613,-1 L -1,-1 L -1,793 z"/>
    </clipPath>
    <inkscape:perspective id="perspective2390" inkscape:persp3d-origin="372.04724 : 350.78739 : 1" inkscape:vp_z="744.09448 : 526.18109 : 1" inkscape:vp_y="0 : 1000 : 0" inkscape:vp_x="0 : 526.18109 : 1" sodipodi:type="inkscape:persp3d"/>
  </defs>
  <sodipodi:namedview id="base" pagecolor="#ffffff" bordercolor="#666666" borderopacity="1.0" gridtolerance="10000" guidetolerance="10" objecttolerance="10" inkscape:pageopacity="0.0" inkscape:pageshadow="2" inkscape:zoom="1" inkscape:cx="81.149207" inkscape:cy="167.75465" inkscape:document-units="px" inkscape:current-layer="layer1" showgrid="false" inkscape:window-width="640" inkscape:window-height="672" inkscape:window-x="66" inkscape:window-y="69"/>
  <metadata id="metadata7">
    <rdf:RDF>
      <cc:Work rdf:about="">
        <dc:format>image/svg+xml</dc:format>
        <dc:type rdf:resource="http://purl.org/dc/dcmitype/StillImage"/>
      </cc:Work>
    </rdf:RDF>
  </metadata>
  <g inkscape:label="Layer 1" inkscape:groupmode="layer" id="layer1" transform="translate(-425.088, -495.067)">
    <g id="g4411">
      <path id="path2496" style="fill: rgb(35, 31, 32); fill-opacity: 1; fill-rule: nonzero; stroke: none;" d="M 620.4441,523.93058 C 620.0441,524.31933 619.56785,524.50683 619.0066,524.51183 C 618.4341,524.50683 617.95035,524.31433 617.55785,523.91808 C 617.15785,523.51933 616.9641,523.03933 616.9666,522.46183 C 616.9641,521.86808 617.1766,521.36808 617.6041,520.97183 C 617.9991,520.60558 618.47035,520.42058 619.0116,520.42058 C 619.57035,520.42058 620.05285,520.61808 620.45285,521.01808 C 620.85535,521.41808 621.05535,521.89933 621.05285,522.46558 C 621.05535,523.04433 620.8466,523.53308 620.4441,523.93058 z M 617.8066,521.28558 C 617.48535,521.62058 617.3241,522.01183 617.32535,522.47058 C 617.32285,522.94433 617.4841,523.34433 617.8166,523.67433 C 618.1516,524.00183 618.5441,524.16808 619.0116,524.16558 C 619.4791,524.16808 619.8741,524.00683 620.2016,523.66933 C 620.53035,523.33558 620.70035,522.93933 620.69535,522.47058 C 620.6941,522.01683 620.52785,521.62308 620.2016,521.28558 C 619.8741,520.94933 619.4766,520.77933 619.0141,520.77558 C 618.54285,520.77558 618.1416,520.94933 617.8066,521.28558 z M 618.10785,523.59558 L 618.10785,521.33058 C 618.2491,521.33183 618.4616,521.33058 618.7391,521.33183 C 619.0191,521.33183 619.1716,521.34058 619.2066,521.34058 C 619.3866,521.35058 619.52785,521.39183 619.65285,521.45558 C 619.8491,521.56433 619.9516,521.74558 619.95285,521.99308 C 619.95285,522.18558 619.8991,522.32433 619.7916,522.40683 C 619.6841,522.49433 619.5591,522.54933 619.4041,522.56308 C 619.5441,522.59558 619.65535,522.63683 619.7291,522.69183 C 619.8691,522.80183 619.9366,522.97058 619.9341,523.20058 L 619.93285,523.39933 C 619.93285,523.42308 619.93535,523.44433 619.93785,523.46808 C 619.93785,523.49183 619.94535,523.50808 619.9466,523.53308 L 619.9616,523.59558 L 619.40285,523.59558 C 619.3766,523.52308 619.36785,523.41808 619.3641,523.28308 C 619.3566,523.14933 619.34785,523.05933 619.32535,523.00808 C 619.29535,522.92933 619.24285,522.87308 619.15535,522.84683 C 619.1091,522.82933 619.04285,522.81183 618.95285,522.80683 L 618.82035,522.80058 L 618.6866,522.80183 L 618.6941,523.59558 L 618.10785,523.59558 z M 619.18535,521.77308 C 619.10285,521.74058 618.9866,521.72558 618.8416,521.73058 L 618.6916,521.72558 L 618.69285,522.38433 L 618.9266,522.38808 C 619.06035,522.38808 619.1741,522.36058 619.2516,522.30433 C 619.3341,522.24683 619.37035,522.15808 619.37035,522.03308 C 619.3691,521.91058 619.30535,521.82183 619.18535,521.77308"/>
      <path id="path2498" style="fill: rgb(237, 27, 45); fill-opacity: 1; fill-rule: nonzero; stroke: none;" d="M 458.79035,528.67058 L 439.7616,528.67433 L 451.1166,498.55058 C 452.8741,494.02433 456.9591,495.28308 458.7916,495.09058 L 458.79035,528.67058"/>
      <path id="path2500" style="fill: rgb(237, 27, 45); fill-opacity: 1; fill-rule: nonzero; stroke: none;" d="M 432.3241,528.60058 L 432.32535,528.66933 L 425.08785,528.67058 L 425.08785,508.89558 L 432.3241,528.60058"/>
      <path id="path2502" style="fill: rgb(237, 27, 45); fill-opacity: 1; fill-rule: nonzero; stroke: none;" d="M 429.2841,497.18558 C 429.57785,496.62933 430.1441,496.17058 430.73785,496.09558 L 445.15285,496.09558 C 445.74535,496.17433 446.3091,496.62933 446.60535,497.18558 C 446.8291,497.67808 446.71535,498.31058 446.57035,498.79933 L 437.86785,521.65808 L 429.35535,498.77683 C 429.35535,498.77683 429.05535,497.67808 429.2841,497.18558"/>
      <path id="path2504" style="fill: rgb(0, 0, 0); fill-opacity: 1; fill-rule: evenodd; stroke: none;" d="M 504.4541,503.91308 C 510.31535,503.86308 513.4791,508.64308 513.5691,512.52933 C 513.58535,513.01808 513.5716,513.77183 513.5716,513.77183 L 499.1766,513.77183 C 499.1766,513.77183 499.2241,515.05433 499.31285,515.65433 C 499.86785,519.27308 502.2866,522.48558 505.9191,522.48558 C 510.13285,522.48308 511.5591,519.13308 511.70035,516.98058 L 512.5141,516.98058 L 512.51535,522.24808 C 512.3016,522.36558 509.42035,523.84058 506.9791,524.31933 C 505.1016,524.67683 503.35035,524.40933 503.35035,524.40933 C 499.82285,524.12933 494.9391,521.27683 494.22785,515.89933 C 494.04035,514.52933 494.14285,513.34058 494.4066,511.88683 C 495.3241,507.01183 498.90785,503.96058 504.4541,503.91308 z M 572.02285,496.22058 L 572.0216,504.53058 L 574.9591,504.53308 L 574.95785,506.27433 L 571.97535,506.27683 L 571.9741,521.10558 C 571.9741,521.10558 571.74535,523.34808 573.85035,523.44933 L 573.8541,524.36433 L 567.16035,524.36433 L 567.1591,506.27433 L 563.57785,506.27433 L 563.57535,504.53308 C 570.04035,504.48058 571.33035,498.05933 572.02285,496.22058 z M 577.1141,499.86558 C 577.1116,498.28808 578.3841,497.01683 579.95535,497.01683 C 581.5341,497.01933 582.80035,498.28308 582.7966,499.86558 C 582.80035,501.43683 581.53035,502.71058 579.9541,502.71058 C 578.38785,502.71058 577.11035,501.43683 577.1141,499.86558 z M 576.29035,504.54808 L 582.7116,504.54308 L 582.7116,521.30433 C 582.70785,522.16308 582.70785,523.42058 584.40785,523.50808 L 584.4066,524.24308 L 575.91535,524.24058 L 575.91035,523.36683 C 577.62035,523.54558 577.79535,521.71808 577.79535,521.71808 L 577.7966,507.29933 C 577.7966,507.29933 577.84285,505.80308 576.28785,505.60058 L 576.29035,504.54808 z M 558.93285,512.76183 L 558.93535,519.33183 C 557.7016,520.75183 556.4516,521.44058 555.31535,521.44058 C 553.4291,521.44183 552.2341,520.27808 552.2341,518.41308 C 552.2341,516.28058 554.85035,513.26683 558.93285,512.76183 z M 536.4941,506.83558 C 538.43035,506.94183 540.19285,508.38933 541.0441,511.06433 C 541.3441,512.01183 541.4241,512.71433 541.46035,514.06433 C 541.55535,517.56683 539.77035,521.80433 536.5416,521.99308 C 533.34035,522.17683 532.14285,519.01183 532.14285,519.01183 L 532.1416,509.37308 C 532.1416,509.37308 533.5616,506.68933 536.4941,506.83558 z M 585.69035,504.59183 L 592.02035,504.59183 L 592.0191,506.98308 C 592.7541,506.47808 593.9016,504.17933 597.39535,504.31933 C 599.14785,504.38683 600.74535,504.77308 602.34285,507.29933 C 604.1316,505.64933 605.44035,504.40933 608.2641,504.40558 C 611.43035,504.40558 614.04535,506.53308 614.0466,509.27308 L 614.0466,521.67058 C 614.0466,521.67058 613.82285,523.32183 616.0691,523.59808 L 616.0691,524.28433 L 609.1891,524.28558 L 609.18285,510.24183 C 609.1866,508.83183 608.24535,507.25058 606.1591,507.25058 C 604.53535,507.25058 603.0366,508.40308 603.0341,509.68933 L 603.03535,521.21183 C 603.03535,521.21183 602.7166,523.59558 605.1441,523.50808 L 605.1441,524.33058 L 596.28785,524.33058 L 596.2866,523.50808 C 598.3541,523.45933 598.21785,521.76808 598.21785,521.76808 L 598.2166,510.14933 C 598.2191,508.63433 597.31785,507.25933 595.3741,507.20933 C 593.59035,507.16308 592.1641,508.89183 592.1641,510.10558 L 592.1641,520.98683 C 592.1641,520.98683 591.9766,523.59808 594.13785,523.50808 L 594.14035,524.24058 L 585.8716,524.24308 L 585.8716,523.46183 C 587.6616,523.42308 587.5741,521.67058 587.5741,521.67058 L 587.57285,508.44933 C 587.57285,508.44933 587.7966,505.45808 585.6941,505.50933 L 585.69035,504.59183 z M 513.0066,504.45683 L 519.7516,504.45683 L 519.75035,507.25058 C 519.75035,507.25058 520.44285,505.75683 522.5066,504.81933 C 523.9316,504.17558 525.76285,504.31933 525.76285,504.31933 L 525.76285,510.42058 L 525.0316,510.42433 C 524.66035,508.91808 524.0516,508.12308 522.7766,507.94433 C 521.4966,507.76183 520.1641,509.11183 520.16535,510.05933 L 520.16285,521.80433 C 520.16535,522.80558 521.0391,523.23058 522.27535,523.36683 L 522.2791,524.24308 L 512.87535,524.24558 L 512.8741,523.18558 C 514.88535,523.14183 515.07035,521.92933 515.07285,521.21058 L 515.07035,506.88683 C 515.07285,505.46183 513.00785,505.23308 513.00785,505.23308 L 513.0066,504.45683 z M 555.3341,503.94558 C 559.22285,503.90808 563.31535,505.92558 563.31535,510.28308 L 563.32535,521.26183 C 563.3266,522.09183 563.68285,523.73308 565.29285,523.54558 L 565.2941,524.28558 L 558.50285,524.28433 L 558.50285,521.85058 C 556.43535,523.87683 554.33785,524.73183 552.3891,524.70433 C 549.36285,524.65808 546.2916,522.40683 546.52035,519.33058 C 547.21035,510.05933 558.73285,513.44933 558.5541,508.77183 C 558.5541,508.77183 558.52785,506.02808 554.41535,505.97183 C 550.87785,505.92683 548.77285,508.12308 548.64035,510.60558 L 547.54035,510.60558 L 547.5366,505.83058 C 547.5366,505.83058 550.7516,503.99683 555.3341,503.94558 z M 532.09785,495.08183 L 532.0991,506.83683 C 532.0991,506.83683 534.9816,504.08683 538.24285,504.17558 C 543.1266,504.32183 546.64035,508.95058 546.5991,514.41558 C 546.5491,520.19558 543.7491,524.05683 538.06285,524.56058 C 535.0216,524.82933 533.0616,522.91308 531.86535,521.57933 L 531.86535,524.24058 L 524.8841,524.24308 L 524.88285,523.32183 C 526.82285,523.50808 527.24035,521.57933 527.2391,520.89308 L 527.2366,498.30308 C 527.2391,496.69433 526.4466,495.78058 524.70535,495.68433 L 524.7116,495.08058 L 532.09785,495.08183 z M 505.4566,505.70558 C 506.8416,505.88683 508.7641,507.71558 508.76285,509.87058 C 508.7641,511.30808 507.65285,511.97808 506.88035,511.98058 L 499.1766,511.97558 L 499.17785,511.56933 C 499.40285,508.64308 501.24035,505.15433 505.4566,505.70558 z M 485.69785,519.80558 L 493.4641,499.80058 C 494.5616,496.42808 491.50535,496.19933 491.1216,496.24808 L 491.10285,495.37058 L 501.75035,495.36683 L 501.7516,496.23808 C 500.1416,496.34058 497.6141,497.03808 496.40285,500.07558 L 483.9591,531.18433 C 483.4116,528.76683 471.3541,498.97308 471.3541,498.97308 C 469.71285,495.73058 467.2466,496.51433 467.24535,496.27933 L 467.24785,495.36683 L 480.3991,495.37058 L 480.3991,496.23558 C 480.3991,496.23558 476.97785,496.38683 478.06535,499.74808 L 485.69785,519.80558"/>
      <path id="path2506" style="fill: rgb(35, 31, 32); fill-opacity: 1; fill-rule: nonzero; stroke: none;" d="M 616.1766,528.88183 L 490.78285,528.88183 L 490.7841,527.11683 L 616.17785,527.11308 L 616.1766,528.88183"/>
    </g>
  </g>
</svg>