<?xml version="1.0" encoding="UTF-8" standalone="no"?>
<!-- Created with Inkscape (http://www.inkscape.org/) -->

<svg
   xmlns:dc="http://purl.org/dc/elements/1.1/"
   xmlns:cc="http://creativecommons.org/ns#"
   xmlns:rdf="http://www.w3.org/1999/02/22-rdf-syntax-ns#"
   xmlns:svg="http://www.w3.org/2000/svg"
   xmlns="http://www.w3.org/2000/svg"
   xmlns:sodipodi="http://sodipodi.sourceforge.net/DTD/sodipodi-0.dtd"
   xmlns:inkscape="http://www.inkscape.org/namespaces/inkscape"
   id="svg2"
   version="1.1"
   inkscape:version="0.91 r13725"
   xml:space="preserve"
   width="189.89"
   height="56.2425"
   viewBox="0 0 189.89 56.2425"
   sodipodi:docname="Handspring.svg"><metadata
     id="metadata8"><rdf:RDF><cc:Work
         rdf:about=""><dc:format>image/svg+xml</dc:format><dc:type
           rdf:resource="http://purl.org/dc/dcmitype/StillImage" /><dc:title></dc:title></cc:Work></rdf:RDF></metadata><defs
     id="defs6" /><sodipodi:namedview
     pagecolor="#ffffff"
     bordercolor="#666666"
     borderopacity="1"
     objecttolerance="10"
     gridtolerance="10"
     guidetolerance="10"
     inkscape:pageopacity="0"
     inkscape:pageshadow="2"
     inkscape:window-width="1366"
     inkscape:window-height="705"
     id="namedview4"
     showgrid="false"
     inkscape:zoom="6.7618095"
     inkscape:cx="95.68239"
     inkscape:cy="17.076591"
     inkscape:window-x="-8"
     inkscape:window-y="-8"
     inkscape:window-maximized="1"
     inkscape:current-layer="g10" /><g
     id="g10"
     inkscape:groupmode="layer"
     inkscape:label="Handspring"
     transform="matrix(1.25,0,0,-1.25,-201.0275,448.745)"><g
       id="g12"
       transform="matrix(1.0134384,0,0,1.0503822,-3.3637617,-17.071864)"><path
         d="m 172.977,329.032 c 0.378,1.261 1.699,2.015 2.961,1.703 1.32,-0.379 2.078,-1.703 1.761,-2.961 -0.375,-1.324 -1.699,-2.078 -3.023,-1.766 -1.258,0.379 -2.016,1.703 -1.699,3.024 z"
         style="fill:#fcbf00;fill-opacity:1;fill-rule:evenodd;stroke:none"
         id="path16"
         inkscape:connector-curvature="0" /><path
         d="m 162.773,351.582 c 0.25,-0.062 0.567,-0.125 0.817,-0.25 12.601,-3.34 19.781,-17.132 16.129,-30.742 -0.067,-0.375 -0.192,-0.754 -0.317,-1.133 l 1.953,0 c 0.188,0.567 0.379,1.2 0.567,1.766 4.285,16.062 -4.219,32.25 -19.024,36.219 -0.187,0.062 -0.441,0.125 -0.628,0.191 l 0.503,-6.051 z"
         style="fill:#00427f;fill-opacity:1;fill-rule:evenodd;stroke:none"
         id="path18"
         inkscape:connector-curvature="0" /><path
         d="m 195.844,348.625 c -13.168,0.879 -25.766,-8.441 -29.61,-22.679 -0.566,-2.141 -0.879,-4.344 -1.007,-6.489 l 1.953,0 c 0.125,1.45 0.441,2.899 0.82,4.41 3.211,12.032 13.859,19.907 24.945,19.278 l 2.899,5.48 z"
         style="fill:#00885b;fill-opacity:1;fill-rule:evenodd;stroke:none"
         id="path20"
         inkscape:connector-curvature="0" /><path
         d="m 276.723,347.301 c 0,-0.883 0.757,-1.637 1.64,-1.637 0.942,0 1.637,0.754 1.637,1.637 0,0.945 -0.695,1.637 -1.637,1.637 -0.883,0 -1.64,-0.692 -1.64,-1.637 z"
         style="fill:#fcbf00;fill-opacity:1;fill-rule:evenodd;stroke:none"
         id="path22"
         inkscape:connector-curvature="0" /><path
         d="m 246.93,325.129 c 1.133,-0.883 2.078,-1.324 3.211,-1.324 2.207,0 3.843,1.766 3.843,4.156 0,3.906 -4.222,6.805 -4.222,9.137 0,0.691 0.441,1.195 1.136,1.195 0.754,0 1.446,-0.316 2.457,-1.133 l 0,2.707 c -0.945,0.692 -1.828,1.008 -2.71,1.008 -2.016,0 -3.528,-1.636 -3.528,-3.777 0,-3.656 4.094,-6.742 4.094,-9.199 0,-0.754 -0.629,-1.383 -1.449,-1.383 -0.879,0 -1.637,0.504 -2.832,1.762 l 0,-3.149 z"
         style="fill:#000000;fill-opacity:1;fill-rule:evenodd;stroke:none"
         id="path24"
         inkscape:connector-curvature="0" /><path
         d="m 256.254,315.551 2.832,0 0,9.703 0.062,0 c 0.758,-1.008 1.512,-1.449 2.457,-1.449 2.774,0 4.665,3.465 4.665,8.316 0,4.848 -2.016,8.567 -4.665,8.567 -0.945,0 -1.828,-0.504 -2.457,-1.449 l -0.062,0 0,1.195 -2.832,0 0,-24.883 z m 2.832,21.039 c 0.316,0.758 0.945,1.387 1.703,1.387 1.699,0 2.52,-1.953 2.52,-5.86 0,-4.535 -1.262,-5.605 -2.207,-5.605 -0.754,0 -1.321,0.441 -2.016,1.449 l 0,8.629 z"
         style="fill:#000000;fill-opacity:1;fill-rule:evenodd;stroke:none"
         id="path26"
         inkscape:connector-curvature="0" /><path
         d="m 268.223,324.246 2.832,0 0,6.426 c 0,1.887 0.883,6.992 3.086,6.992 0.441,0 0.82,-0.066 1.261,-0.379 l 0.188,2.899 c -0.442,0.375 -0.883,0.504 -1.449,0.504 -1.321,0 -1.825,-0.758 -2.961,-4.664 l -0.125,0 0,4.41 -2.836,0 0,-16.188 0.004,0 z"
         style="fill:#000000;fill-opacity:1;fill-rule:evenodd;stroke:none"
         id="path28"
         inkscape:connector-curvature="0" /><path
         d="m 276.977,340.434 2.836,0 0,-16.188 -2.836,0 0,16.188 z"
         style="fill:#000000;fill-opacity:1;fill-rule:evenodd;stroke:none"
         id="path30"
         inkscape:connector-curvature="0" /><path
         d="m 283.023,324.246 2.836,0 0,11.969 c 0.629,1.32 1.321,1.953 2.204,1.953 1.199,0 1.511,-0.945 1.511,-2.332 l 0,-11.59 2.899,0 0,11.653 c 0,3.215 -1.575,4.789 -3.59,4.789 -1.262,0 -2.078,-0.571 -2.961,-2.016 l -0.063,0 0,1.762 -2.836,0 0,-16.188 z"
         style="fill:#000000;fill-opacity:1;fill-rule:evenodd;stroke:none"
         id="path32"
         inkscape:connector-curvature="0" /><path
         d="m 305.133,337.977 0,2.457 -5.543,0 c -3.149,0 -4.789,-2.645 -4.789,-6.109 0,-2.583 0.82,-4.411 2.523,-5.543 -1.515,-0.629 -2.269,-1.512 -2.269,-2.582 0,-1.071 0.566,-1.829 1.824,-2.395 -1.762,-0.758 -2.77,-2.203 -2.77,-3.969 0,-2.582 2.266,-4.472 5.356,-4.472 3.336,0 5.605,2.015 5.605,4.976 0,1.195 -0.379,2.52 -1.132,3.34 -2.458,2.391 -6.047,1.133 -6.047,3.211 0,1.766 2.328,0.441 4.281,2.394 1.07,1.071 1.699,2.457 1.699,4.723 0,1.637 -0.312,2.899 -0.879,3.969 l 2.141,0 z m -7.684,-3.652 c 0,2.394 0.754,3.968 1.953,3.968 1.133,0 1.891,-1.636 1.891,-4.156 0,-2.395 -0.758,-3.906 -1.891,-3.906 -1.261,0 -1.953,1.574 -1.953,4.094 z m -0.758,-14.11 c 0,1.449 1.075,2.52 2.711,2.52 1.7,0 3.086,-1.133 3.086,-2.52 0,-1.387 -1.261,-2.457 -2.961,-2.457 -1.699,0 -2.836,0.945 -2.836,2.457 z"
         style="fill:#000000;fill-opacity:1;fill-rule:evenodd;stroke:none"
         id="path34"
         inkscape:connector-curvature="0" /><path
         d="m 198.426,324.246 2.832,0 0,12.157 c 0.633,1.261 1.387,1.89 2.269,1.89 1.071,0 1.512,-0.758 1.512,-2.332 l 0,-11.715 2.836,0 0,12.032 c 0,3.402 -1.953,4.597 -3.527,4.597 -1.325,0 -2.145,-0.566 -3.024,-2.078 l -0.066,0 0,9.828 -2.832,0 0,-24.379 z"
         style="fill:#000000;fill-opacity:1;fill-rule:evenodd;stroke:none"
         id="path36"
         inkscape:connector-curvature="0" /><path
         d="m 220.852,327.27 c -0.571,-0.504 -0.946,-0.82 -1.133,-0.82 -0.317,0 -0.442,0.253 -0.442,0.945 l 0,9.133 c 0,2.961 -2.269,4.347 -4.285,4.347 -1.574,0 -2.644,-0.504 -4.347,-2.078 l 0,-3.277 c 1.703,1.89 2.898,2.648 4.097,2.648 1.133,0 1.699,-0.695 1.699,-2.144 l 0,-1.512 c -4.472,-2.645 -6.171,-3.902 -6.171,-6.613 0,-2.141 1.449,-4.094 3.148,-4.094 1.07,0 2.078,0.691 3.086,2.141 0.379,-1.325 1.07,-2.016 2.078,-2.016 0.633,0 1.262,0.316 2.27,1.195 l 0,2.145 z m -4.411,1.133 c -0.503,-1.196 -1.261,-1.891 -2.015,-1.891 -0.758,0 -1.387,0.758 -1.387,1.828 0,1.449 1.07,2.774 3.402,4.219 l 0,-4.156 z"
         style="fill:#000000;fill-opacity:1;fill-rule:evenodd;stroke:none"
         id="path38"
         inkscape:connector-curvature="0" /><path
         d="m 222.676,324.246 2.836,0 0,11.969 c 0.629,1.32 1.324,1.953 2.203,1.953 1.199,0 1.512,-0.945 1.512,-2.332 l 0,-11.59 2.898,0 0,11.653 c 0,3.215 -1.574,4.789 -3.59,4.789 -1.262,0 -2.078,-0.571 -2.961,-2.016 l -0.062,0 0,1.762 -2.836,0 0,-16.188 z"
         style="fill:#000000;fill-opacity:1;fill-rule:evenodd;stroke:none"
         id="path40"
         inkscape:connector-curvature="0" /><path
         d="m 244.66,324.246 0,24.379 -2.894,0 0,-9.074 c -0.758,0.883 -1.45,1.324 -2.524,1.324 -2.769,0 -4.66,-3.527 -4.66,-8.566 0,-5.418 2.207,-8.317 4.535,-8.317 1.008,0 1.891,0.504 2.582,1.512 l 0.063,0 0,-1.258 2.898,0 z m -2.894,4.157 c -0.504,-1.071 -1.137,-1.512 -1.953,-1.512 -1.512,0 -2.333,1.828 -2.333,5.355 0,3.715 0.946,5.922 2.458,5.922 0.82,0 1.511,-0.566 1.828,-1.578 l 0,-8.187 z"
         style="fill:#000000;fill-opacity:1;fill-rule:evenodd;stroke:none"
         id="path42"
         inkscape:connector-curvature="0" /><path
         d="m 309.039,340.434 0,-0.313 -0.945,0 0,-2.457 -0.375,0 0,2.457 -0.883,0 0,0.313 2.203,0 z"
         style="fill:#000000;fill-opacity:1;fill-rule:evenodd;stroke:none"
         id="path44"
         inkscape:connector-curvature="0" /><path
         d="m 309.355,340.434 0.504,0 0.817,-2.328 0.758,2.328 0.504,0 0,-2.77 -0.317,0 0,2.328 -0.754,-2.328 -0.379,0 -0.82,2.328 0,-0.062 c 0,-0.063 0,-0.188 0.062,-0.313 l 0,-1.953 -0.375,0 0,2.77 z"
         style="fill:#000000;fill-opacity:1;fill-rule:evenodd;stroke:none"
         id="path46"
         inkscape:connector-curvature="0" /></g></g></svg>