<?xml version="1.0" encoding="UTF-8"?>
<!-- Created with Inkscape (http://www.inkscape.org/) -->
<svg width="3820.1pt" height="966.65pt" version="1.1" viewBox="0 0 3820.1 966.65" xmlns="http://www.w3.org/2000/svg">
 <defs>
  <clipPath id="clipPath78">
   <path d="m368.19 163.48-3.444-3.402-7.809 11.217 11.253-7.815"/>
  </clipPath>
 </defs>
 <g transform="translate(139.73 775.88)">
  <path d="m-74.377-759.75h835.9c27.194 0 49.226 22.032 49.226 49.226v835.94c0 27.161-22.032 49.226-49.226 49.226h-835.9c-27.194 0-49.226-22.065-49.226-49.226v-835.94c0-27.194 22.032-49.226 49.226-49.226z" fill="#fff" stroke="#000" stroke-miterlimit="3.864" stroke-width="32.258"/>
  <path d="m-24.248-295.17c0-200.68 162.68-363.39 363.39-363.39 200.68 0 363.39 162.71 363.39 363.39 0 200.71-162.71 363.39-363.39 363.39-200.71 0-363.39-162.68-363.39-363.39z" fill="none" stroke="#000" stroke-miterlimit="3.864" stroke-width="10.774"/>
  <path d="m247.2-584.78c-17.613-4.9677-24.645-8.4839-46.774-3.9677-27.419 5.5806-53.774 20.516-97.903 61.935-45.419 49.613-58 69.452-62.645 95.387-3.2258 17.903 0 37.226 5.8065 48.484 18.806-54.355 37.161-84.677 78.065-125.16 40.29-39.871 70.097-57.581 123.45-76.677"/>
  <path d="m273.01-532.1c-17.839-6.2581-28.452-9.7097-48.097-5.5806-24.355 5.129-42.161 16.387-82.774 53.806-40.355 45.548-48.645 62.097-52.774 85.903-2.871 16.419 5.2258 38.387 10.387 48.742 12.484-51.226 29.226-80.29 66.161-117.9 34.226-34.871 60.387-50.645 107.1-64.968"/>
  <path d="m303.59-476.17c-13.258-6.4839-19.903-12.71-36.677-9.1613-20.774 4.3548-33.548 5.0645-76.774 41.258-34.419 38.806-41.161 57.613-44.677 77.903-2.4516 14 5.9032 33.581 10.29 42.387 6.9677-43.613 30.613-80.903 51.581-100.84 22.903-21.774 54.677-42.258 96.258-51.548"/>
  <path d="m124.66-80.458c3.7097 17.903 3.6129 25.806 17.677 43.484 17.419 21.871 42.71 38.581 99.677 59.097 64.806 17.968 88.194 20.161 113.42 12.516 17.419-5.2581 33.161-16.871 40.548-27.194-56.903 8.3226-92.226 5.0323-146.94-12.71-53.935-17.484-83.806-35.645-124.39-75.194"/>
  <path d="m159.78-127.46c2.0968 18.774 4.2581 29.742 16.871 45.387 15.613 19.355 33.742 30.097 85.516 49.323 58.903 15.29 77.387 15.129 100.48 8.0323 15.935-4.9355 31.839-22.097 38.71-31.419-59.903 6.6129-84.806 10.516-135.1-5.4194-46.548-14.742-72.935-30.419-106.48-65.903"/>
  <path d="m195.59-180.26c-0.19355 14.742-2.2903 23.484 8.4839 36.839 13.29 16.484 19.742 27.548 71.581 49.677 50.226 13.032 65.097 9.6452 84.774 3.5806 13.613-4.1935 28.968-21.71 34.806-29.645-40.097 15.29-91 5.9355-109.32 1.1935-17-4.3871-65.581-27-90.323-61.645"/>
  <path d="m155.88-295.14c0-101.19 82.032-183.19 183.23-183.19 101.16 0 183.19 82 183.19 183.19s-82.032 183.19-183.19 183.19c-101.19 0-183.23-82-183.23-183.19zm-60.484 0.0313c0-134.61 109.13-243.77 243.77-243.77 134.61 0 243.77 109.16 243.77 243.77 0 134.65-109.16 243.77-243.77 243.77-134.65 0-243.77-109.13-243.77-243.77zm-61.258 0.0316c0-168.48 136.58-305.06 305.06-305.06s305.06 136.58 305.06 305.06-136.58 305.06-305.06 305.06-305.06-136.58-305.06-305.06z" fill="none" stroke="#000" stroke-miterlimit="3.864" stroke-width="32.258"/>
  <path d="m635.56-217.36c13.258-12.613 20.258-16.387 28.161-37.548 9.8064-26.226 11.097-56.484-0.67742-115.87-18-64.806-28.129-85.968-47.677-103.68-13.484-12.226-31.548-19.71-44.194-20.742 36.032 44.806 52.097 76.387 64.774 132.52 12.484 55.29 12.226 90.065-0.3871 145.32"/>
  <path d="m575.43-226.62c14.645-11.968 23.323-19 30.226-37.871 8.5484-23.355 8.4194-44.387-1.7742-98.677-17.226-58.355-26.871-74.161-44.871-90.29-12.419-11.129-37.903-12.581-49.419-13.677 37.774 35.871 54.323 64.871 67.484 115.26 12.355 47.258 11.806 78.29-1.6452 125.26"/>
  <path d="m513.2-227.01c12.613-7.6452 21.323-10.161 27.194-26.258 7.2903-19.903 13.484-31.129 5.7097-86.968-14.677-49.742-27.065-65.419-42.387-79.161-10.613-9.5161-35.645-11.323-45.452-12.258 31.968 29.194 51.516 66.774 57.29 95.097 6.3226 30.968 10.452 68.774-2.3548 109.55"/>
  <g transform="matrix(32.258 0 0 -32.258 -11117 5301.4)">
   <g clip-path="url(#clipPath78)">
    <path d="m361.72 161.62 5.037 5.037 0.827-0.827-5.037-5.037-0.827 0.827"/>
    <path d="m363.14 160.07 5.037 5.037 0.827-0.827-5.037-5.037-0.827 0.827"/>
    <path d="m365.93 167.38-5.037-5.037-0.727 0.728 5.036 5.036 0.728-0.727"/>
    <path d="m364.7 168.59-5.037-5.037-0.727 0.727 5.036 5.037 0.728-0.727"/>
    <path d="m363.46 170.01-5.037-5.036-0.727 0.727 5.036 5.037 0.728-0.728"/>
    <path d="m357.13 170.01 1.504 1.504 1.702-1.703-1.503-1.503-1.703 1.702"/>
   </g>
  </g>
  <path d="m211.95-295.17c0-70.226 56.935-127.19 127.19-127.19 70.226 0 127.16 56.968 127.16 127.19 0 70.258-56.935 127.19-127.16 127.19-70.258 0-127.19-56.935-127.19-127.19z" stroke="#000" stroke-miterlimit="3.864" stroke-width="10.774"/>
  <path d="m3252.4-304.75c-72.936 0-165.9 26.065-165.9 115.71 0 135.81 214.74 91 214.74 147.19 0 24.742-22.742 31.419-44.161 31.419-13.387 0-25.419-4-34.129-10.677-9.3545-7.3548-14.71-18.065-14.71-32.129h-132.45c7.3549 94.323 95.645 119.06 175.94 119.06 128.45 0 188.65-49.484 188.65-122.42 0-131.1-221.42-98.323-221.42-147.16 0-10.871 3.1936-10.871 3.1936-10.871h252.19v146.68c0 80.548 6 127.97 92.71 127.97 0 0 101.19 0.48387 112 0v-103.87h-22.097c-38.774 0-43.484-11.387-43.484-43.484v-127.13h66.903v-88.613h-66.903v-100.71h-137.13l-0.064 100.19h-254.13c0.024 0 106.52-1.1613 30.258-1.1613"/>
  <path d="m1401.3-286.01c-11.355-84.323-72.226-152.55-206.03-152.55-120.42 0-208.71 51.516-208.71 153.87 0 183.97 276.97 133.81 276.97 206.71 0 22.742-26.097 35.452-65.581 35.452-15.387 0-32.097-4.0323-44.806-12.032-13.387-8.0323-22.742-20.742-26.097-38.129h-151.19c3.3548 86.968 86.29 161.19 213.39 161.19 132.48 0 225.45-54.161 225.45-165.87 0-175.29-276.94-130.45-276.94-202.71 0-17.387 15.387-27.419 50.161-27.419 15.387 0 29.452 2.6774 40.806 8.6774 11.387 6.0322 20.065 16.065 22.742 32.806h149.84"/>
  <path d="m1513.6-294.72h-139.81l115.06 319.1c14.032 38.774 4 51.484-39.484 51.484-9.3548 0-18.742-0.64516-28.774-0.64516v97c10.71 0 36.129 2.6774 61.548 2.6774 123.77 0 138.48-34.129 175.26-142.48l112.39-327.13h-133.77l-60.871 216.06-61.548-216.06"/>
  <path d="m1979.7-108.07 54.194 54.194c-7.3548 2.6774-15.387 4.6774-24.097 4.6774-75.581 0-94.29-76.935-94.29-138.48 0-60.871 21.387-133.13 92.968-133.13 59.548 0 96.355 50.839 96.355 133.13 0 26.742-2.0323 44.806-6.7097 61.548l-51.516-52.194zm281.65 147.84-54.839-55.516c38.774-48.161 56.194-113.06 56.194-171.94 0-139.81-95-250.87-252.9-250.87-149.84 0-252.19 98.355-252.19 249.52 0 161.9 99.032 257.55 252.19 257.55 56.226 0 95.677-14.032 119.77-24.742l65.548 66.226 66.226-70.226"/>
  <path d="m2668.5-294.72h-139.16v168.58c0 54.194-12.71 84.29-52.839 84.29-33.452 0-50.161-15.387-50.161-63.548v-189.32h-139.16v213.39c0 100.35 49.516 147.16 125.77 147.16 57.516 0 91.645-13.355 126.42-61.516v51.484h129.13v-350.52"/>
  <path d="m2814.3-158.91c0-37.484 23.419-60.871 64.903-60.871 32.774 0 61.516 28.742 61.516 60.871zm265.58 70.903c2.0007-127.1-76.258-216.74-206.06-216.74-112.39 0-198.68 73.581-198.68 188.65 0 117.74 86.968 181.94 199.35 181.94 81.613 0 169.94-28.742 194-115.71h-133.1c-10.032 20.742-30.129 30.774-52.194 30.774-36.806 0-68.903-27.452-68.903-68.903h265.58"/>
 </g>
</svg>
