<?xml version="1.0" encoding="UTF-8"?>
<svg id="svg6963" width="895.73" height="487.13" version="1.1" viewBox="0 0 895.73 487.13" xmlns="http://www.w3.org/2000/svg" xmlns:cc="http://creativecommons.org/ns#" xmlns:dc="http://purl.org/dc/elements/1.1/" xmlns:rdf="http://www.w3.org/1999/02/22-rdf-syntax-ns#">
 <metadata id="metadata6969">
  <rdf:RDF>
   <cc:Work rdf:about="">
    <dc:format>image/svg+xml</dc:format>
    <dc:type rdf:resource="http://purl.org/dc/dcmitype/StillImage"/>
    <dc:title/>
   </cc:Work>
  </rdf:RDF>
 </metadata>
 <g id="g8379">
  <g id="g7676" transform="translate(-32.635 -146)" fill="#808080">
   <path id="Path" transform="scale(1)" d="m423.72 146-75.715 120 72 114 24-36-48-76.002 54.463-85.186 64.537 102.19 24-36-65-103z"/>
   <path id="Path-3" d="m537.28 385 75.715-120-72-114-24 36 48 76.002-54.463 85.185-64.537-102.19-24 36 65 103z"/>
  </g>
  <g id="text7680-6" transform="scale(.95981 1.0419)" fill="#000080" stroke-linecap="round" stroke-linejoin="round" stroke-width="4.4801" style="font-feature-settings:normal;font-variant-caps:normal;font-variant-ligatures:normal;font-variant-numeric:normal;paint-order:normal" aria-label="MOSTEK">
   <path id="path8381" d="m158.7 313.44q1.6935-4.3546 2.6612-6.7739 1.2096-2.6612 1.4515-4.3546 0.48385-1.6935 0.48385-3.145 0.24193-1.6935 0.24193-4.1127h44.272q-7.9835 3.8708-7.9835 15.967 0 4.5966 0.72577 9.1931l15.725 112.74q0.72577 6.5319 1.4515 11.128 0.9677 4.3546 2.4192 7.7416 1.4515 3.145 3.6289 5.8062 2.4192 2.6612 6.0481 5.5642h-49.352q5.8062-2.6612 8.2254-7.0158 2.4192-4.5966 2.4192-12.338 0-2.4192-0.24192-5.0804-0.24193-2.6612-0.9677-9.1931l-13.548-109.35-57.336 146.36q-4.5966-3.8708-7.7416-6.7739-2.9031-2.9031-5.3223-5.8062-2.1773-3.145-4.1127-6.7739-1.6935-3.6289-3.8708-8.7093l-50.078-118.3-14.999 112.74q-0.48385 4.5966-0.9677 8.2254-0.24192 3.3869-0.24192 5.0804 0 5.8062 2.1773 9.435 2.1773 3.3869 7.9835 7.4996h-41.853q6.29-6.0481 9.1931-13.306 2.9031-7.4996 4.5966-20.322l14.757-107.41q0.48385-3.8708 0.72577-6.0481 0.48385-2.1773 0.48385-3.3869 0.24192-1.2096 0.24192-1.9354t0-1.6935q0-4.3546-1.9354-7.2577-1.9354-3.145-7.0158-6.7739h44.756q0 2.1773 0.24192 3.6288 0.48385 1.2096 2.1773 5.3223l49.111 115.4z"/>
   <path id="path8383" d="m327.4 290.7q18.144 0 35.563 6.7739 17.419 6.5319 29.515 18.386 12.096 11.612 18.87 28.305 7.0158 16.451 7.0158 33.869 0 18.628-7.4996 35.079-7.2577 16.209-20.08 28.305-12.58 12.096-29.757 19.112-17.177 6.7739-37.014 6.7739-19.596 0-36.53-6.7739-16.935-6.7739-29.515-18.386-12.58-11.854-19.838-27.821t-7.2577-34.353q0-19.112 7.2577-35.321 7.4996-16.451 20.322-28.305 13.064-12.096 30.724-18.87 17.66-6.7739 38.224-6.7739zm-3.6289 18.386q-13.064 0-25.644 5.0804-12.338 5.0804-20.805 13.79-8.2254 8.4673-13.064 21.289-4.5966 12.822-4.5966 26.612 0 14.757 5.3223 29.031 5.3223 14.274 15.241 25.16 17.419 19.112 44.756 19.112 14.274 0 26.128-4.8385 11.854-4.8385 20.322-13.79t13.064-21.047q4.8385-12.338 4.8385-27.337 0-14.515-4.5966-27.579-4.3546-13.064-12.822-23.225-18.628-22.257-48.143-22.257z"/>
   <path id="path8385" d="m529.24 325.54q-8.2254-7.9835-18.628-12.338-10.403-4.3546-21.773-4.3546-15.241 0-24.434 6.5319t-9.1931 17.419q0 4.8385 1.4515 8.7093 1.6935 3.6288 5.8062 7.2577 4.3546 3.6288 11.612 7.7416 7.4996 3.8708 18.87 9.1931 7.9835 3.6288 13.548 6.5319 5.8062 2.6612 10.161 5.0804t7.4996 4.5966q3.145 1.9354 6.0481 4.3546 13.79 10.887 13.79 27.821 0 9.435-4.1127 18.386-4.1127 8.9512-11.612 16.209-19.596 18.87-53.465 18.87-12.338 0-22.741-1.9354-10.161-1.6935-22.257-6.0481l-7.7416-31.692q13.064 10.161 26.612 15.241 13.79 5.0804 29.515 5.0804 8.2254 0 15.241-1.9354 7.0158-2.1773 12.096-5.5642 5.0804-3.6289 7.9835-8.2254 2.9031-4.8385 2.9031-10.403 0-5.0804-2.4192-9.9189-2.1773-4.8385-6.0481-8.2254-2.1773-1.9354-4.8385-3.6289-2.4192-1.6935-6.0481-3.6288-3.6289-1.9354-8.9512-4.3546-5.0804-2.6612-12.822-6.29-7.4996-3.3869-13.064-6.0481-5.3223-2.6612-9.435-4.8385-4.1127-2.4192-7.2577-4.5966-2.9031-2.1773-5.5642-4.8385-6.29-5.5642-9.9189-13.306-3.3869-7.7416-3.3869-16.209 0-10.403 4.3546-18.628 4.5966-8.4673 12.822-14.274 8.4673-6.0481 20.08-9.1931 11.854-3.145 26.37-3.145 10.161 0 19.354 1.4516 9.1931 1.2096 19.596 4.1127z"/>
   <path id="path8387" d="m660.44 323.85q-2.9031-5.5642-7.9835-7.4996-4.8385-2.1773-15.967-2.1773-2.1773 0-3.6289 0-1.2096 0-2.9031 0.24193-1.4516 0-4.1127 0.24192-2.6612 0-7.2577 0.24192h-4.1127v118.3q0 6.29 0.48385 10.887 0.72577 4.3546 2.1773 7.7416t4.1127 6.0481 6.7739 5.3223h-50.562q3.3869-1.6935 5.5642-4.1127 2.1773-2.4192 3.3869-6.0481 1.4516-3.6289 1.9354-8.9512 0.48385-5.5642 0.48385-13.548v-115.64q-3.8708-0.48384-9.9189-0.48384-6.0481-0.24193-10.645-0.24193-6.0481 0-10.645 0.48385-4.3546 0.24192-7.9835 1.4515-3.6289 0.9677-7.2577 2.9031-3.3869 1.9354-7.2577 4.8385l9.435-30.482q2.1773 0.72577 5.8062 1.2096 3.6288 0.48385 7.2577 0.48385h96.044q4.1127-0.24193 6.5319-0.24193 2.4192-0.24192 3.3869-0.24192 1.2096-0.24192 2.1773-0.24192 0.9677-0.24193 2.9031-0.9677z"/>
   <path id="path8389" d="m707.69 441.66q8.9512 1.4515 15.725 2.1773 7.0158 0.48384 15.725 0.48384 16.693 0 28.063-3.3869t21.773-11.128l-11.854 33.385h-106.45q3.6288-1.9354 5.8062-4.1127 2.1773-2.4192 3.3869-6.0481 1.2096-3.6289 1.6935-8.9512 0.48384-5.5642 0.48384-13.79v-102.58q0-8.2254-0.48384-13.548-0.48385-5.5642-1.9354-9.1931-1.2096-3.6289-3.3869-5.8062-2.1773-2.1773-5.5642-4.1127h84.915q3.6289 0 5.3223-0.24193 1.6935-0.24192 4.3546-1.2096v29.757q-3.145-2.9031-6.0481-4.8385-2.9031-2.1773-6.5319-3.145-3.3869-1.2096-7.9835-1.6935-4.5966-0.48385-10.645-0.48385-9.1931 0-14.999 0.48385-5.8062 0.24192-11.37 1.2096v47.659h34.111q2.9031 0 4.5966-0.24192 1.6935-0.24193 4.1127-1.4516v27.095q-3.145-4.1127-7.4996-5.5642-4.1127-1.4516-12.58-1.4516h-22.741z"/>
   <path id="path8391" d="m819.29 430.53q0 8.2254 0.48385 13.548 0.48384 5.3223 1.6935 8.9512 1.2096 3.6288 3.3869 6.0481 2.1773 2.1773 5.8062 4.1127h-48.385q3.6288-1.9354 5.8062-4.1127 2.1773-2.4192 3.3869-6.0481 1.2096-3.6289 1.6935-8.9512 0.48385-5.3223 0.48385-13.548v-102.82q0-8.2254-0.48385-13.548-0.48384-5.3223-1.6935-8.9512-1.2096-3.6288-3.3869-5.8062-2.1773-2.4192-5.8062-4.3546h48.385q-3.6288 1.9354-5.8062 4.3546-2.1773 2.1773-3.3869 5.8062-1.2096 3.6289-1.6935 8.9512-0.48385 5.3223-0.48385 13.548zm39.675-101.85q5.8062-7.4996 9.1931-13.548 3.3869-6.29 3.3869-9.1931 0-6.0481-7.7416-10.887h45.966l-58.787 75.48q14.032 18.87 22.257 30.24 8.4673 11.128 13.548 18.144 5.3223 6.7739 8.7093 10.887 3.3869 4.1127 7.2577 8.4673 2.6612 2.9031 5.5642 5.8062 2.9031 2.6612 6.5319 5.5642 3.6289 2.9031 7.9835 6.29 4.5966 3.3869 10.403 7.2577-4.8385 0.48385-11.612 0.72578-6.7739 0.48384-12.822 0.48384-7.4996 0-12.822-1.2096-5.0804-1.4515-10.887-6.5319-5.5642-5.0804-13.306-14.999-7.7416-10.161-20.322-27.579-5.3223-7.7416-10.887-15.241-5.3223-7.7416-10.887-15.483-1.6935-1.9354-3.145-3.8708t-2.9031-3.8708z"/>
  </g>
 </g>
</svg>
