<?xml version="1.0" encoding="UTF-8"?>
<!-- Created with Inkscape (http://www.inkscape.org/) -->
<svg id="svg8" width="106.79pt" height="25.332pt" version="1.1" viewBox="0 0 37.673 8.9365" xmlns="http://www.w3.org/2000/svg" xmlns:cc="http://creativecommons.org/ns#" xmlns:dc="http://purl.org/dc/elements/1.1/" xmlns:rdf="http://www.w3.org/1999/02/22-rdf-syntax-ns#">
 <metadata id="metadata5">
  <rdf:RDF>
   <cc:Work rdf:about="">
    <dc:format>image/svg+xml</dc:format>
    <dc:type rdf:resource="http://purl.org/dc/dcmitype/StillImage"/>
    <dc:title/>
   </cc:Work>
  </rdf:RDF>
 </metadata>
 <g id="layer1" transform="translate(-43.998 -79.741)" fill="#53369a">
  <path id="path320" d="m67.648 84.105h-1.0993l-0.92146 3.6601h1.0996zm0.28187 3.8795c-0.09278 0.36936-0.39934 0.69286-1.0354 0.69286h-1.9604c-0.6357 0-0.71332-0.3235-0.62018-0.69286 0.36618-1.4549 0.66534-2.6441 1.0315-4.0989 0.09313-0.36936 0.33338-0.6925 0.96908-0.6925h1.9604c0.63606 0 0.77964 0.32314 0.68686 0.6925-0.36618 1.4549-0.66569 2.6441-1.0319 4.0989"/>
  <path id="path322" d="m72.788 85.086h-1.2718l0.22084-0.877-0.877 3.44e-4 -1.1208 4.4676h-1.2584l1.3804-5.4843h1.2584l-0.08573 0.26776c0.45896-0.14217 1.0089-0.32773 1.3811-0.32773 0.55316 0 0.78634 0.2032 0.7366 0.43956-0.04939 0.23671-0.36372 1.5138-0.36372 1.5138"/>
  <path id="path324" d="m79.61 85.802 0.8128 2.8751h-1.3247l-0.47343-1.6972-1.2749 1.6972h-1.245l2.1999-2.7944-0.75353-2.6899h1.3247l0.41698 1.5007 1.1328-1.5007h1.245z"/>
  <path id="path326" d="m59.775 83.461c0.45896-0.14217 0.9391-0.32773 1.3113-0.32773 0.55316 0 0.75741 0.18979 0.7366 0.43956 0.74577-0.2921 1.5159-0.44909 2.1174-0.44909 0.7426 0 0.80045 0.34643 0.71014 0.7045-0.41522 1.651-1.2203 4.8493-1.2203 4.8493h-1.2584l1.1363-4.5145h-1.2319l-1.1363 4.5145h-1.2319l1.1363-4.5145h-1.2319l-1.1363 4.5145h-1.2584l1.3804-5.4843h1.2584z"/>
  <path id="path328" d="m53.836 88.677c-0.6357 0-0.71367-0.3235-0.62054-0.69286 0.36618-1.4549 0.66534-2.6441 1.0315-4.0989 0.09313-0.36936 0.33338-0.6925 0.96943-0.6925h1.9071c0.63606 0 0.71367 0.32314 0.62054 0.6925l-0.39829 1.5819c-0.09596 0.381-0.3362 0.7045-0.96908 0.69286h-1.4436l-0.40393 1.6048h0.98002l0.22049-0.73836 1.2792-0.23072-0.29633 1.1885c-0.09596 0.381-0.3362 0.7045-0.96908 0.69286zm1.3148-3.3831h0.98037l0.29916-1.1892h-0.98002z"/>
  <path id="path330" d="m73.153 88.677c-0.6357 0-0.71332-0.3235-0.62018-0.69286 0.36618-1.4549 0.66534-2.6441 1.0315-4.0989 0.09313-0.36936 0.33338-0.6925 0.96908-0.6925h1.9075c0.6357 0 0.71332 0.32314 0.62054 0.6925l-0.39828 1.5819c-0.09596 0.381-0.3362 0.7045-0.96908 0.69286h-1.4439l-0.40393 1.6048h0.98037l0.22048-0.73836 1.2792-0.23072-0.29633 1.1885c-0.09595 0.381-0.33655 0.7045-0.96943 0.69286zm1.3152-3.3831h0.98037l0.29916-1.1892h-0.98002z"/>
  <path id="path332" d="m52.43 81.882-2.1237 2.4871-0.94756-2.4871h-1.4799l-0.98496 3.9236-0.72072 2.8713h1.76l0.87701-3.2593 0.81598 2.1583 1.9583-2.5202-0.93627 3.6213h1.7639l1.7085-6.7949z"/>
  <path id="path334" d="m55.846 80.457c-0.4258-1.0837-3.4121-0.91793-6.67 0.36971-3.2576 1.288-5.5534 3.2106-5.1276 4.2944 0.21766 0.55386 1.1045 0.77999 2.3534 0.6985l0.16933-0.67345c-1.2845 0-1.6884-0.10866-1.857-0.53622-0.34114-0.86431 1.5998-2.4384 4.3349-3.5154 2.7351-1.077 5.2289-1.2495 5.5697-0.38523 0.08361 0.21131 0.02963 0.46531-0.13829 0.74401h1.1723c0.2293-0.37183 0.3048-0.71296 0.19332-0.99624"/>
 </g>
</svg>
