<?xml version="1.0" encoding="UTF-8" standalone="no"?>
<!DOCTYPE svg PUBLIC "-//W3C//DTD SVG 1.0//EN" "http://www.w3.org/TR/2001/REC-SVG-20010904/DTD/svg10.dtd">
<!-- Created with Inkscape (http://www.inkscape.org/) by Steadfast-->
<svg
   xmlns:svg="http://www.w3.org/2000/svg"
   xmlns="http://www.w3.org/2000/svg"
   version="1.0"
   width="900"
   height="227"
   id="svg2413">
  <defs
     id="defs2415" />
  <g
     id="layer1">
    <g
       transform="matrix(5.0071099,0,0,5.0071099,56.700928,307.93702)"
       id="g2396">
      <path
         d="M 141.00821,-22.705036 C 137.69721,-18.449036 136.46821,-18.354036 134.48121,-18.354036 C 134.48121,-18.354036 -7.2104809,-18.354036 -7.2104809,-18.354036 C -8.9135809,-18.354036 -10.237791,-19.205036 -8.5346709,-21.571036 C -8.5346709,-21.571036 17.855009,-57.514036 17.855009,-57.514036 C 19.463409,-59.878236 20.692909,-59.310936 22.584509,-59.405636 C 22.584509,-59.405636 164.27621,-59.499336 164.27621,-59.499336 C 166.54721,-59.499336 167.11421,-58.364636 165.50621,-56.000336 C 165.50621,-56.000336 141.00821,-22.705036 141.00821,-22.705036 z"
         id="path10"
         style="fill:#000000;fill-rule:evenodd;stroke-width:1pt;stroke-linecap:butt;stroke-linejoin:miter;stroke-dasharray:none" />
      <g
         transform="translate(18.139077,-51.838236)"
         id="g12"
         style="fill:#ffffff;fill-rule:evenodd;stroke:none;stroke-width:1pt;stroke-linecap:butt;stroke-linejoin:miter;stroke-dasharray:none">
        <path
           d="M 4.5401,0 C 4.5401,0 0,5.8643 0,5.8643 C 0,5.8643 15.7959,5.8643 15.7959,5.8643 C 15.7959,5.8643 3.4991,21.6602 3.4991,21.6602 C 3.4991,21.6602 17.1202,21.6602 17.1202,21.6602 C 17.1202,21.6602 27.2413,8.5127 27.2413,8.5127 C 27.2413,8.5127 21.5655,8.5127 21.5655,8.5127 C 21.5655,8.5127 23.1739,5.7695 26.4844,5.7695 C 26.4844,5.7695 39.5371,5.7695 39.5371,5.7695 C 39.5371,5.7695 44.0782,0 44.0782,0 C 44.0782,0 4.5401,0 4.5401,0 z"
           id="path14" />
      </g>
      <g
         transform="translate(47.650877,-51.838236)"
         id="g16"
         style="fill:#ffffff;fill-rule:evenodd;stroke:none;stroke-width:1pt;stroke-linecap:butt;stroke-linejoin:miter;stroke-dasharray:none">
        <path
           d="M 16.7412,0 C 16.7412,0 0,21.5652 0,21.5652 C 0,21.5652 13.6201,21.5652 13.6201,21.5652 C 13.6201,21.5652 21.2822,11.918 21.2822,11.918 C 21.2822,11.918 30.2675,11.918 30.2675,11.918 C 30.2675,11.918 22.8896,21.5652 22.8896,21.5652 C 22.8896,21.5652 36.5107,21.5652 36.5107,21.5652 C 36.5107,21.5652 49.6577,4.6348 49.6577,4.6348 C 49.6577,4.6348 53.1577,0 47.3877,0 C 47.3877,0 39.6317,0 39.6317,0 C 39.6317,0 33.0107,8.3242 33.0107,8.3242 C 33.0107,8.3242 17.6875,8.3242 17.6875,8.3242 C 17.6875,8.3242 18.8222,5.6748 22.1328,5.6748 C 22.1328,5.6748 26.1054,5.6748 26.1054,5.6748 C 26.1054,5.6748 30.457,0 30.457,0 C 30.457,0 16.7412,0 16.7412,0 z"
           id="path18" />
      </g>
      <g
         transform="translate(86.620577,-51.838236)"
         id="g20"
         style="fill:#ffffff;fill-rule:evenodd;stroke:none;stroke-width:1pt;stroke-linecap:butt;stroke-linejoin:miter;stroke-dasharray:none">
        <path
           d="M 13.621,21.4712 C 13.621,21.4712 5.864,21.4712 5.864,21.4712 C 0,21.4712 3.121,17.4042 3.121,17.4042 C 3.121,17.4042 13.715,3.7832 13.715,3.7832 C 16.458,0 20.998,0 20.998,0 C 20.998,0 49.848,0 49.848,0 C 56.374,0 52.97,4.54 52.97,4.54 C 52.97,4.54 41.24,19.7682 41.24,19.7682 C 41.24,19.7682 38.308,19.7682 38.308,19.7682 C 35.092,19.7682 33.673,22.7012 33.673,22.7012 C 33.673,22.7012 48.902,22.7012 48.902,22.7012 C 48.902,22.7012 46.442,25.9172 46.442,25.9172 C 46.442,25.9172 10.121,25.9172 10.121,25.9172 C 10.121,25.9172 13.621,21.4712 13.621,21.4712 z"
           id="path22" />
      </g>
      <g
         transform="translate(103.17408,-47.203436)"
         id="g24"
         style="fill:#000000;fill-rule:evenodd;stroke:none;stroke-width:1pt;stroke-linecap:butt;stroke-linejoin:miter;stroke-dasharray:none">
        <path
           d="M 13.809,12.1074 C 13.147,12.9594 11.823,13.6204 10.783,13.6204 C 10.783,13.6204 1.229,13.6204 1.229,13.6204 C 0.284,13.6204 0,12.8644 0.662,12.0124 C 0.662,12.0124 8.797,1.5136 8.797,1.5136 C 9.459,0.5674 10.783,0 11.729,0 C 11.729,0 21.377,0 21.377,0 C 22.417,0 22.701,0.6621 21.944,1.5136 C 21.944,1.5136 13.809,12.1074 13.809,12.1074 z"
           id="path26" />
      </g>
      <g
         transform="translate(18.422277,-29.137036)"
         id="g28"
         style="fill:#fa0824;fill-rule:evenodd;stroke:none;stroke-width:1pt;stroke-linecap:butt;stroke-linejoin:miter;stroke-dasharray:none">
        <path
           d="M 76.9003,3.121 C 76.9003,3.121 0,3.121 0,3.121 C 0,3.121 2.46,0 2.46,0 C 2.46,0 79.3593,0 79.3593,0 C 79.3593,0 76.9003,3.121 76.9003,3.121 z"
           id="path30" />
      </g>
      <g
         transform="translate(141.86008,-21.664036)"
         id="g32"
         style="fill:#000000;fill-rule:evenodd;stroke:none;stroke-width:1pt;stroke-linecap:butt;stroke-linejoin:miter;stroke-dasharray:none">
        <path
           d="M 0,0 C 0,0 2.838,0 2.838,0 C 2.838,0 2.838,0.378 2.838,0.378 C 2.838,0.378 1.609,0.378 1.609,0.378 C 1.609,0.378 1.609,3.499 1.609,3.499 C 1.609,3.499 1.135,3.499 1.135,3.499 C 1.135,3.499 1.135,0.378 1.135,0.378 C 1.135,0.378 0,0.378 0,0.378 C 0,0.378 0,0 0,0 z"
           id="path34" />
      </g>
      <g
         transform="translate(145.07608,-21.664036)"
         id="g36"
         style="fill:#000000;fill-rule:evenodd;stroke:none;stroke-width:1pt;stroke-linecap:butt;stroke-linejoin:miter;stroke-dasharray:none">
        <path
           d="M 2.933,3.499 C 2.933,3.499 2.933,1.418 2.933,1.418 C 2.933,1.324 2.933,0.85 2.933,0.567 C 2.933,0.567 1.986,3.499 1.986,3.499 C 1.986,3.499 1.514,3.499 1.514,3.499 C 1.514,3.499 0.474,0.567 0.474,0.567 C 0.474,0.85 0.474,1.324 0.474,1.418 C 0.474,1.418 0.474,3.499 0.474,3.499 C 0.474,3.499 0,3.499 0,3.499 C 0,3.499 0,0 0,0 C 0,0 0.757,0 0.757,0 C 0.757,0 1.703,2.931 1.703,2.931 C 1.703,2.931 2.743,0 2.743,0 C 2.743,0 3.405,0 3.405,0 C 3.405,0 3.405,3.499 3.405,3.499 C 3.405,3.499 2.933,3.499 2.933,3.499 z"
           id="path38" />
      </g>
    </g>
  </g>
</svg>
