<?xml version="1.0" encoding="UTF-8" standalone="no"?>
<!-- Created with Inkscape (http://www.inkscape.org/) -->

<svg
   xmlns:dc="http://purl.org/dc/elements/1.1/"
   xmlns:cc="http://creativecommons.org/ns#"
   xmlns:rdf="http://www.w3.org/1999/02/22-rdf-syntax-ns#"
   xmlns:svg="http://www.w3.org/2000/svg"
   xmlns="http://www.w3.org/2000/svg"
   xmlns:sodipodi="http://sodipodi.sourceforge.net/DTD/sodipodi-0.dtd"
   xmlns:inkscape="http://www.inkscape.org/namespaces/inkscape"
   width="202.83102"
   height="38.374008"
   viewBox="0 0 53.66571 10.153123"
   version="1.1"
   id="svg8"
   inkscape:version="0.92.0 r15299"
   sodipodi:docname="transcend.svg">
  <defs
     id="defs2" />
  <sodipodi:namedview
     id="base"
     pagecolor="#ffffff"
     bordercolor="#666666"
     borderopacity="1.0"
     inkscape:pageopacity="0.0"
     inkscape:pageshadow="2"
     inkscape:zoom="3.9736213"
     inkscape:cx="100.9155"
     inkscape:cy="18.687005"
     inkscape:document-units="mm"
     inkscape:current-layer="layer1"
     showgrid="false"
     fit-margin-top="0"
     fit-margin-left="0"
     fit-margin-right="0"
     fit-margin-bottom="0"
     units="px"
     inkscape:window-width="1280"
     inkscape:window-height="744"
     inkscape:window-x="-4"
     inkscape:window-y="-4"
     inkscape:window-maximized="1" />
  <metadata
     id="metadata5">
    <rdf:RDF>
      <cc:Work
         rdf:about="">
        <dc:format>image/svg+xml</dc:format>
        <dc:type
           rdf:resource="http://purl.org/dc/dcmitype/StillImage" />
        <dc:title></dc:title>
      </cc:Work>
    </rdf:RDF>
  </metadata>
  <g
     inkscape:label="Layer 1"
     inkscape:groupmode="layer"
     id="layer1"
     transform="translate(136.31365,-247.18996)">
    <g
       id="g16"
       transform="matrix(0.26458333,0,0,0.26458333,-136.18135,247.32286)"
       style="fill:#960014;fill-rule:evenodd">
      <path
         id="path12"
         d="m 64.038,8.31 -15.267,0.121 -0.697,4.118 5.45,-0.042 -3.561,17.143 4.336,-0.034 3.567,-17.143 5.276,-0.04 z m 12.222,3.652 c 0,0 -5.194,-3.288 -8.273,4.776 l 0.881,-4.905 -3.698,0.03 -3.458,17.692 3.78,-0.028 2.154,-9.455 c 0,0 1.972,-6.12 7.27,-3.658 z m 4.47,15.036 c -1.02,0.01 -1.761,-0.634 -1.768,-1.652 -0.005,-1.017 1.09,-2.044 2.203,-2.609 1.102,-0.56 4.7,-1.791 4.7,-1.791 0.028,4.251 -4.11,6.04 -5.135,6.052 m 4.777,-16.127 c 0,0 -4.814,0.402 -7.652,3.105 l -0.522,4.17 c 0,0 3.028,-3.26 6.08,-3.287 3.042,-0.022 5.014,2.741 0.121,4.348 -4.897,1.612 -8.86,2.471 -8.822,7.378 0.04,4.896 7.537,4.47 9.992,-0.174 l -0.436,2.967 3.692,-0.034 2.584,-12.691 c 0,0 1.523,-5.835 -5.037,-5.782 m 19.323,-0.066 c -5.183,0.043 -7.441,5.793 -7.441,5.793 l 0.975,-5.002 -3.98,0.034 -3.273,17.873 3.973,-0.035 2.224,-10.554 c 0,0 1.087,-3.806 4.503,-3.831 3.422,-0.025 2.432,3.402 2.259,4.515 -0.175,1.11 -2.052,9.727 -2.052,9.727 l 4.158,-0.034 2.577,-13.34 c 0,0 1.25,-5.19 -3.923,-5.146 m 13.227,-0.012 c -3.795,0.027 -7.373,3.29 -7.343,6.994 0.029,3.696 4.185,4.22 4.833,4.405 0.66,0.172 2.046,0.623 2.06,2.012 0.013,1.386 -3.48,4.835 -7.962,-0.3 l -0.606,4.076 c 0,0 1.573,1.919 4.718,1.896 3.153,-0.026 7.67,-2.472 7.633,-6.631 -0.032,-4.162 -5.122,-4.3 -6.427,-5.4 -1.303,-1.102 0.522,-3.333 2.751,-3.349 2.213,-0.019 4.174,2.367 4.174,2.367 l 0.892,-3.98 c 0,0 -0.941,-2.124 -4.723,-2.09 M 132.65,10.58 c -3.877,0.033 -9.942,4.15 -9.88,11.729 0.059,7.586 7.378,10.39 12.509,4.16 l 0.348,-3.061 c 0,0 -2.286,3.168 -5.616,3.197 -3.325,0.024 -3.63,-3.945 -3.46,-5.251 0.176,-1.293 1.335,-6.571 5.681,-6.608 4.338,-0.035 4.826,2.92 4.826,2.92 l 0.89,-4.443 c 0,0 -1.413,-2.674 -5.298,-2.643 m 18.009,7.907 -8.686,0.07 c 0,0 1.256,-3.987 5.329,-4.021 4.067,-0.033 3.357,3.95 3.357,3.95 m -3.115,-7.84 c -4.806,0.036 -10.036,5.726 -9.978,12.196 0.05,6.48 7.518,9.886 13.62,3.683 l 0.346,-2.96 c 0,0 -1.634,3.06 -6.171,3.094 -4.534,0.034 -4.01,-4.77 -4.01,-4.77 l 11.183,-0.088 c 0,0 1.262,-3.806 0.874,-6.117 -0.384,-2.31 -1.057,-5.076 -5.864,-5.039 m 20.059,0.3 c -5.166,0.044 -7.434,5.802 -7.434,5.802 l 0.971,-5.002 -3.972,0.031 -3.279,17.874 3.978,-0.031 2.23,-10.562 c 0,0 1.067,-3.803 4.502,-3.827 3.418,-0.029 2.42,3.4 2.25,4.51 -0.173,1.113 -2.047,9.725 -2.047,9.725 l 4.162,-0.035 2.575,-13.332 c 0,0 1.246,-5.192 -3.936,-5.153 m 17.783,7.568 c 0.042,5.125 -3.688,7.856 -5.493,7.874 -1.796,0.01 -3.204,-1.498 -3.226,-3.934 -0.016,-2.419 1.679,-7.288 5.429,-7.32 3.734,-0.03 3.29,3.38 3.29,3.38 z m 2.397,-11.19 -1.664,8.057 c 0,0 -0.246,-4.5 -4.616,-4.471 -4.37,0.036 -8.898,5.823 -8.847,12.068 0.051,6.235 6.328,10.837 11.603,2.544 l -0.937,3.892 3.944,-0.029 4.54,-22.093 z m 9.443,3.437 h 0.323 c 0.46,0 0.75,-0.02 0.86,-0.055 0.11,-0.035 0.2,-0.094 0.263,-0.186 a 0.468,0.468 0 0 0 0.098,-0.301 0.46,0.46 0 0 0 -0.095,-0.29 0.536,0.536 0 0 0 -0.268,-0.186 c -0.119,-0.035 -0.401,-0.053 -0.858,-0.053 h -0.323 v 1.07 z m -0.8,2.241 v -3.93 h 0.8 c 0.75,0 1.17,0 1.263,0.006 0.262,0.024 0.469,0.077 0.618,0.158 0.143,0.082 0.268,0.206 0.369,0.378 0.097,0.166 0.146,0.354 0.146,0.562 0,0.284 -0.092,0.527 -0.277,0.73 -0.187,0.198 -0.446,0.326 -0.78,0.373 0.115,0.043 0.21,0.093 0.273,0.148 a 1.7,1.7 0 0 1 0.269,0.302 c 0.03,0.039 0.127,0.2 0.293,0.477 l 0.461,0.796 h -0.996 l -0.327,-0.64 c -0.218,-0.429 -0.405,-0.7 -0.549,-0.813 -0.147,-0.114 -0.33,-0.167 -0.555,-0.167 h -0.208 v 1.62 z m 1.683,-4.972 a 3.06,3.06 0 0 0 -1.473,0.385 c -0.47,0.255 -0.842,0.62 -1.112,1.098 -0.267,0.48 -0.405,0.98 -0.405,1.505 0,0.52 0.13,1.013 0.396,1.488 0.262,0.471 0.635,0.84 1.107,1.103 a 2.978,2.978 0 0 0 2.978,0 2.823,2.823 0 0 0 1.107,-1.103 c 0.266,-0.475 0.4,-0.968 0.4,-1.488 0,-0.525 -0.137,-1.026 -0.408,-1.505 a 2.788,2.788 0 0 0 -1.113,-1.098 3.087,3.087 0 0 0 -1.477,-0.385 z m 0,-0.74 c 0.636,0 1.25,0.163 1.836,0.485 a 3.436,3.436 0 0 1 1.384,1.372 3.77,3.77 0 0 1 0.502,1.867 c 0,0.649 -0.165,1.266 -0.493,1.852 a 3.518,3.518 0 0 1 -1.375,1.375 3.769,3.769 0 0 1 -1.854,0.493 3.752,3.752 0 0 1 -1.857,-0.493 3.511,3.511 0 0 1 -1.375,-1.375 3.697,3.697 0 0 1 -0.494,-1.852 c 0,-0.651 0.167,-1.272 0.5,-1.867 a 3.455,3.455 0 0 1 1.385,-1.372 c 0.59,-0.322 1.2,-0.484 1.84,-0.484 z M 39.427,9.828 A 15.745,15.745 0 0 0 39.129,9.13 C 35.072,0.264 23.335,-2.649 12.914,2.628 6.939,5.653 2.696,10.708 0.923,16.142 h 15.302 l -3.028,15.075 h 7.833 l 3.026,-15.075 h 5.135 L 30.756,8.729 9.398,8.709 C 14.48,2.957 22.025,0.13 28.272,2.205 c 3.764,1.248 6.376,4.05 7.609,7.623 z"
         inkscape:connector-curvature="0" />
      <path
         id="path14"
         d="m 32.559,12.425 -1.58,7.436 h 4.992 a 21.715,21.715 0 0 1 -1.37,3.587 C 30.175,32.55 20.166,37.796 12.243,35.166 5.725,33.006 2.656,26.184 4.237,18.765 H 0.264 c -0.564,3.23 -0.24,6.5 1.123,9.476 4.056,8.865 15.795,11.776 26.216,6.502 9.168,-4.64 14.263,-14.08 12.599,-22.318 z"
         inkscape:connector-curvature="0" />
    </g>
  </g>
</svg>
