<?xml version="1.0" encoding="UTF-8" standalone="no"?>
<svg
   width="2498.22"
   height="919.83051"
   viewBox="0 0 192.61876 70.92114"
   version="1.1"
   id="svg4"
   sodipodi:docname="iomega-8-logo-svg-vector.svg"
   inkscape:version="1.3 (0e150ed, 2023-07-21)"
   xmlns:inkscape="http://www.inkscape.org/namespaces/inkscape"
   xmlns:sodipodi="http://sodipodi.sourceforge.net/DTD/sodipodi-0.dtd"
   xmlns="http://www.w3.org/2000/svg"
   xmlns:svg="http://www.w3.org/2000/svg">
  <defs
     id="defs4" />
  <sodipodi:namedview
     id="namedview4"
     pagecolor="#ffffff"
     bordercolor="#000000"
     borderopacity="0.25"
     inkscape:showpageshadow="2"
     inkscape:pageopacity="0.0"
     inkscape:pagecheckerboard="0"
     inkscape:deskcolor="#d1d1d1"
     inkscape:zoom="0.0944"
     inkscape:cx="1398.3051"
     inkscape:cy="1536.0169"
     inkscape:window-width="1400"
     inkscape:window-height="947"
     inkscape:window-x="1991"
     inkscape:window-y="25"
     inkscape:window-maximized="0"
     inkscape:current-layer="svg4" />
  <g
     fill-rule="evenodd"
     clip-rule="evenodd"
     id="g4"
     transform="translate(-0.47699273,-60.917424)">
    <path
       fill="#ffffff"
       fill-opacity="0"
       d="M 0,0 H 192.756 V 192.756 H 0 Z"
       id="path1" />
    <path
       d="m 34.204,81.355 c -9.224,0 -14.884,6.848 -14.884,17.888 0,11.39 5.451,18.027 14.813,18.027 9.014,0 14.674,-6.917 14.674,-17.888 0,-11.249 -5.45,-18.027 -14.603,-18.027 z m -5.73,18.028 c 0,-7.965 1.607,-11.18 5.59,-11.18 3.983,0 5.59,3.284 5.59,11.11 0,7.825 -1.607,11.11 -5.59,11.11 -3.983,0 -5.59,-3.214 -5.59,-11.04 z m 36.511,-11.04 c 2.376,0 3.075,1.258 3.075,5.73 v 20.823 c 0,1.048 0.14,1.188 1.188,1.188 h 6.219 c 0.979,0 1.118,-0.14 1.118,-1.188 V 91.208 c 2.446,-2.236 3.983,-3.075 5.87,-3.075 2.236,0 3.074,1.398 3.074,5.311 v 21.452 c 0,1.048 0.14,1.188 1.118,1.188 h 6.219 c 0.979,0 1.188,-0.14 1.188,-1.188 v -22.29 c 0,-4.263 -0.28,-5.87 -1.258,-7.826 -1.047,-2.166 -3.423,-3.424 -6.498,-3.424 -3.773,0 -6.568,1.258 -10.411,4.751 -1.537,-3.214 -3.913,-4.751 -7.477,-4.751 -3.703,0 -6.358,1.328 -10.062,4.751 -0.629,-2.935 -1.468,-4.821 -2.166,-4.821 -0.14,0 -0.419,0 -0.699,0.139 l -5.52,1.817 c -0.56,0.209 -0.769,0.419 -0.769,0.769 0,0.21 0.07,0.489 0.209,0.769 1.048,2.585 1.258,3.843 1.258,7.337 v 22.779 c 0,1.048 0.139,1.188 1.118,1.188 h 6.219 c 1.048,0 1.188,-0.14 1.188,-1.188 V 91.208 c 2.305,-2.027 4.052,-2.865 5.799,-2.865 z m 56.988,13.276 c 1.258,0 1.537,-0.35 1.537,-1.747 0,-12.298 -4.471,-18.517 -13.484,-18.517 -8.943,0 -14.813,7.267 -14.813,18.237 0,11.459 5.31,17.678 15.163,17.678 3.004,0 5.658,-0.488 8.453,-1.537 2.797,-1.048 3.775,-1.677 3.775,-2.515 0,-0.21 -0.07,-0.35 -0.211,-0.769 l -1.746,-3.983 c -0.141,-0.419 -0.42,-0.629 -0.77,-0.629 -0.209,0 -0.488,0.069 -0.838,0.279 -2.656,1.397 -5.24,2.097 -7.826,2.097 -4.961,0 -7.336,-2.796 -7.477,-8.595 h 18.237 z M 109.605,87.574 c 3.424,0 4.752,2.096 4.891,7.757 h -10.619 c 0.629,-5.59 2.166,-7.757 5.728,-7.757 z m 34.411,29.976 c 0,4.123 -1.396,5.66 -5.17,5.66 -3.004,0 -6.639,-0.908 -10.062,-2.515 -0.279,-0.141 -0.488,-0.21 -0.629,-0.21 -0.348,0 -0.629,0.21 -0.768,0.698 l -1.398,4.682 c -0.068,0.21 -0.139,0.489 -0.139,0.699 0,0.418 0.35,0.769 0.979,1.118 3.354,1.467 8.734,2.585 12.717,2.585 8.314,0 12.787,-4.262 12.787,-12.228 0,-0.77 0,-2.097 -0.07,-4.123 a 288.318,288.318 0 0 1 -0.209,-11.04 V 92.745 c 0,-3.004 0.35,-5.031 1.467,-7.616 L 153.8,84.43 c 0.07,-0.209 0.141,-0.349 0.141,-0.49 0,-0.349 -0.211,-0.558 -0.629,-0.698 L 148,81.286 c -0.209,-0.07 -0.49,-0.14 -0.699,-0.14 -0.629,0 -1.537,1.258 -2.375,3.354 -2.727,-2.375 -4.682,-3.145 -7.826,-3.145 -7.688,0 -12.438,6.917 -12.438,17.958 0,10.062 4.262,16.351 11.109,16.351 2.936,0 5.381,-0.769 7.896,-2.516 0.28,1.957 0.349,3.285 0.349,4.402 z m -0.348,-11.039 c -1.469,1.537 -3.285,2.375 -5.311,2.375 -3.354,0 -5.102,-3.493 -5.102,-10.062 0,-6.708 2.025,-10.341 5.66,-10.341 1.607,0 2.865,0.559 4.752,2.026 v 16.002 z m 27.434,-11.25 c -5.59,0.07 -8.314,0.559 -11.389,1.956 -3.844,1.747 -5.73,4.892 -5.73,9.573 0,6.288 3.982,10.271 10.201,10.271 3.494,0 5.939,-1.118 8.664,-3.913 0.77,2.795 1.398,4.053 2.098,4.053 0.139,0 0.488,-0.069 0.768,-0.21 l 5.311,-2.166 c 0.35,-0.14 0.559,-0.419 0.559,-0.698 0,-0.14 -0.07,-0.419 -0.209,-0.699 -1.117,-2.306 -1.607,-4.332 -1.607,-7.337 V 92.256 c 0,-2.026 -0.07,-3.145 -0.42,-4.402 -1.188,-4.193 -5.1,-6.499 -11.18,-6.499 a 29.12,29.12 0 0 0 -9.643,1.677 c -1.467,0.559 -1.955,0.908 -1.955,1.537 0,0.14 0.068,0.349 0.139,0.699 l 1.469,4.123 c 0.139,0.489 0.348,0.629 0.697,0.629 0.141,0 0.488,-0.07 0.699,-0.14 3.145,-1.258 5.52,-1.817 7.547,-1.817 3.494,0 4.541,1.188 4.541,5.101 v 2.096 h -0.56 z m 0.558,13.066 c -1.607,1.816 -3.354,2.655 -5.17,2.655 -2.445,0 -4.332,-2.026 -4.332,-4.682 0,-3.773 2.725,-5.45 8.803,-5.45 h 0.699 z"
       fill="#c1352c"
       id="path2" />
    <path
       d="m 6.64,68.752 a 6.264,6.264 0 1 1 12.528,0 6.264,6.264 0 0 1 -12.528,0 z"
       fill="#2d509f"
       id="path3" />
    <path
       d="m 3.611,81.958 h 13.198 c 0.34,0 0.502,0.194 0.777,0.388 v 34.007 H 9.434 C 9.24,116.046 9.046,115.913 9.046,115.541 V 88.169 H 3.223 C 3.013,87.91 2.835,87.732 2.835,87.393 v -4.658 a 0.786,0.786 0 0 1 0.776,-0.777 z m 183.17,30.596 a 3.138,3.138 0 0 0 -3.139,3.141 c 0,1.727 1.412,3.139 3.139,3.139 1.727,0 3.141,-1.412 3.141,-3.139 a 3.13,3.13 0 0 0 -3.141,-3.141 z m 0,5.871 a 2.733,2.733 0 0 1 -2.73,-2.73 2.733,2.733 0 0 1 2.73,-2.732 2.724,2.724 0 0 1 2.732,2.732 2.733,2.733 0 0 1 -2.732,2.73 z m 1.053,-3.422 c 0,-0.659 -0.33,-0.941 -1.1,-0.941 h -0.77 c -0.078,0 -0.094,0.016 -0.094,0.109 v 3.029 c 0,0.095 0,0.11 0.094,0.11 h 0.439 c 0.08,0 0.096,-0.016 0.096,-0.094 v -1.24 h 0.25 l 0.676,1.35 c 0.016,0.047 0.031,0.062 0.062,0.062 h 0.047 l 0.424,-0.125 c 0.064,-0.016 0.078,-0.031 0.078,-0.063 0,-0.015 0,-0.031 -0.014,-0.062 l -0.707,-1.24 c 0.376,-0.204 0.519,-0.455 0.519,-0.895 z m -1.334,-0.455 h 0.188 c 0.377,0 0.502,0.11 0.502,0.455 0,0.346 -0.141,0.486 -0.549,0.486 H 186.5 Z"
       fill="#c1352c"
       id="path4" />
  </g>
  <rect
     style="opacity:0;fill:#000000;stroke:#ffffff;stroke-width:2.4624;stroke-linecap:round;stroke-linejoin:round"
     id="rect7"
     width="190.15636"
     height="68.45874"
     x="1.2312"
     y="1.2312" />
</svg>
