<?xml version="1.0" encoding="UTF-8"?>
<!-- Created with Inkscape (http://www.inkscape.org/) -->
<svg width="9976.5" height="3180" version="1.1" viewBox="0 0 9976.5 3180" xmlns="http://www.w3.org/2000/svg">
 <g>
  <path d="m2820 3180 534.06-1020h-1068.1z" fill="#f48800"/>
  <path d="m1110 0-1110 2120h2220zm-45 740h100l380 930h50v70h-360v-70h110.14l-93.984-230h-371.84l-93.984 230h119.67v70h-320v-70h100zm3230 0-380 930h-100v70h320v-70h-119.67l93.984-230h371.84l93.984 230h-110.14v70h360v-70h-50l-380-930zm1185 0v240h90v-120h260v810h-150v70h490v-70h-150v-810h260v120h90v-240h-90v20h-710v-20zm1980 0-380 930h-100v70h320v-70h-119.67l93.984-230h371.84l93.984 230h-110.14v70h360v-70h-50l-380-930zm1290 20v70h110v830h-110v80h420v-80h-100v-360h30c30 0 240 440 360 440h210v-80h-40c-106.37 0-230-300-315-375 0 0 205-85.001 205-255s-82.232-270-240-270zm-6470 40v70h70l375.92 920h108.16l375.92-920h80v-70h-300v70h103.32l-253.32 620h-20l-253.32-620h123.32v-70zm6790 30c100 0 250.48 0.984 250 190-0.48 189.02-150.32 200-250 200zm-8015 180-134.84 330h290.16l-134.84-330zm3230 0h20.469l134.84 330h-290.16zm3165 0h20.469l134.84 330h-290.16zm1446 1116.2v373.85h52.812v-245.14l255.12 266.68v-371.54h-52.812v243.09zm-1897.8 1.543-173.34 372.3h56.934l38.965-85.137h149.75l36.934 85.137h57.695zm815.39 15.644c-23.932 0-45.65 6.3983-65.137 19.219-26.667 17.607-40 42.058-40 73.34 0 38.974 23.934 68.54 71.797 88.711 23.932 10.085 38.383 16.337 43.34 18.73 4.9572 2.2223 10.34 5.2872 16.152 9.2188 16.239 10.94 24.356 26.24 24.356 45.898 0 15.385-4.7829 28.552-14.356 39.492-10.94 12.65-25.308 18.965-43.086 18.965-10.769 0-20.769-2.3817-30-7.168-9.0599-4.9573-15.892-11.541-20.508-19.746-4.4444-7.8632-7.7777-20.679-10-38.457l-53.34 11.797c3.4188 23.077 10.188 41.959 20.273 56.66 21.538 31.111 52.036 46.66 91.524 46.66 30.769 0 56.421-9.4827 76.934-28.457 23.761-21.88 35.644-49.665 35.644-83.34 0-23.248-6.5008-43.414-19.492-60.508-12.479-16.41-33.328-30.593-62.559-42.559-23.077-9.4017-37.01-15.136-41.797-17.188-4.6153-2.2222-9.5007-5.2042-14.629-8.9649-11.111-7.6923-16.66-17.36-16.66-28.984 0-11.966 4.6169-22.132 13.848-30.508 9.5727-8.7179 22.057-13.066 37.441-13.066 14.701 0 26.482 4.0996 35.371 12.305 4.7864 4.2735 10.355 11.624 16.68 22.051l42.812-25.391c-11.795-20.342-25.294-35.208-40.508-44.609-15.043-9.4017-33.076-14.102-54.102-14.102zm1783.2 0c-34.017 0-65.218 8.1992-93.594 24.609-29.914 17.436-53.248 41.887-70 73.34-14.188 27.008-21.289 55.457-21.289 85.371 0 28.718 6.5007 55.819 19.492 81.289 17.094 33.333 41.794 58.882 74.102 76.66 26.838 14.701 55.988 22.051 87.441 22.051 33.163 0 64.881-8.6335 95.137-25.898v-63.574c-17.094 14.359-32.829 24.608-47.188 30.762-14.359 5.9829-30.176 8.9649-47.441 8.9649-32.479 0-61.029-10.932-85.644-32.812-28.376-25.299-42.559-57.949-42.559-97.949 0-21.538 4.5339-41.621 13.594-60.254 11.111-23.077 27.26-41.11 48.457-54.102 20-12.479 42.05-18.711 66.152-18.711 17.778 0 35.396 3.6652 52.832 11.016 12.308 5.1282 26.241 14.279 41.797 27.441v-62.578c-29.231-17.094-59.665-25.625-91.289-25.625zm-5960 6.6602v350h52.812v-142.05h24.629c38.29 0 67.773-9.917 88.457-29.746 20.342-19.487 30.508-44.27 30.508-74.355 0-17.094-3.8506-33.243-11.543-48.457-11.966-23.932-30.599-40.1-55.898-48.476-13.846-4.6154-36.911-6.9141-69.219-6.9141zm401.54 0v350h193.32v-49.746h-140.51v-116.91h136.15v-49.746h-136.15v-83.848h140.51v-49.746zm403.2 0v350h52.812v-143.34h9.4922l100 143.34h64.609l-108.46-149.24c23.248-4.9572 41.964-16.407 56.152-34.356 14.188-17.949 21.289-39.149 21.289-63.594 0-16.41-3.6018-31.876-10.781-46.406-7.6923-15.384-18.024-27.434-31.016-36.152-10.94-7.3504-23.424-12.568-37.441-15.644-14.017-3.0769-32.299-4.6094-54.863-4.6094zm427.05 0v350h52.812v-350zm283.2 0v350h52.812v-142.05h24.629c38.29 0 67.773-9.917 88.457-29.746 20.342-19.487 30.508-44.27 30.508-74.355 0-17.094-3.8506-33.243-11.543-48.457-11.966-23.932-30.599-40.1-55.898-48.476-13.846-4.6154-36.911-6.9141-69.219-6.9141zm389.86 0v350h52.832v-163.34h151.02v163.34h52.832v-350h-52.832v136.91h-151.02v-136.91zm491.68 0v350h193.32v-49.746h-140.51v-116.91h136.15v-49.746h-136.15v-83.848h140.51v-49.746zm398.2 0v350h52.812v-143.34h9.4922l100 143.34h64.609l-108.46-149.24c23.248-4.9572 41.964-16.407 56.152-34.356 14.188-17.949 21.289-39.149 21.289-63.594 0-16.41-3.6018-31.876-10.781-46.406-7.6923-15.384-18.024-27.434-31.016-36.152-10.94-7.3504-23.424-12.568-37.441-15.644-14.017-3.0769-32.299-4.6094-54.863-4.6094zm925.51 0v350h155.9v-49.746h-103.09v-300.25zm1261.5 0v350h52.812v-350zm-4929 48.711h17.441c25.299 0 43.767 4.2021 55.391 12.578 13.162 9.4017 19.746 23.335 19.746 41.797 0 17.778-5.9834 31.692-17.949 41.777-11.282 9.4017-29.584 14.102-54.883 14.102h-19.746zm1515 0h17.441c25.299 0 43.767 4.2021 55.391 12.578 13.162 9.4017 19.746 23.335 19.746 41.797 0 17.778-5.9834 31.692-17.949 41.777-11.282 9.4017-29.584 14.102-54.883 14.102h-19.746zm-710.25 1.0352h18.73c23.248 0 40.681 4.0166 52.305 12.051 13.675 9.5726 20.508 23.423 20.508 41.543 0 19.487-7.3499 34.353-22.051 44.609-11.795 8.3761-29.311 12.559-52.559 12.559h-16.934zm1990 0h18.73c23.248 0 40.681 4.0166 52.305 12.051 13.675 9.5726 20.508 23.423 20.508 41.543 0 19.487-7.3499 34.353-22.051 44.609-11.795 8.3761-29.311 12.559-52.559 12.559h-16.934zm512.83 46.406 52.051 118.98h-106.43zm1171.8 188.2-53.574 133.34 34.609 14.102 64.609-129.75zm1776 9.2383c-8.718 0.171-16.151 3.3383-22.305 9.4921-6.154 5.9829-9.238 13.147-9.238 21.524 0 8.8889 3.084 16.507 9.238 22.832 6.154 6.1538 13.587 9.2188 22.305 9.2188s16.151-3.065 22.305-9.2188 9.238-13.587 9.238-22.305c0-8.7179-3.084-16.17-9.238-22.324s-13.587-9.2187-22.305-9.2187z" fill="#a410ef"/>
 </g>
</svg>
