<?xml version="1.0" encoding="UTF-8"?>
<svg width="744.09" height="326.34" version="1.1" xmlns="http://www.w3.org/2000/svg">
<g fill="#028450" fill-rule="evenodd">
	<path d="m171.57 105.07 58.915 127.1-42.004 76.377h71.463l91.102-191.48v138.02h58.371s-0.542-65.457 0-63.823c0-7.638 3.272-20.727 14.728-21.819h29.457v-62.736c4.365-5.457-32.729 3.82-42.005 18.001v-19.637h-126.56l-24.548 63.826-20.729-63.826zm324.06-74.18 46.917 45.822-46.916 44.738-48.011-44.738z"/>
	<path d="m463.42 255.63v-147.83l31.095 29.457 31.094-28.913 0.546-0.544h80.736l18.004 22.366 17.454-22.366h84.01l-61.101 73.099 60.555 74.734h-76.918l-22.912-26.726-22.366 26.726zm62.736-146.75v145.66s32.187-40.371 59.459-74.737z"/>
	<path d="m137.75 257.82c30.549 0 55.643-9.82 76.918-29.456-10.366-18.004-16.366-38.186-24.55-53.465-11.454 16.913-31.094 27.277-52.368 27.277-35.459 0-64.374-28.91-64.374-64.37 0-36.004 28.915-64.916 64.374-64.916 21.821 0 40.915 11.456 52.368 27.82 8.73-17.456 19.093-38.186 27.277-52.37-21.275-19.093-49.641-30.549-79.644-30.549-66.008 0-120.02 54.005-120.02 120.02 0 74.573 61.464 120.01 120.02 120.01z"/>
</g>
</svg>
