<?xml version="1.0" encoding="UTF-8" standalone="no"?>
<svg
   xmlns:dc="http://purl.org/dc/elements/1.1/"
   xmlns:cc="http://creativecommons.org/ns#"
   xmlns:rdf="http://www.w3.org/1999/02/22-rdf-syntax-ns#"
   xmlns:svg="http://www.w3.org/2000/svg"
   xmlns="http://www.w3.org/2000/svg"
   xmlns:sodipodi="http://sodipodi.sourceforge.net/DTD/sodipodi-0.dtd"
   xmlns:inkscape="http://www.inkscape.org/namespaces/inkscape"
   width="1359pt"
   height="600pt"
   viewBox="0 0 1359 600"
   version="1.1"
   id="svg3045"
   inkscape:version="0.48.0 r9654"
   sodipodi:docname="Diamond Multimedia Logo.svg">
  <title
     id="title3105">Diamond Multimedia Logo</title>
  <metadata
     id="metadata3103">
    <rdf:RDF>
      <cc:Work
         rdf:about="">
        <dc:format>image/svg+xml</dc:format>
        <dc:type
           rdf:resource="http://purl.org/dc/dcmitype/StillImage" />
        <dc:title>Diamond Multimedia Logo</dc:title>
      </cc:Work>
    </rdf:RDF>
  </metadata>
  <defs
     id="defs3101" />
  <sodipodi:namedview
     pagecolor="#ffffff"
     bordercolor="#666666"
     borderopacity="1"
     objecttolerance="10"
     gridtolerance="10"
     guidetolerance="10"
     inkscape:pageopacity="0"
     inkscape:pageshadow="2"
     inkscape:window-width="1280"
     inkscape:window-height="962"
     id="namedview3099"
     showgrid="false"
     inkscape:zoom="0.30022075"
     inkscape:cx="849.375"
     inkscape:cy="1041.1765"
     inkscape:window-x="-8"
     inkscape:window-y="-8"
     inkscape:window-maximized="1"
     inkscape:current-layer="svg3045" />
  <path
     fill="#fe0202"
     d=" M 282.27 32.43 C 284.00 29.75 285.11 26.58 287.65 24.52 C 299.53 43.42 311.45 62.29 323.09 81.33 C 385.04 81.66 447.00 81.38 508.96 81.47 C 779.93 81.46 1050.91 81.50 1321.88 81.45 C 1321.93 192.95 1321.88 304.44 1321.91 415.94 C 1321.91 419.03 1321.90 422.12 1321.80 425.22 C 1204.20 425.19 1086.59 425.25 968.99 425.19 C 657.03 425.27 345.07 425.15 33.12 425.25 C 32.85 376.52 33.08 327.79 33.00 279.06 C 33.03 213.18 32.93 147.31 33.05 81.43 C 106.33 81.54 179.60 81.43 252.88 81.48 C 262.73 65.16 272.42 48.75 282.27 32.43 Z"
     id="path3049" />
  <path
     fill="#fffdfd"
     d=" M 252.79 81.74 C 276.40 81.72 300.00 81.72 323.60 81.74 C 312.37 100.22 301.34 118.82 290.25 137.37 C 289.89 138.14 289.33 138.67 288.57 138.98 C 276.66 119.89 264.78 100.78 252.79 81.74 Z"
     id="path3051" />
  <path
     fill="#fffdfd"
     d=" M 826.10 237.91 C 849.13 237.31 873.04 244.84 889.55 261.40 C 915.89 286.78 918.61 331.77 897.10 360.99 C 888.61 372.49 876.51 381.08 863.24 386.22 C 843.17 393.68 820.65 394.32 800.16 388.17 C 784.46 383.44 770.10 373.84 760.42 360.53 C 751.17 348.06 746.74 332.45 746.51 317.03 C 746.15 300.58 750.64 283.78 760.45 270.44 C 772.57 253.72 791.75 242.72 812.01 239.38 C 816.64 238.38 821.40 238.46 826.10 237.91 Z"
     id="path3053" />
  <path
     fill="#fffdfd"
     d=" M 94.48 240.30 C 114.98 240.32 135.48 240.25 155.98 240.34 C 176.48 240.92 197.73 246.04 213.94 259.17 C 226.18 268.91 233.76 283.59 236.54 298.84 C 240.20 318.80 238.08 340.59 227.05 358.01 C 214.03 378.85 189.02 389.78 164.97 389.61 C 141.47 389.60 117.98 389.61 94.48 389.60 C 94.51 339.84 94.51 290.07 94.48 240.30 Z"
     id="path3055" />
  <path
     fill="#fffdfd"
     d=" M 262.75 240.26 C 280.78 240.35 298.80 240.26 316.82 240.31 C 316.80 290.07 316.80 339.83 316.83 389.60 C 298.77 389.56 280.72 389.69 262.67 389.54 C 262.79 339.78 262.62 290.02 262.75 240.26 Z"
     id="path3057" />
  <path
     fill="#fffdfd"
     d=" M 392.59 240.32 C 412.55 240.26 432.52 240.33 452.48 240.29 C 470.26 290.04 487.64 339.94 505.79 389.56 C 486.72 389.66 467.65 389.57 448.59 389.60 C 446.84 383.62 445.25 377.59 443.36 371.66 C 443.02 371.57 442.33 371.39 441.99 371.30 C 428.72 371.23 415.46 371.29 402.19 371.29 C 400.61 377.38 399.23 383.52 397.64 389.61 C 378.57 389.53 359.50 389.74 340.43 389.51 C 348.47 367.34 356.12 345.02 363.80 322.72 C 373.52 295.30 382.92 267.76 392.59 240.32 Z"
     id="path3059" />
  <path
     fill="#fffdfd"
     d=" M 555.19 240.27 C 573.76 240.33 592.33 240.30 610.90 240.28 C 618.03 266.34 624.44 292.59 631.74 318.60 C 633.73 319.36 633.31 316.14 633.81 315.01 C 635.89 300.38 640.59 286.34 644.41 272.10 C 647.49 261.52 650.43 250.90 653.50 240.32 C 671.84 240.29 690.17 240.27 708.51 240.33 C 716.57 290.11 725.00 339.83 733.40 389.55 C 715.78 389.62 698.16 389.67 680.54 389.53 C 678.37 362.63 675.92 335.76 673.63 308.88 C 673.99 307.62 672.76 307.69 672.00 307.51 C 671.43 314.83 669.09 321.84 666.83 328.78 C 660.33 349.02 654.09 369.34 647.64 389.60 C 637.13 389.62 626.62 389.57 616.11 389.62 C 609.61 369.40 603.38 349.10 597.13 328.80 C 595.04 321.97 593.81 314.93 592.81 307.87 L 592.06 307.35 L 591.20 307.95 C 589.16 335.20 585.71 362.35 583.37 389.58 C 565.92 389.62 548.48 389.62 531.03 389.57 C 539.21 339.82 547.02 290.02 555.19 240.27 Z"
     id="path3061" />
  <path
     fill="#fffdfd"
     d=" M 938.28 240.31 C 955.61 240.34 972.93 240.21 990.26 240.37 C 1006.26 268.14 1022.68 295.67 1038.77 323.38 C 1039.31 323.46 1040.39 323.63 1040.93 323.71 C 1039.08 312.16 1036.45 300.68 1036.07 288.95 C 1035.75 272.74 1035.79 256.51 1036.04 240.31 C 1053.29 240.29 1070.54 240.30 1087.79 240.30 C 1087.77 290.07 1087.75 339.83 1087.80 389.60 C 1070.47 389.57 1053.13 389.67 1035.80 389.55 C 1020.25 363.36 1004.22 337.46 988.61 311.31 C 988.11 311.30 987.12 311.29 986.62 311.29 C 991.88 337.06 989.90 363.44 990.29 389.55 C 972.93 389.62 955.57 389.67 938.21 389.52 C 938.40 339.79 938.26 290.05 938.28 240.31 Z"
     id="path3063" />
  <path
     fill="#fffdfd"
     d=" M 1124.31 240.31 C 1137.56 240.28 1150.82 240.31 1164.07 240.30 C 1177.74 240.42 1191.54 239.59 1205.04 242.32 C 1223.82 245.63 1242.54 254.25 1254.26 269.78 C 1265.82 285.15 1269.44 305.15 1268.04 324.00 C 1266.87 340.92 1260.08 357.85 1247.60 369.58 C 1234.05 382.95 1214.77 389.37 1195.98 389.60 C 1172.09 389.61 1148.19 389.61 1124.30 389.60 C 1124.34 339.83 1124.32 290.07 1124.31 240.31 Z"
     id="path3065" />
  <path
     fill="#fe0202"
     d=" M 148.60 286.99 C 157.77 286.59 167.92 287.50 175.14 293.79 C 181.80 299.43 184.11 308.57 184.00 316.99 C 184.17 325.07 181.39 333.70 174.81 338.79 C 167.43 344.52 157.70 345.69 148.63 345.41 C 148.56 325.93 148.63 306.46 148.60 286.99 Z"
     id="path3067" />
  <path
     fill="#fe0202"
     d=" M 821.53 287.66 C 830.24 285.76 839.98 287.23 846.98 293.02 C 859.69 303.50 860.83 324.74 849.81 336.82 C 838.81 348.56 817.56 348.33 807.19 335.86 C 797.27 323.55 798.59 303.16 810.96 292.95 C 813.99 290.37 817.67 288.63 821.53 287.66 Z"
     id="path3069" />
  <path
     fill="#fe0202"
     d=" M 1178.36 287.01 C 1186.78 286.66 1195.79 287.30 1203.01 292.09 C 1209.70 296.35 1213.28 304.22 1213.85 311.95 C 1215.10 321.12 1213.12 331.51 1205.88 337.84 C 1198.42 344.36 1188.00 345.67 1178.46 345.42 C 1178.30 325.95 1178.49 306.48 1178.36 287.01 Z"
     id="path3071" />
  <path
     fill="#fe0202"
     d=" M 413.33 330.39 C 415.89 316.85 418.85 303.38 421.90 289.95 C 424.64 288.74 424.18 292.14 424.69 293.81 C 426.58 307.99 430.58 321.75 433.87 335.65 C 426.67 335.81 419.47 335.67 412.27 335.73 C 412.45 334.08 412.64 332.44 412.80 330.80 C 412.93 330.69 413.20 330.49 413.33 330.39 Z"
     id="path3073" />
  <path
     fill="#101010"
     d=" M 236.40 484.00 C 242.54 484.28 248.70 484.30 254.83 484.00 C 255.30 491.33 254.93 498.69 255.05 506.03 C 254.93 511.84 255.64 517.87 253.60 523.45 C 251.67 528.98 246.76 533.40 241.03 534.67 C 234.65 534.82 228.24 534.82 221.85 534.67 C 216.53 533.49 211.94 529.50 209.74 524.54 C 208.04 520.27 207.63 515.59 207.72 511.03 C 207.75 502.10 207.73 493.16 207.72 484.23 C 214.05 484.14 220.37 484.15 226.70 484.22 C 226.77 494.84 226.47 505.48 226.84 516.09 C 227.22 521.03 235.72 520.98 235.98 516.07 C 236.75 505.41 235.92 494.68 236.40 484.00 Z"
     id="path3075" />
  <path
     fill="#101010"
     d=" M 55.96 484.51 C 62.62 483.88 69.34 484.17 76.02 484.34 C 78.24 493.00 80.16 501.76 82.75 510.33 C 84.59 501.46 87.51 492.86 90.03 484.17 C 96.39 484.20 102.76 484.15 109.12 484.21 C 112.11 501.01 114.54 517.90 117.54 534.69 C 111.51 534.81 105.47 534.74 99.44 534.73 C 98.46 527.12 97.89 519.47 97.21 511.83 C 96.96 511.29 96.48 510.21 96.24 509.67 C 93.91 518.15 90.84 526.42 88.04 534.76 C 84.34 534.75 80.65 534.75 76.95 534.74 C 74.63 525.44 70.77 516.50 69.38 506.99 C 68.21 516.21 67.52 525.48 66.44 534.70 C 60.40 534.79 54.36 534.76 48.31 534.72 C 50.83 517.98 54.07 501.32 55.96 484.51 Z"
     id="path3077" />
  <path
     fill="#101010"
     d=" M 347.82 484.20 C 354.09 484.17 360.37 484.16 366.64 484.21 C 366.59 495.67 366.66 507.14 366.60 518.61 C 371.79 518.70 376.98 518.62 382.17 518.68 C 381.90 523.98 382.70 529.49 381.79 534.65 C 370.49 534.90 359.17 534.67 347.87 534.76 C 347.76 517.90 347.85 501.05 347.82 484.20 Z"
     id="path3079" />
  <path
     fill="#101010"
     d=" M 467.80 484.22 C 480.96 484.25 494.14 483.97 507.30 484.36 C 507.21 489.77 507.23 495.18 507.28 500.59 C 503.81 500.64 500.34 500.52 496.88 500.51 C 496.88 511.91 496.88 523.32 496.88 534.73 C 490.60 534.77 484.31 534.75 478.03 534.74 C 477.94 523.31 478.13 511.87 477.93 500.44 C 474.55 500.52 471.16 500.64 467.78 500.68 C 467.79 495.19 467.77 489.70 467.80 484.22 Z"
     id="path3081" />
  <path
     fill="#101010"
     d=" M 714.48 484.19 C 720.82 484.16 727.16 484.20 733.51 484.17 C 736.00 493.17 738.20 502.25 740.51 511.30 C 742.16 502.06 745.23 493.16 747.83 484.16 C 754.19 484.24 760.56 484.08 766.93 484.26 C 769.78 501.08 772.24 517.96 775.23 534.76 C 769.18 534.74 763.13 534.78 757.08 534.73 C 756.33 527.82 755.78 520.90 755.05 513.99 C 754.98 512.20 754.20 510.31 755.00 508.59 C 754.83 508.54 754.48 508.45 754.31 508.40 C 751.93 517.27 749.05 526.00 746.23 534.74 C 742.37 534.76 738.51 534.76 734.65 534.72 C 732.04 526.31 730.00 517.72 727.00 509.45 C 725.83 517.86 725.36 526.36 724.13 534.76 C 718.13 534.73 712.13 534.79 706.14 534.71 C 709.07 517.90 711.56 501.00 714.48 484.19 Z"
     id="path3083" />
  <path
     fill="#101010"
     d=" M 865.52 484.18 C 877.09 484.29 888.67 483.96 900.23 484.36 C 900.09 488.59 900.37 492.84 900.10 497.08 C 899.90 497.36 899.49 497.94 899.29 498.22 C 894.29 498.37 889.29 498.20 884.30 498.27 C 884.28 499.74 884.28 501.22 884.30 502.71 C 889.07 502.72 893.85 502.73 898.63 502.69 C 898.80 507.23 898.81 511.77 898.61 516.31 C 893.84 516.26 889.06 516.28 884.29 516.28 C 884.28 517.77 884.28 519.25 884.30 520.75 C 889.71 520.75 895.13 520.78 900.55 520.72 C 900.74 525.38 900.64 530.05 900.67 534.73 C 888.93 534.73 877.19 534.84 865.45 534.67 C 865.56 517.84 865.42 501.01 865.52 484.18 Z"
     id="path3085" />
  <path
     fill="#101010"
     d=" M 992.77 484.35 C 999.48 484.01 1006.21 484.22 1012.93 484.21 C 1020.83 484.25 1029.29 486.21 1035.08 491.93 C 1041.96 498.57 1043.48 509.24 1041.12 518.20 C 1038.63 527.87 1029.00 535.27 1018.97 534.77 C 1010.23 534.64 1001.50 534.95 992.77 534.59 C 992.82 517.85 992.82 501.10 992.77 484.35 Z"
     id="path3087" />
  <path
     fill="#101010"
     d=" M 1133.17 484.21 C 1139.45 484.15 1145.72 484.19 1152.00 484.18 C 1152.00 501.04 1152.00 517.90 1152.00 534.76 C 1145.72 534.74 1139.45 534.77 1133.18 534.73 C 1133.17 517.89 1133.18 501.05 1133.17 484.21 Z"
     id="path3089" />
  <path
     fill="#101010"
     d=" M 596.85 484.25 C 603.02 484.13 609.19 484.15 615.36 484.24 C 615.33 501.07 615.39 517.90 615.34 534.73 C 609.19 534.75 603.04 534.79 596.89 534.71 C 596.81 517.89 596.89 501.07 596.85 484.25 Z"
     id="path3091" />
  <path
     fill="#101010"
     d=" M 1258.26 484.30 C 1265.18 484.04 1272.11 484.25 1279.04 484.17 C 1285.32 500.95 1291.14 517.90 1297.23 534.76 C 1290.53 534.72 1283.83 534.80 1277.13 534.71 C 1276.69 532.78 1276.31 530.83 1275.99 528.89 C 1271.35 528.74 1266.70 528.80 1262.06 528.80 C 1261.58 530.77 1261.11 532.75 1260.66 534.73 C 1254.01 534.76 1247.37 534.78 1240.74 534.71 C 1246.67 517.94 1252.80 501.23 1258.26 484.30 Z"
     id="path3093" />
  <path
     fill="#fffdfd"
     d=" M 1011.73 500.29 C 1014.91 500.45 1018.43 500.68 1020.84 503.05 C 1024.60 507.33 1024.32 515.30 1019.07 518.28 C 1016.90 519.77 1014.18 519.56 1011.69 519.60 C 1011.75 513.16 1011.69 506.72 1011.73 500.29 Z"
     id="path3095" />
  <path
     fill="#fffdfd"
     d=" M 1265.23 516.44 C 1266.61 511.30 1267.35 505.99 1269.02 500.94 C 1269.69 506.18 1271.08 511.28 1272.42 516.39 C 1270.01 516.41 1267.62 516.42 1265.23 516.44 Z"
     id="path3097" />
</svg>
