<?xml version="1.0" encoding="UTF-8" standalone="no"?>
<svg
   width="2419.1846"
   height="420.07108"
   viewBox="0 0 186.52494 32.388488"
   version="1.1"
   id="svg3"
   sodipodi:docname="rolodex-logo-svg-vector.svg"
   inkscape:version="1.3 (0e150ed, 2023-07-21)"
   xmlns:inkscape="http://www.inkscape.org/namespaces/inkscape"
   xmlns:sodipodi="http://sodipodi.sourceforge.net/DTD/sodipodi-0.dtd"
   xmlns="http://www.w3.org/2000/svg"
   xmlns:svg="http://www.w3.org/2000/svg">
  <defs
     id="defs3" />
  <sodipodi:namedview
     id="namedview3"
     pagecolor="#ffffff"
     bordercolor="#000000"
     borderopacity="0.25"
     inkscape:showpageshadow="2"
     inkscape:pageopacity="0.0"
     inkscape:pagecheckerboard="0"
     inkscape:deskcolor="#d1d1d1"
     inkscape:zoom="0.2256"
     inkscape:cx="1254.4326"
     inkscape:cy="208.33333"
     inkscape:window-width="1392"
     inkscape:window-height="947"
     inkscape:window-x="1978"
     inkscape:window-y="25"
     inkscape:window-maximized="0"
     inkscape:current-layer="svg3" />
  <g
     fill-rule="evenodd"
     clip-rule="evenodd"
     id="g3"
     transform="translate(-4.311718,-80.183756)">
    <path
       fill="#ffffff"
       fill-opacity="0"
       d="M 0,0 H 192.756 V 192.756 H 0 Z"
       id="path1" />
    <path
       fill="#0c0e0f"
       d="M 60.356,111.057 60.63,83.606 h 9.471 l 0.137,20.177 8.646,-0.138 0.138,7.412 H 60.356 Z m 95.802,-27.588 0.274,7.137 h -8.098 v 3.431 h 7.137 l -0.137,6.315 h -6.725 l -0.138,3.568 h 7.549 v 7.273 l -17.293,-0.136 0.136,-27.725 z m 15.92,20.724 -4.803,6.864 H 156.98 l 9.608,-14.686 -8.647,-12.491 h 10.844 l 3.156,5.628 3.157,-5.628 10.843,0.138 -8.097,12.765 9.058,14.274 -11.117,-0.137 z M 23.572,99.803 c 1.784,-0.824 3.706,-2.609 4.392,-3.844 0.549,-1.235 0.961,-3.02 0.961,-5.627 -0.138,-2.196 -1.235,-2.745 -1.51,-3.568 -0.412,-0.824 -1.922,-1.922 -4.392,-2.883 -0.96,-0.412 -2.471,-0.686 -4.255,-0.686 l -13.176,0.274 -0.137,27.588 8.784,-0.137 0.137,-8.51 h 0.961 c 0,0 4.667,7.961 4.804,8.646 l 9.745,-0.137 z m -6.45,-3.981 c -2.882,0.137 -2.471,0 -2.471,0 l -0.137,-5.078 c 0,0 1.373,0 2.608,-0.138 2.607,0.412 2.607,2.608 2.607,2.608 0,0 0.138,2.471 -2.607,2.608 z M 44.297,82.097 c -7.961,0.137 -14.411,6.725 -14.274,14.687 0.138,7.961 6.725,14.41 14.686,14.273 C 52.67,110.92 59.121,104.332 58.983,96.371 58.846,88.41 52.258,82.097 44.297,82.097 Z m 0.138,20.45 c -3.294,0.137 -5.078,-2.607 -5.078,-5.764 0,-3.158 1.647,-5.765 4.941,-5.765 3.157,0 5.078,2.196 5.078,5.353 0.137,3.293 -1.785,6.176 -4.941,6.176 z m 60.253,-1.235 3.295,0.273 c 0.137,-0.273 0.273,-0.686 0.273,-1.098 l -4.666,-1.922 h 5.217 c 0,-0.412 0.137,-0.961 0.137,-1.373 l -6.727,-1.098 6.727,-1.372 c 0,-0.412 -0.137,-0.687 -0.137,-1.098 l -6.178,0.274 -0.686,-0.274 0.412,-0.687 5.627,-2.333 c -0.275,-0.549 -0.549,-1.235 -0.824,-1.784 l -5.902,3.02 h -0.822 l 0.137,-0.823 4.666,-4.804 c -0.273,-0.412 -0.686,-0.687 -0.961,-1.099 l -5.352,4.941 -0.688,0.137 -0.136,-0.821 2.607,-6.588 h 0.139 c -0.551,-0.274 -1.1,-0.549 -1.648,-0.686 l -3.019,7.96 a 6.228,6.228 0 0 1 4.255,5.902 c 0.137,3.568 -2.744,6.451 -6.177,6.451 -3.568,0 -6.451,-2.746 -6.451,-6.314 0,-3.431 2.745,-6.313 6.313,-6.313 h 0.137 l -0.137,-8.647 h -0.274 c -8.235,0.137 -14.823,6.863 -14.686,15.235 0.137,8.234 6.863,14.822 15.098,14.686 5.489,-0.137 10.294,-3.156 12.765,-7.549 z m 23.058,-17.569 c -1.098,-0.412 -2.607,-0.549 -4.254,-0.686 h -12.078 l -0.139,28 h 12.078 c 11.668,0 13.314,-10.705 13.314,-14.412 0.001,-1.51 0.138,-10.02 -8.921,-12.902 z m -2.195,17.98 c -0.549,0.961 -0.688,0.961 -1.646,0.961 h -3.158 v -10.98 h 3.02 c 1.098,0 2.197,0.823 1.51,0.686 0.549,0.137 1.785,3.02 1.785,5.079 -10e-4,1.785 -1.099,3.705 -1.511,4.254 z"
       id="path2" />
    <path
       d="m 183.059,96.783 c 0,-1.785 1.373,-3.158 3.02,-3.158 1.785,0 3.02,1.373 3.02,3.158 0,1.783 -1.234,3.02 -3.02,3.02 -1.647,0 -3.02,-1.237 -3.02,-3.02 z m 3.019,3.705 c 2.059,0 3.844,-1.646 3.844,-3.705 0,-2.197 -1.785,-3.707 -3.844,-3.707 -2.059,0 -3.705,1.51 -3.705,3.707 a 3.69,3.69 0 0 0 3.705,3.705 z m -0.822,-3.431 h 0.822 l 1.098,1.785 H 188 l -1.236,-1.785 c 0.551,-0.137 1.1,-0.412 1.1,-1.235 0,-0.824 -0.549,-1.235 -1.51,-1.235 h -1.648 v 4.255 h 0.551 v -1.785 z m 0,-0.549 v -1.373 h 0.959 c 0.412,0 0.961,0.138 0.961,0.687 0,0.549 -0.549,0.686 -1.098,0.686 z"
       fill="#0c0e0f"
       id="path3" />
  </g>
  <rect
     style="display:inline;opacity:0;fill:#000000;stroke:#ffffff;stroke-width:2.51585;stroke-linecap:round;stroke-linejoin:round"
     id="rect3"
     width="184.00908"
     height="29.872639"
     x="1.257925"
     y="1.257925" />
</svg>
