<?xml version="1.0" encoding="utf-8"?>
<!-- Generator: Adobe Illustrator 13.0.0, SVG Export Plug-In  -->
<!DOCTYPE svg PUBLIC "-//W3C//DTD SVG 1.1//EN" "http://www.w3.org/Graphics/SVG/1.1/DTD/svg11.dtd" [
	<!ENTITY ns_flows "http://ns.adobe.com/Flows/1.0/">
]>
<svg version="1.1"
	 xmlns="http://www.w3.org/2000/svg" xmlns:xlink="http://www.w3.org/1999/xlink" xmlns:a="http://ns.adobe.com/AdobeSVGViewerExtensions/3.0/"
	 x="0px" y="0px" width="177px" height="36px" viewBox="-0.504 -0.269 177 36" enable-background="new -0.504 -0.269 177 36"
	 xml:space="preserve">
<defs>
</defs>
<path fill-rule="evenodd" clip-rule="evenodd" d="M40.577,20.289v8.695c0,3.161,0.527,4.742,3.953,4.742v0.264H31.355v-0.264
	c3.952,0,3.425-4.216,3.425-7.377v-9.223c0-3.162,0.791-9.749-3.162-9.749V7.114h12.648v0.264c-3.426,0-3.689,2.108-3.689,5.27
	v6.851h0.791c5.006-5.006,5.797-6.061,6.06-6.587c2.635-4.216,0.264-5.27-1.317-5.27V7.114h10.803v0.527
	c-1.845,0-5.27,2.635-7.378,4.215l-7.904,7.642c10.803,0.527,10.539,6.06,11.593,10.012c0.791,2.372,1.317,3.689,3.689,4.216v0.264
	h-9.486C46.111,26.086,45.32,19.499,40.577,20.289L40.577,20.289z"/>
<path fill-rule="evenodd" clip-rule="evenodd" d="M65.873,21.343c0,3.689,0.791,4.743,2.898,4.743v0.264H57.704v-0.264
	c2.372,0,2.372-2.635,2.372-4.743v-9.749c0-2.635-0.527-3.952-2.635-3.952V7.114h8.432V21.343L65.873,21.343z"/>
<path fill-rule="evenodd" clip-rule="evenodd" d="M62.974,0c1.581,0,3.162,1.318,3.162,2.898c0,1.581-1.581,3.162-3.162,3.162
	c-1.581,0-3.162-1.581-3.162-3.162C59.813,1.318,61.394,0,62.974,0L62.974,0z"/>
<path fill-rule="evenodd" clip-rule="evenodd" d="M77.729,9.486c1.845-2.635,3.162-2.635,5.27-2.635
	c5.534,0,5.796,3.688,5.796,7.114v7.378c0,3.689,0.527,4.743,2.636,4.743v0.264H80.628v-0.264c2.108,0,2.108-1.581,2.108-4.743
	v-7.378c0-2.635,0.264-6.06-1.844-6.06c-2.635,0-2.635,1.845-3.162,2.898v10.54c0,3.162,0,4.743,1.845,4.743v0.264H69.298v-0.264
	c2.108,0,2.372-1.581,2.372-4.743v-9.749c0-2.635-0.527-3.952-2.898-3.952V7.114h8.958V9.486L77.729,9.486z"/>
<path fill-rule="evenodd" clip-rule="evenodd" d="M132.799,7.114h3.953l-0.791,1.317h-3.162v11.594c0,5.797,3.426,5.27,4.743,3.952
	l0.264,0.527c-3.162,2.371-5.271,1.845-6.061,1.845c-3.162,0-5.007-2.108-5.007-4.743V8.432h-3.425l0,0
	c2.635-1.054,7.114-4.479,8.959-7.114h0.526V7.114L132.799,7.114z"/>
<path fill-rule="evenodd" clip-rule="evenodd" d="M135.434,16.863c0-4.479,4.479-10.012,9.75-10.012
	c4.742,0,9.222,4.743,9.222,9.749c0,5.797-5.007,10.012-9.222,10.012C139.913,26.612,135.434,22.133,135.434,16.863L135.434,16.863z
	 M148.345,16.336c0-5.797,0-9.222-3.161-9.222c-3.426,0-3.162,4.479-3.162,9.222c0,5.797-0.264,10.013,3.162,10.013
	C148.608,26.35,148.345,22.133,148.345,16.336L148.345,16.336z"/>
<path fill-rule="evenodd" clip-rule="evenodd" d="M161.783,9.486c2.107-2.635,3.426-2.635,5.533-2.635
	c5.27,0,5.797,3.688,5.797,7.114v7.378c0,3.689,0.527,4.743,2.635,4.743v0.264h-10.803v-0.264c1.844,0,1.844-1.581,1.844-4.743
	v-7.378c0-2.635,0.264-6.06-1.844-6.06c-2.372,0-2.372,1.845-3.162,2.898v10.54c0,3.162,0.264,4.743,2.107,4.743v0.264h-10.275
	v-0.264c2.107,0,2.371-1.581,2.371-4.743v-9.749c0-2.635-0.527-3.952-2.898-3.952V7.114h8.695V9.486L161.783,9.486z"/>
<path fill-rule="evenodd" clip-rule="evenodd" d="M101.443,23.451c-0.526,0.791-1.317,3.162-4.479,3.162
	c-3.689,0-6.588-3.162-6.588-9.749c0-5.27,3.426-10.012,7.642-10.012c2.898,0,3.952,2.371,3.952,2.371V7.378h8.959v0.264
	c0,0-3.162-0.527-3.162,3.425v15.02c-0.264,3.952-1.845,6.587-9.223,8.695v-0.527C102.762,31.355,101.971,27.14,101.443,23.451
	L101.443,23.451z M101.971,16.073c0-4.479-0.264-8.695-3.162-8.695c-2.107,0-2.635,3.425-2.635,9.485
	c0,5.27,0.527,8.695,2.635,8.695c1.845,0,3.162-3.952,3.162-7.905V16.073L101.971,16.073z"/>
<path fill-rule="evenodd" clip-rule="evenodd" d="M108.821,20.289h2.898c-0.264,6.061,3.952,6.061,5.007,6.061
	c1.844,0,3.688-1.581,3.688-3.163c0-4.743-10.54-2.898-10.54-10.276c0-3.425,2.636-6.06,6.588-6.06c6.323,0,7.114,3.688,7.114,5.006
	h-2.372c0.264-1.054-0.263-4.743-4.215-4.743c-3.426,0-3.162,2.635-3.162,2.898c0,4.743,11.33,2.898,11.33,10.013
	c0,3.425-3.162,6.324-7.114,6.587C110.93,26.876,108.821,21.87,108.821,20.289L108.821,20.289z"/>
<polygon fill-rule="evenodd" clip-rule="evenodd" points="58.495,27.931 63.501,27.931 63.501,28.721 61.394,28.721 61.394,33.99 
	60.339,33.99 60.339,28.721 58.495,28.721 58.495,27.931 "/>
<polygon fill-rule="evenodd" clip-rule="evenodd" points="69.825,33.99 69.825,27.931 74.304,27.931 74.304,28.721 70.615,28.721 
	70.615,30.565 74.041,30.565 74.041,31.092 70.615,31.092 70.615,33.2 74.304,33.2 74.304,33.99 69.825,33.99 "/>
<path fill-rule="evenodd" clip-rule="evenodd" d="M83.526,27.667c0.791,0,1.581,0.264,1.844,0.526
	c0.527,0.527,0.791,1.054,0.791,1.581h-0.791c0-0.527-0.263-0.79-0.527-1.054c-0.263-0.264-0.79-0.264-1.317-0.264
	c-0.527,0-1.054,0.264-1.317,0.527c-0.527,0.526-0.527,1.054-0.527,2.107c0,0.527,0,1.054,0.527,1.581
	C82.473,33.2,83,33.2,83.526,33.2c0.791,0,1.054,0,1.581-0.527c0-0.264,0.263-0.527,0.263-1.054h0.791
	c0,0.79-0.264,1.317-0.791,1.581c-0.263,0.526-1.054,0.79-1.844,0.79s-1.317-0.264-1.844-0.526
	c-0.527-0.527-1.054-1.581-1.054-2.636c0-0.79,0.264-1.581,0.791-2.107C81.945,27.931,82.736,27.667,83.526,27.667L83.526,27.667z"
	/>
<polygon fill-rule="evenodd" clip-rule="evenodd" points="92.748,33.99 92.748,27.931 93.539,27.931 93.539,30.302 96.965,30.302 
	96.965,27.931 97.755,27.931 97.755,33.99 96.965,33.99 96.965,31.092 93.539,31.092 93.539,33.99 92.748,33.99 "/>
<polygon fill-rule="evenodd" clip-rule="evenodd" points="108.295,33.99 108.295,27.931 109.085,27.931 112.247,32.673 
	112.247,27.931 113.037,27.931 113.037,33.99 112.247,33.99 109.085,28.984 109.085,33.99 108.295,33.99 "/>
<path fill-rule="evenodd" clip-rule="evenodd" d="M121.732,32.673c-0.264-0.527-0.527-1.054-0.527-1.581
	c0-1.054,0.264-1.581,0.527-2.107c0.527-0.264,1.054-0.527,1.581-0.527c0.79,0,1.317,0.264,1.581,0.527
	c0.527,0.526,0.527,1.054,0.527,1.844c0,0.527,0,1.317-0.527,1.845c-0.264,0.264-0.791,0.791-1.581,0.791
	S121.996,33.2,121.732,32.673L121.732,32.673z M120.942,28.721c-0.527,0.79-0.527,1.317-0.527,2.107
	c0,1.055,0.264,1.845,0.527,2.372c0.526,0.526,1.317,0.79,2.371,0.79s1.845-0.264,2.371-1.054c0.527-0.527,0.791-1.317,0.791-2.108
	c0-0.79-0.264-1.581-0.791-2.107c-0.526-0.527-1.317-1.054-2.371-1.054S121.469,28.193,120.942,28.721L120.942,28.721z"/>
<polygon fill-rule="evenodd" clip-rule="evenodd" points="133.59,33.99 133.59,27.931 134.38,27.931 134.38,33.2 137.542,33.2 
	137.542,33.99 133.59,33.99 "/>
<path fill-rule="evenodd" clip-rule="evenodd" d="M145.446,32.673c-0.263-0.527-0.526-1.054-0.526-1.581
	c0-1.054,0.264-1.581,0.79-2.107c0.264-0.264,0.791-0.527,1.317-0.527c0.791,0,1.317,0.264,1.581,0.527
	c0.527,0.526,0.79,1.054,0.79,1.844c0,0.527-0.263,1.317-0.526,1.845c-0.527,0.264-1.054,0.791-1.581,0.791
	C146.501,33.464,145.974,33.2,145.446,32.673L145.446,32.673z M144.656,28.721c-0.264,0.79-0.527,1.317-0.527,2.107
	c0,1.055,0.264,1.845,0.791,2.372c0.526,0.526,1.317,0.79,2.107,0.79c1.055,0,1.845-0.264,2.371-1.054
	c0.527-0.527,0.791-1.317,0.791-2.108c0-0.79-0.264-1.581-0.791-2.107c-0.526-0.527-1.316-1.054-2.371-1.054
	C145.974,27.667,145.184,28.193,144.656,28.721L144.656,28.721z"/>
<path fill-rule="evenodd" clip-rule="evenodd" d="M159.938,27.667c0.791,0,1.317,0.264,1.581,0.526
	c0.527,0.264,1.054,0.791,1.054,1.581h-0.79c0-0.527-0.264-0.79-0.527-1.054s-0.79-0.264-1.317-0.264
	c-0.526,0-1.054,0.264-1.317,0.527c-0.527,0.526-0.527,1.054-0.527,1.844c0,0.791,0,1.317,0.264,1.845
	c0.527,0.527,1.055,0.791,1.581,0.791c0.791,0,1.054-0.264,1.581-0.527c0.264-0.264,0.527-0.791,0.527-1.581h-2.108v-0.79h2.898
	v3.425h-0.526l-0.264-0.79c-0.264,0.264-0.527,0.526-0.791,0.526c-0.264,0.264-0.79,0.264-1.317,0.264
	c-0.79,0-1.317-0.264-1.845-0.526c-0.79-0.791-1.054-1.581-1.054-2.372c0-1.054,0.264-1.845,1.054-2.635
	C158.621,27.931,159.148,27.667,159.938,27.667L159.938,27.667z"/>
<polygon fill-rule="evenodd" clip-rule="evenodd" points="172.06,31.619 169.688,27.931 170.742,27.931 172.322,30.828 
	174.167,27.931 175.221,27.931 172.85,31.619 172.85,33.99 172.06,33.99 172.06,31.619 "/>
<path fill-rule="evenodd" clip-rule="evenodd" d="M1.581,5.27C1.317,5.006,1.054,3.689,1.054,3.689c0-0.791,0.264-1.054,0.264-1.054
	s4.479-2.371,12.384-2.371C16.336,0,20.289,0,24.505,1.318c0.263,0.263,0.527,0.527,0.527,0.79c0.263,0.527,0.263,1.054,0.263,1.317
	c0.264,1.054,0.264,1.845,0.264,2.372c0,0.264-0.527,1.054-0.527,1.317c-0.264,0.791,0.263,3.425,0,4.743
	c0,1.318-0.527,6.061-1.845,8.959c-1.054,3.162-3.162,2.635-4.215,2.635l5.006,10.54H0l3.689-18.444c0,0,0-0.527-0.527-0.791
	c-0.79-0.527-1.581-1.581-1.581-1.581S1.054,12.647,0.527,9.75c0,0-0.527-2.898,0-3.426c0.264-0.263,0.791-0.791,1.054-0.791V5.27
	L1.581,5.27z"/>
<path fill-rule="evenodd" clip-rule="evenodd" fill="#ED1C2E" d="M20.552,10.276L18.972,9.75c0,0-0.264,0-0.527,0.263
	c0,0.264-0.264,1.317-0.264,1.317s0,0,0,0.264l3.689,2.635c0,0-2.898-0.264-3.952-0.264c-1.054,0.264-2.898,1.318-4.216,1.582
	c-1.054,0.263-5.797,0.527-6.06,0.527L5.797,8.695c0,0-0.264-1.844-2.108-1.844c-1.581,0-1.844,0.263-1.844,0.527
	c-0.264,0.264,0,0.527,0,0.527l5.006,8.168c0,0-3.425-1.581-4.743-3.162c-0.791-1.054-1.317-5.533-0.791-6.324
	C1.581,6.061,4.479,5.27,5.533,5.533c0.527,0,1.054,0.527,1.317,1.054c0.264,0,0.264,0,0.264,0S6.851,5.006,5.797,5.006
	C3.952,4.743,2.372,5.27,2.372,5.27H2.108c0-0.264-0.263-1.845-0.263-1.845s0-0.263,0.263-0.527c0,0,4.743-2.108,11.857-2.108
	c0.791,0,7.378,0,10.54,1.317c0.263,0.264,0,1.054,0,1.845c-0.264,0.263-0.791,0.527-0.791,0.527c-0.263,0-0.527,0.527-0.527,0.527
	s0.527,6.06,0.791,6.324c0,0.264-0.264,0.264-1.054,0.264c-0.264,0-3.425,0-3.425,0s-0.791,0-0.791-0.527
	c0-0.263,0.264-0.79,0.264-0.79c0.263,0,0.79,0,0.79,0S21.079,10.276,20.552,10.276L20.552,10.276z"/>
<path fill-rule="evenodd" clip-rule="evenodd" fill="#ED1C2E" d="M15.546,15.546c0,0,3.162-0.527,6.587,0.263
	c0,0,0.791,0.527,0.791,1.054C22.924,16.863,17.654,17.127,15.546,15.546L15.546,15.546z"/>
<path fill-rule="evenodd" clip-rule="evenodd" fill="#ED1C2E" d="M15.81,20.816c0,0,0.791-3.689,6.851-3.162
	c0,0,0.527,0.264-0.791,1.581S17.917,21.343,15.81,20.816L15.81,20.816z"/>
<path fill-rule="evenodd" clip-rule="evenodd" d="M14.492,2.635c0,0,0.791,0,3.426,0.527c1.317,0.263,2.108,0.527,2.371,0.791
	c0.264,0,0.264,0.263,0,0.263c0,0.264-3.425-1.054-5.533-0.791c0,0-2.108,0.791-4.743,3.162c0,0-0.791,0-1.054,0
	C8.958,6.587,11.594,3.953,14.492,2.635L14.492,2.635z"/>
<path fill-rule="evenodd" clip-rule="evenodd" d="M12.121,6.324c0,0,2.108-1.054,3.425-1.317c1.054-0.263,1.844-0.263,2.372,0
	c0.527,0,1.054,1.317,1.054,1.581c0,0-1.582,0.791-3.162,0.527C14.492,6.851,12.911,6.851,12.121,6.324L12.121,6.324z"/>
<path fill-rule="evenodd" clip-rule="evenodd" fill="#ED1C2E" d="M24.505,4.743c0.263,0,0.263,0,0.527,0.263
	c0.263,0,0,0.527,0,0.527c0,0.264-0.264,0-1.318,0C23.714,5.533,24.241,4.743,24.505,4.743L24.505,4.743z"/>
<polygon fill-rule="evenodd" clip-rule="evenodd" fill="#ED1C2E" points="4.479,15.546 6.587,17.127 10.276,33.2 1.054,33.2 
	4.479,15.546 "/>
<path fill-rule="evenodd" clip-rule="evenodd" fill="#ED1C2E" d="M9.749,23.451c0,0,4.479,2.899,5.27,3.953l0.527,6.061h-3.425
	L9.749,23.451L9.749,23.451z"/>
<path fill-rule="evenodd" clip-rule="evenodd" fill="#ED1C2E" d="M17.654,28.984c0,0,2.635,2.635,3.425,4.479H16.6L17.654,28.984
	L17.654,28.984z"/>
<path fill-rule="evenodd" clip-rule="evenodd" fill="#FFFFFF" d="M21.343,5.27c0,0,0.264-0.264,0.264,0.263
	c0.263,1.318,0.79,4.479,0.79,4.743c0,0.527-0.527,0.263-0.527,0.263L21.343,5.27L21.343,5.27z"/>
<path fill-rule="evenodd" clip-rule="evenodd" fill="#FFFFFF" d="M11.857,0.791c0,0,0,0,0.264,0l1.317,2.372l-0.527,0.263
	L11.857,0.791L11.857,0.791z"/>
<path fill-rule="evenodd" clip-rule="evenodd" fill="#FFFFFF" d="M5.797,8.695c0,0-0.527-1.581,0.527-1.844
	c1.054-0.264,2.372-0.264,4.216-0.264c0,0-2.635,0.527-3.425,0.791C6.06,7.642,5.797,8.695,5.797,8.695L5.797,8.695z"/>
<path fill-rule="evenodd" clip-rule="evenodd" fill="#020202" d="M173.66,6.615c0.127,0,0.283,0.026,0.283,0.171
	c0,0.184-0.1,0.224-0.255,0.224h-0.028v0.486l0.27,0.486h0.411l-0.426-0.723c0.227-0.013,0.396-0.131,0.396-0.434
	c0-0.368-0.241-0.486-0.651-0.5V6.615L173.66,6.615z M173.66,8.693V8.338c0.581-0.013,1.063-0.486,1.063-1.184
	c0-0.697-0.482-1.157-1.063-1.17V5.629c0.794,0.013,1.517,0.565,1.517,1.525C175.177,8.114,174.454,8.68,173.66,8.693L173.66,8.693z
	 M173.376,7.01V6.615h0.256c0,0,0.014,0,0.028,0V6.326h-0.015h-0.624v1.657h0.354V7.286h0.17l0.114,0.21V7.01H173.376L173.376,7.01z
	 M173.66,5.629v0.355c-0.015,0-0.015,0-0.028,0c-0.61,0-1.092,0.473-1.092,1.17c0,0.71,0.481,1.184,1.092,1.184
	c0.014,0,0.014,0,0.028,0v0.355c-0.015,0-0.015,0-0.028,0c-0.809,0-1.546-0.565-1.546-1.539c0-0.959,0.737-1.525,1.546-1.525
	C173.646,5.629,173.646,5.629,173.66,5.629L173.66,5.629z"/>
</svg>
