<?xml version="1.0" encoding="UTF-8" standalone="no"?>
<!-- Created with Inkscape (http://www.inkscape.org/) -->
<svg
   xmlns:dc="http://purl.org/dc/elements/1.1/"
   xmlns:cc="http://web.resource.org/cc/"
   xmlns:rdf="http://www.w3.org/1999/02/22-rdf-syntax-ns#"
   xmlns:svg="http://www.w3.org/2000/svg"
   xmlns="http://www.w3.org/2000/svg"
   xmlns:sodipodi="http://sodipodi.sourceforge.net/DTD/sodipodi-0.dtd"
   xmlns:inkscape="http://www.inkscape.org/namespaces/inkscape"
   id="svg2"
   sodipodi:version="0.32"
   inkscape:version="0.45.1"
   width="3150"
   height="630"
   version="1.0"
   sodipodi:docbase="/home/frambo/Scrivania"
   sodipodi:docname="Ericsson_logo_black.svg"
   inkscape:output_extension="org.inkscape.output.svg.inkscape">
  <metadata
     id="metadata7">
    <rdf:RDF>
      <cc:Work
         rdf:about="">
        <dc:format>image/svg+xml</dc:format>
        <dc:type
           rdf:resource="http://purl.org/dc/dcmitype/StillImage" />
      </cc:Work>
    </rdf:RDF>
  </metadata>
  <defs
     id="defs5" />
  <sodipodi:namedview
     inkscape:window-height="632"
     inkscape:window-width="874"
     inkscape:pageshadow="2"
     inkscape:pageopacity="0.0"
     guidetolerance="10.0"
     gridtolerance="10.0"
     objecttolerance="10.0"
     borderopacity="1.0"
     bordercolor="#666666"
     pagecolor="#ffffff"
     id="base"
     width="3150px"
     height="630px"
     inkscape:zoom="0.2369146"
     inkscape:cx="1633.5"
     inkscape:cy="334.5"
     inkscape:window-x="216"
     inkscape:window-y="175"
     inkscape:current-layer="svg2" />
  <path
     style="fill:#000000"
     d="M 2724.575,627.87213 C 2700.1169,623.77749 2680.5952,606.07658 2674.4606,582.43188 C 2672.4102,574.52906 2672.4279,558.21591 2674.4954,550.4664 C 2679.1738,532.92965 2691.7947,517.77376 2707.6184,510.6902 C 2718.089,506.00298 3066.326,378.22131 3071.7992,377.0581 C 3078.9987,375.52802 3090.0995,375.66983 3098.2448,377.39594 C 3106.5875,379.16386 3118.8088,385.41756 3125.6897,391.43954 C 3132.3233,397.24515 3139.5325,408.09176 3142.8484,417.25573 C 3145.114,423.51692 3145.4485,426.02564 3145.4725,436.93188 C 3145.4957,447.49555 3145.1258,450.57443 3143.0842,456.80759 C 3138.0119,472.29362 3126.2827,485.77319 3111.6897,492.88715 C 3107.1854,495.08298 3024.2948,526.09003 2927.4885,561.79171 C 2801.1193,608.39601 2749.4519,627.01804 2744.2969,627.81786 C 2736.2516,629.06614 2731.7806,629.07844 2724.575,627.87213 z M 950.2578,534.35545 C 909.29775,529.39332 871.87671,513.89012 844.98362,490.74132 C 803.33734,454.8934 784.36002,395.46636 793.63103,329.93188 C 800.2114,283.4169 823.14309,245.96146 860.4528,220.78868 C 912.63355,185.58245 990.5884,178.52476 1064.4055,202.3237 L 1077.5,206.54542 L 1077.2716,210.48865 C 1076.9081,216.76655 1071.7885,277.41083 1071.6035,277.6304 C 1071.5115,277.73959 1066.9506,275.63499 1061.4681,272.95353 C 1048.9019,266.80739 1033.6111,261.71127 1018.9259,258.77503 C 1003.9159,255.77383 977.9248,255.53858 965.2039,258.28878 C 920.54464,267.94397 893.85829,295.63528 886.43616,340.0228 C 884.14812,353.70628 884.88633,380.93824 887.84331,391.93188 C 894.40628,416.33202 904.28463,431.53609 922.38538,445.09671 C 957.5407,471.43419 1016.5849,474.62029 1066.1735,452.85571 C 1070.0533,451.15286 1073.5582,450.13587 1073.962,450.59574 C 1074.7824,451.52987 1079.3075,520.95775 1078.5944,521.67077 C 1076.1531,524.11216 1038.3767,532.17277 1019,534.38687 C 1002.3471,536.28972 966.0875,536.27315 950.2578,534.35545 z M 1800.3252,533.83641 C 1762.0666,529.37855 1730.9852,515.03002 1706.4339,490.492 C 1675.0759,459.15109 1660,417.10824 1660,360.9996 C 1660,270.50706 1700.4602,210.96358 1774.858,191.96812 C 1802.3431,184.95058 1837.4309,184.37535 1867.6016,190.4477 C 1902.8117,197.53432 1933.4271,215.26056 1953.5126,240.19 C 1970.3891,261.13644 1981.5402,287.00901 1987.0194,317.93188 C 1990.1839,335.79165 1990.9432,373.03116 1988.5295,391.99627 C 1980.0969,458.25348 1944.7549,504.84345 1887.4602,525.2321 C 1878.0256,528.58944 1859.7064,532.58125 1847.7894,533.87647 C 1836.6434,535.08789 1810.8791,535.06614 1800.3252,533.83641 z M 1839.455,467.40159 C 1872.6342,458.75951 1894.7945,420.02867 1896.7249,367.30794 C 1898.7176,312.88634 1875.7509,266.92781 1841,255.79695 C 1831.0805,252.61971 1816.9187,252.83208 1806.6722,256.31173 C 1787.0232,262.98436 1772.8541,277.99338 1763.133,302.43188 C 1747.2617,342.33175 1749.3749,394.6026 1768.3483,431.43188 C 1772.5673,439.62146 1775.1294,443.08 1782.5,450.53543 C 1791.881,460.0244 1799.1188,464.52983 1809.6081,467.40986 C 1816.4023,469.27537 1832.278,469.27097 1839.455,467.40159 z M 1191,532.31577 C 1164.5342,529.24482 1155.0619,527.63623 1134.6259,522.74232 L 1117.7517,518.70138 L 1118.311,513.56663 C 1118.6186,510.74252 1120.0663,494.93188 1121.5282,478.43188 C 1122.99,461.93188 1124.3416,447.9047 1124.5316,447.26037 C 1124.76,446.48546 1128.5371,447.53222 1135.6885,450.35237 C 1165.2618,462.01459 1195.0265,467.763 1219.9933,466.63397 C 1251.5398,465.20741 1268.2069,453.43765 1268.4267,432.43188 C 1268.4886,426.51821 1268.0734,424.70615 1265.751,420.7555 C 1259.6742,410.41821 1250.4553,405.68402 1210.8784,392.57683 C 1181.0115,382.68541 1166.2748,376.44104 1153.8892,368.42883 C 1138.6639,358.57962 1126.0629,343.54792 1120.1997,328.24068 C 1115.362,315.61078 1114.5125,310.03527 1114.5913,291.43188 C 1114.6726,272.24586 1116.2095,264.38898 1122.4638,251.18774 C 1138.784,216.73996 1176.3619,195.40125 1230.4187,189.88522 C 1247.242,188.16854 1278.5618,189.12511 1297.5,191.934 C 1310.7183,193.89453 1342.2936,200.8921 1343.5383,202.13681 C 1343.7917,202.39027 1342.6493,217.75095 1340.9996,236.27164 C 1339.3498,254.79233 1338,270.13825 1338,270.37368 C 1338,270.60912 1334.7375,269.30317 1330.75,267.47158 C 1302.6931,254.58414 1261.2687,249.80868 1235.4175,256.48154 C 1227.7656,258.45668 1218.4004,262.85126 1214.1071,266.48137 C 1203.7558,275.23368 1203.4707,292.24466 1213.5071,302.2811 C 1221.4701,310.24406 1231.8314,314.51815 1268.3935,324.92197 C 1303.4103,334.88606 1322.0499,343.98182 1335.9621,357.894 C 1351.2752,373.20704 1358.5323,391.57598 1359.6815,417.93188 C 1362.3661,479.49444 1328.6161,517.86245 1261,530.11625 C 1251.5027,531.8374 1244.7109,532.24576 1222,532.46112 C 1206.875,532.60454 1192.925,532.53913 1191,532.31577 z M 1464,532.31929 C 1448.7199,530.56167 1433.9297,528.43707 1425.5,526.78877 C 1415.3749,524.80897 1391.8353,519.10046 1391.2074,518.4726 C 1390.8289,518.09416 1396.9374,449.12706 1397.5147,447.26037 C 1397.7547,446.48445 1401.6966,447.59591 1409.1885,450.55188 C 1438.3286,462.04929 1468.0885,467.7602 1492.9933,466.63397 C 1517.284,465.53552 1532.1578,458.64508 1538.4139,445.59242 C 1546.2809,429.1786 1540.068,415.30693 1520.6758,405.98857 C 1516.1791,403.8278 1499.675,397.82237 1484,392.64316 C 1443.6932,379.32532 1427.3177,371.1564 1412.6541,357.05238 C 1401.2326,346.06671 1394.1531,334.08127 1389.8419,318.43188 C 1387.94,311.52818 1387.6367,307.89669 1387.6285,291.93188 C 1387.6197,274.6581 1387.798,272.84882 1390.3186,264.63529 C 1403.4705,221.78035 1442.4936,195.98246 1503.4187,189.86564 C 1520.2359,188.17721 1551.6463,189.1405 1570.5,191.92287 C 1583.0504,193.77503 1615.3726,200.97118 1616.5845,202.18302 C 1616.7824,202.38092 1615.6068,217.5579 1613.9721,235.90964 C 1612.3375,254.26139 1611,269.61964 1611,270.0391 C 1611,270.45855 1607.7375,269.30317 1603.75,267.47158 C 1581.6399,257.31567 1548.2781,251.56072 1525.0029,253.88759 C 1511.4794,255.23956 1504.341,257.06324 1495.304,261.47484 C 1483.2791,267.3451 1478.0808,275.73704 1479.2789,287.34531 C 1479.9606,293.95053 1481.9387,297.90415 1487.0373,302.85218 C 1494.7551,310.34206 1505.5111,314.71058 1541.5,324.97201 C 1571.7243,333.5898 1588.3152,340.97927 1602.2068,352.01035 C 1615.9458,362.92017 1625.664,378.36075 1630.1655,396.43188 C 1632.083,404.1293 1632.4075,408.1094 1632.4075,423.93188 C 1632.4075,439.66509 1632.0778,443.75248 1630.2034,451.26204 C 1625.3068,470.87992 1618.4157,483.49421 1605.5,496.48231 C 1588.2253,513.85377 1565.9712,524.32224 1534,530.11625 C 1524.5027,531.8374 1517.7109,532.24576 1495,532.46112 C 1479.875,532.60454 1465.925,532.54072 1464,532.31929 z M 328,363.38795 L 328,196.84401 L 419.75,197.19253 C 509.03329,197.53167 511.74942,197.59812 520.77725,199.664 C 561.83544,209.05954 585.22607,228.77722 594.15744,261.52155 C 597.28226,272.97781 597.32921,298.63797 594.24802,311.02871 C 588.88046,332.61392 578.43148,346.61192 559.73186,357.26835 C 555.64079,359.59975 549.7525,362.37098 546.64677,363.42665 C 543.54105,364.48232 541,365.60053 541,365.91156 C 541,366.22259 542.68234,367.3669 544.73852,368.45448 C 550.82239,371.67239 560.16795,381.7766 564.14091,389.43188 C 566.13899,393.28188 577.24409,422.75688 588.81891,454.93188 C 600.39373,487.10688 611.23331,517.14438 612.90687,521.68188 L 615.94969,529.93188 L 567.72485,529.91658 L 519.5,529.90128 L 502.11127,478.66658 C 492.54747,450.4875 483.56656,425.25417 482.15371,422.59252 C 478.63894,415.97114 470.25664,408.53031 463.76154,406.26608 C 459.30472,404.71241 455.28819,404.43188 437.5,404.43188 L 416.5,404.43188 L 416.24249,467.18188 L 415.98497,529.93188 L 371.99249,529.93188 L 328,529.93188 L 328,363.38795 z M 482.15254,334.12707 C 498.0951,327.7361 506.61699,314.7792 505.85282,298.09258 C 505.24479,284.81568 498.18435,273.72474 486.5,267.69207 C 478.24472,263.42983 473.93062,262.9562 443.25,262.94375 L 414,262.93188 L 414,299.99618 L 414,337.06049 L 445.25,336.72676 C 474.97666,336.4093 476.77554,336.28258 482.15254,334.12707 z M 657,363.43188 L 657,196.93188 L 702.5,196.93188 L 748,196.93188 L 748,363.43188 L 748,529.93188 L 702.5,529.93188 L 657,529.93188 L 657,363.43188 z M 2033,363.42376 L 2033,196.91563 L 2090.7104,197.17376 L 2148.4208,197.43188 L 2202.4604,303.58024 L 2256.5,409.72859 L 2256.7545,303.33024 L 2257.009,196.93188 L 2299.0045,196.93188 L 2341,196.93188 L 2341,363.43188 L 2341,529.93188 L 2286.7484,529.93188 L 2232.4967,529.93188 L 2174.9984,420.87647 L 2117.5,311.82106 L 2117.2456,420.87647 L 2116.9912,529.93188 L 2074.9956,529.93188 L 2033,529.93188 L 2033,363.42376 z M 8,362.93188 L 8,196.93188 L 135,196.93188 L 262,196.93188 L 262,231.43188 L 262,265.93188 L 180,265.93188 L 98,265.93188 L 98,295.93188 L 98,325.93188 L 177,325.93188 L 256,325.93188 L 256,361.93188 L 256,397.93188 L 177,397.93188 L 98,397.93188 L 98,428.43188 L 98,458.93188 L 181.5,458.93188 L 265,458.93188 L 265,493.93188 L 265,528.93188 L 136.5,528.93188 L 8,528.93188 L 8,362.93188 z M 2727.5,443.30604 C 2716.7029,441.17987 2713.7057,440.33646 2708.5,437.95954 C 2694.0476,431.36057 2682.7727,419.42116 2676.8383,404.43188 C 2674.062,397.41917 2673.6157,394.9469 2673.2221,384.39917 C 2672.8834,375.32312 2673.1756,370.79507 2674.4114,365.97141 C 2678.7643,348.98041 2690.3841,334.2934 2705.5057,326.66953 C 2713.8049,322.48529 3066.1513,193.19949 3072.844,191.88279 C 3081.9806,190.08528 3095.9147,191.10139 3104.8068,194.21359 C 3147.707,209.22862 3160.1417,263.74403 3128.0181,295.97517 C 3123.4413,300.56735 3118.0517,304.7976 3114.2421,306.78804 C 3110.8002,308.5863 3027.7632,339.67907 2929.7154,375.88307 C 2801.7056,423.15051 2749.4267,442.02195 2744.2818,442.82021 C 2737.2328,443.9139 2731.4387,444.08164 2727.5,443.30604 z M 2727.3521,257.79354 C 2718.5478,257.00624 2714.6206,255.77819 2704.8839,250.7676 C 2682.7365,239.37044 2670.3293,215.14577 2673.1446,188.7976 C 2675.3399,168.2513 2688.3958,149.53684 2706.5,140.9855 C 2714.7788,137.0751 3063.1794,8.931429 3070,7.2881893 C 3077.3962,5.5062793 3092.2188,5.5859193 3099.5399,7.4469093 C 3102.818,8.280179 3108.865,10.605429 3112.9778,12.614139 C 3122.2759,17.155359 3133.9599,28.475769 3138.7845,37.617929 C 3145.4635,50.273879 3147.6214,66.616769 3144.5359,81.176719 C 3141.0289,97.726029 3127.6886,115.07566 3112.9537,122.2509 C 3107.2135,125.04607 2761.5424,253.22475 2751.1889,256.39727 C 2746.8947,257.7131 2734.5433,258.4366 2727.3521,257.79354 z "
     id="path2163" />
</svg>
