<?xml version="1.0" encoding="UTF-8" standalone="no"?>
<!-- Created with Inkscape (http://www.inkscape.org/) -->
<svg
   xmlns:dc="http://purl.org/dc/elements/1.1/"
   xmlns:cc="http://web.resource.org/cc/"
   xmlns:rdf="http://www.w3.org/1999/02/22-rdf-syntax-ns#"
   xmlns:svg="http://www.w3.org/2000/svg"
   xmlns="http://www.w3.org/2000/svg"
   xmlns:sodipodi="http://sodipodi.sourceforge.net/DTD/sodipodi-0.dtd"
   xmlns:inkscape="http://www.inkscape.org/namespaces/inkscape"
   width="743.69263"
   height="162.84244"
   id="svg1968"
   sodipodi:version="0.32"
   inkscape:version="0.44"
   version="1.0"
   sodipodi:docbase="C:\Dokumente und Einstellungen\Andreas\Eigene Dateien\Eigene Bilder\sonstiges\Logos\Vektor\Computer, Electronics"
   sodipodi:docname="maxtor.svg">
  <defs
     id="defs1970" />
  <sodipodi:namedview
     id="base"
     pagecolor="#ffffff"
     bordercolor="#666666"
     borderopacity="1.0"
     inkscape:pageopacity="0.0"
     inkscape:pageshadow="2"
     inkscape:zoom="0.35"
     inkscape:cx="350"
     inkscape:cy="520"
     inkscape:document-units="px"
     inkscape:current-layer="layer1"
     inkscape:window-width="904"
     inkscape:window-height="574"
     inkscape:window-x="92"
     inkscape:window-y="92" />
  <metadata
     id="metadata1973">
    <rdf:RDF>
      <cc:Work
         rdf:about="">
        <dc:format>image/svg+xml</dc:format>
        <dc:type
           rdf:resource="http://purl.org/dc/dcmitype/StillImage" />
      </cc:Work>
    </rdf:RDF>
  </metadata>
  <g
     inkscape:label="Ebene 1"
     inkscape:groupmode="layer"
     id="layer1"
     transform="translate(280.4178,-402.3695)">
    <g
       id="g1964"
       transform="matrix(7.871232,0,0,7.871232,-280.4139,402.2869)">
      <path
         id="path21"
         class="ps01"
         d="M 92.650416,5.653748 C 93.638018,5.653748 94.481872,4.874996 94.481872,3.80962 C 94.481872,2.75506 93.638018,1.976308 92.650416,1.976308 C 91.654828,1.976308 90.810974,2.75506 90.810974,3.80962 C 90.810974,4.874996 91.654828,5.653748 92.650416,5.653748 M 91.175668,3.80962 C 91.175668,2.938932 91.822534,2.28186 92.650416,2.28186 C 93.470312,2.28186 94.117178,2.938932 94.117178,3.80962 C 94.117178,4.693828 93.470312,5.348196 92.650416,5.348196 C 91.822534,5.348196 91.175668,4.693828 91.175668,3.80962 M 92.267088,3.955636 L 92.631782,3.955636 L 93.182816,4.874996 L 93.536862,4.874996 L 92.943236,3.942116 C 93.249366,3.901556 93.483622,3.736612 93.483622,3.358052 C 93.483622,2.938932 93.24138,2.75506 92.746248,2.75506 L 91.952972,2.75506 L 91.952972,4.874996 L 92.267088,4.874996 L 92.267088,3.955636 z M 92.267088,3.682532 L 92.267088,3.02546 L 92.698332,3.02546 C 92.919278,3.02546 93.153534,3.074132 93.153534,3.33642 C 93.153534,3.663604 92.913954,3.682532 92.645092,3.682532 L 92.267088,3.682532 z "
         style="fill:#004b93;fill-rule:evenodd;stroke:none" />
      <path
         d="M 33.966626,11.964884 C 34.267432,11.386228 34.179586,10.429012 34.179586,10.429012 C 33.846836,10.712932 32.223016,10.850836 31.970126,10.872468 C 31.624066,10.896804 31.2434,10.942772 30.199896,10.980628 C 29.997584,10.986036 29.185674,10.877876 28.709176,11.572804 C 28.46161,11.93514 28.520174,12.432676 28.669246,12.765268 C 28.828966,13.116788 29.175026,13.343924 29.680806,13.522388 C 30.32501,13.744116 31.19016,13.65218 32.076606,13.465604 C 33.234576,13.170868 33.780286,12.321812 33.966626,11.964884 M 23.744546,8.179284 L 23.744546,11.129348 C 24.17579,10.266772 24.756106,9.871988 25.661186,9.466388 C 27.125286,8.844468 29.545044,8.64978 29.933696,8.628148 C 31.435064,8.54162 32.704838,8.628148 33.530058,8.628148 C 34.355278,8.628148 34.230164,7.87914 34.035838,7.530324 C 33.766976,7.049012 33.061546,6.640708 32.569076,6.546068 C 31.719898,6.37842 31.198146,6.367604 30.585886,6.448724 C 29.321436,6.610964 28.962066,7.21666 28.828966,7.395124 C 28.56809,7.749348 28.562766,8.179284 28.562766,8.179284 L 23.744546,8.179284 z M 58.94151,16.402148 C 57.919302,16.402148 57.014222,16.093892 56.404624,15.553092 C 55.795026,15.012292 55.821646,14.306548 55.821646,14.306548 L 55.821646,11.223988 L 55.821646,7.762868 L 53.694708,7.762868 L 53.694708,6.816468 L 50.641394,9.777348 L 49.182618,9.777348 C 49.182618,9.777348 48.588992,9.763828 48.179044,9.834132 C 47.577432,9.936884 47.423036,10.101828 47.423036,10.101828 C 47.423036,10.101828 47.577432,10.269476 48.179044,10.369524 C 48.588992,10.439828 49.182618,10.429012 49.182618,10.429012 L 50.774494,10.429012 L 61.366592,20.698804 L 54.836706,20.698804 L 47.423036,13.525092 L 47.420374,12.216356 C 47.420374,12.216356 47.433684,11.616068 47.364472,11.199652 C 47.263316,10.588548 47.100934,10.429012 47.100934,10.429012 C 47.100934,10.429012 46.93589,10.588548 46.837396,11.199652 C 46.768184,11.616068 46.778832,12.216356 46.778832,12.216356 L 46.778832,13.525092 L 39.3625,20.698804 L 32.832614,20.698804 L 37.264844,16.402148 L 34.179586,16.402148 L 34.179586,14.682404 C 34.179586,14.682404 31.93552,16.796932 28.78105,16.753668 C 25.597298,16.704996 23.744546,14.739188 23.744546,14.739188 L 23.744546,16.402148 L 18.180966,16.402148 L 18.180966,7.222068 L 13.975006,16.402148 L 9.769046,16.402148 L 5.563086,7.222068 L 5.563086,16.402148 L -0.000494,16.402148 L -0.000494,0.0105 L 7.280076,0.0105 L 11.872026,10.520948 L 16.463976,0.0105 L 23.744546,0.0105 L 23.744546,7.557364 C 23.744546,7.557364 24.130536,5.907924 26.060486,4.826324 C 27.804096,3.879924 30.213206,3.869108 30.412856,3.869108 C 30.931946,3.869108 32.965714,3.71498 35.255034,4.09354 C 36.200044,4.24226 37.28614,4.520772 37.88509,4.885812 C 38.28439,5.102132 39.303936,5.799764 39.357176,6.976004 L 39.357176,14.374148 L 43.427374,10.429012 L 45.01925,10.429012 C 45.01925,10.429012 45.610214,10.439828 46.020162,10.369524 C 46.621774,10.269476 46.778832,10.101828 46.778832,10.101828 C 46.778832,10.101828 46.621774,9.936884 46.020162,9.834132 C 45.610214,9.763828 45.01925,9.777348 45.01925,9.777348 L 43.560474,9.777348 L 38.13798,4.518068 L 44.689162,4.518068 L 46.778832,6.54066 L 46.778832,7.9873 C 46.778832,7.9873 46.768184,8.590292 46.837396,9.004004 C 46.93589,9.615108 47.100934,9.774644 47.100934,9.774644 C 47.100934,9.774644 47.263316,9.615108 47.364472,9.004004 C 47.433684,8.590292 47.420374,7.9873 47.420374,7.9873 L 47.420374,6.54066 L 49.510044,4.518068 L 53.694708,4.518068 L 55.821646,4.518068 L 55.821646,0.84874 L 60.940672,0.84874 L 60.940672,4.518068 L 63.062286,4.518068 L 63.062286,7.762868 L 60.940672,7.762868 L 60.940672,12.632772 C 60.940672,12.632772 60.940672,13.141124 61.12435,13.338516 C 61.29738,13.527796 61.56358,13.525092 61.56358,13.525092 L 63.059624,13.525092 L 63.059624,16.402148 L 58.94151,16.402148 z M 68.1121,10.46146 C 68.1121,12.316404 69.653398,13.822532 71.556728,13.822532 C 73.460058,13.822532 75.004018,12.316404 75.004018,10.46146 C 75.004018,8.606516 73.460058,7.103092 71.556728,7.103092 C 69.653398,7.103092 68.1121,8.606516 68.1121,10.46146 M 79.872816,4.528884 L 85.356536,4.528884 L 85.356536,6.248628 C 85.849006,5.572628 86.421336,5.218404 86.967046,4.880404 C 87.565996,4.518068 88.537626,4.085428 89.615736,4.031348 L 89.615736,9.101348 C 89.615736,9.101348 88.790516,8.882324 87.406276,9.139204 C 86.740776,9.250068 85.809076,9.520468 85.356536,10.101828 L 85.356536,16.402148 L 79.872816,16.402148 L 79.872816,13.13842 C 78.456632,15.444932 75.267556,17.056516 71.556728,17.056516 C 66.533534,17.056516 62.463336,14.103748 62.463336,10.46146 C 62.463336,6.819172 66.533534,3.869108 71.556728,3.869108 C 75.267556,3.869108 78.456632,5.477988 79.872816,7.787204 L 79.872816,4.528884 z "
         style="fill:#004b93;fill-rule:nonzero;stroke:none"
         id="path23" />
    </g>
  </g>
</svg>
