<?xml version="1.0" encoding="UTF-8" standalone="no"?>
<!-- Generator: Adobe Illustrator 12.0.0, SVG Export Plug-In . SVG Version: 6.00 Build 51448)  -->

<svg
   xmlns:dc="http://purl.org/dc/elements/1.1/"
   xmlns:cc="http://creativecommons.org/ns#"
   xmlns:rdf="http://www.w3.org/1999/02/22-rdf-syntax-ns#"
   xmlns:svg="http://www.w3.org/2000/svg"
   xmlns="http://www.w3.org/2000/svg"
   xmlns:sodipodi="http://sodipodi.sourceforge.net/DTD/sodipodi-0.dtd"
   xmlns:inkscape="http://www.inkscape.org/namespaces/inkscape"
   version="1.1"
   id="Layer_1"
   width="348.492"
   height="88.530998"
   viewBox="0 0 348.492 88.530998"
   overflow="visible"
   enable-background="new 0 0 364 106"
   xml:space="preserve"
   sodipodi:docname="Logo_of_the_Eastman_Kodak_Company_(2006–2016).svg"
   style="overflow:visible"
   inkscape:version="0.92.4 (5da689c313, 2019-01-14)"><metadata
   id="metadata19"><rdf:RDF><cc:Work
       rdf:about=""><dc:format>image/svg+xml</dc:format><dc:type
         rdf:resource="http://purl.org/dc/dcmitype/StillImage" /><dc:title></dc:title></cc:Work></rdf:RDF></metadata><defs
   id="defs17" /><sodipodi:namedview
   pagecolor="#ffffff"
   bordercolor="#666666"
   borderopacity="1"
   objecttolerance="10"
   gridtolerance="10"
   guidetolerance="10"
   inkscape:pageopacity="0"
   inkscape:pageshadow="2"
   inkscape:window-width="1920"
   inkscape:window-height="1096"
   id="namedview15"
   showgrid="false"
   fit-margin-top="0"
   fit-margin-left="0"
   fit-margin-right="0"
   fit-margin-bottom="0"
   inkscape:zoom="2.4399069"
   inkscape:cx="220.0775"
   inkscape:cy="-75.897334"
   inkscape:window-x="-8"
   inkscape:window-y="-8"
   inkscape:window-maximized="1"
   inkscape:current-layer="Layer_1" />
<g
   id="g4535"
   transform="translate(-7.754,-8.735)"><g
     id="g12">
	<polygon
   id="polygon2"
   points="27.882,45.612 55.149,11.357 79.922,11.357 48.384,50.748 81.47,95.541 55.149,95.541 27.882,58.039 27.882,95.541 7.754,95.541 7.754,11.357 27.882,11.357 "
   style="clip-rule:evenodd;fill:#da0029;fill-rule:evenodd" />
	<polygon
   id="polygon4"
   points="312.141,58.586 331.965,33.614 354.139,33.614 330.361,63.141 356.246,95.541 331.778,95.541 312.141,70.604 312.141,95.541 292.012,95.541 292.012,8.735 312.141,8.735 "
   style="clip-rule:evenodd;fill:#da0029;fill-rule:evenodd" />
	<path
   id="path6"
   d="m 110.09,31.6 c 22.113,0 33.958,14.704 33.958,32.832 0,18.131 -11.667,32.834 -33.958,32.834 -22.291,0 -33.959,-14.703 -33.959,-32.834 0,-18.128 11.845,-32.832 33.959,-32.832 z m 0,15.575 c 10.043,0 15.421,7.729 15.421,17.257 0,9.529 -5.299,17.256 -15.421,17.256 -10.124,0 -15.423,-7.727 -15.423,-17.256 0,-9.528 5.377,-17.257 15.423,-17.257 z"
   inkscape:connector-curvature="0"
   style="clip-rule:evenodd;fill:#da0029;fill-rule:evenodd" />
	<path
   id="path8"
   d="m 183.416,31.6 c 5.459,0 10.483,1.443 14.304,3.877 V 8.735 h 19.283 v 55.697 0 c 0,18.131 -11.42,32.834 -33.587,32.834 -22.167,0 -33.768,-14.703 -33.768,-32.834 0,-18.128 11.777,-32.832 33.768,-32.832 z m 0,15.575 c 9.991,0 15.337,7.729 15.337,17.257 0,9.529 -5.269,17.256 -15.337,17.256 -10.065,0 -15.336,-7.727 -15.336,-17.256 0,-9.528 5.348,-17.257 15.336,-17.257 z"
   inkscape:connector-curvature="0"
   style="clip-rule:evenodd;fill:#da0029;fill-rule:evenodd" />
	<path
   id="path10"
   d="m 222.957,74.904 c 0,-15.705 11.016,-19.781 28.931,-19.781 h 14.478 c 0,-7.248 -4.993,-9.596 -14.315,-9.596 -8.196,0 -15.533,1.575 -18.744,3.55 V 34.474 c 5.479,-2.312 15.179,-3.142 22.173,-3.142 18.207,0 28.14,7.459 28.14,24.862 v 18.174 c 0,12.836 -11.799,22.898 -29.893,22.898 -19.627,0 -30.77,-8.414 -30.77,-22.362 z m 17.253,-0.8 c 0,-5.191 4.46,-6.709 12.187,-6.709 h 13.969 v 6.529 c 0,4.354 -5.088,7.764 -12.891,7.764 -8.461,0 -13.265,-2.717 -13.265,-7.584 z"
   inkscape:connector-curvature="0"
   style="clip-rule:evenodd;fill:#da0029;fill-rule:evenodd" />
</g></g>
</svg>