<?xml version="1.0" encoding="UTF-8" standalone="no"?>
<!-- Created with Inkscape (http://www.inkscape.org/) -->
<svg
   xmlns:svg="http://www.w3.org/2000/svg"
   xmlns="http://www.w3.org/2000/svg"
   version="1.0"
   width="708.66138"
   height="270.39981"
   id="svg2453">
  <defs
     id="defs2455"><clipPath
   id="clp9">
<path
   d="M 0,183.78 L 0,0 L 221.69,0 L 221.69,183.78"
   id="path2797" />

</clipPath>
<clipPath
   id="clp8">
<path
   d="M 0,183.78 L 0,0 L 221.69,0 L 221.69,183.78"
   id="path2787" />

</clipPath>















<clipPath
   id="clipPath3264">
<path
   d="M 0,183.78 L 0,0 L 221.69,0 L 221.69,183.78"
   id="path3266" />

</clipPath>



<clipPath
   id="clipPath3256">
<path
   d="M 0,183.78 L 0,0 L 221.69,0 L 221.69,183.78"
   id="path3258" />

</clipPath>






</defs>
  <g
     transform="translate(1584.304,-1548.686)"
     id="layer1">
    <g
       id="g15434">
      <path
         d="M -875.64264,1819.0858 L -1584.304,1819.0858 L -1584.304,1548.686 L -875.64264,1548.686 L -875.64264,1819.0858 z "
         style="fill:#f0e91b;fill-rule:nonzero;stroke:none"
         id="path15167" />
      <path
         d="M -1527.5583,1702.6912 C -1528.218,1706.1223 -1528.218,1709.4874 -1527.5583,1712.7207 C -1526.2386,1729.9423 -1518.9804,1743.7989 -1507.1034,1754.2243 C -1494.5666,1764.7816 -1478.0707,1769.9942 -1458.2757,1769.7963 C -1419.3456,1767.6188 -1396.2513,1753.6304 -1388.3333,1727.8308 C -1384.3744,1715.426 -1384.3744,1704.7367 -1387.6735,1695.763 C -1391.6325,1687.0532 -1397.5709,1680.9826 -1406.1488,1677.5515 C -1408.1284,1676.8257 -1410.7677,1676.1658 -1413.407,1675.638 C -1412.0873,1675.1761 -1410.7677,1674.6482 -1409.448,1674.0544 C -1398.2308,1667.5221 -1392.2924,1658.0204 -1390.9727,1645.6155 C -1390.3128,1633.1447 -1394.9317,1621.8616 -1406.1488,1611.5681 C -1418.0258,1601.2088 -1435.1815,1596.1941 -1458.2757,1596.4579 C -1495.8862,1598.6354 -1517.6607,1615.3291 -1524.2591,1646.5394 C -1524.2591,1649.6406 -1524.9189,1652.8077 -1524.9189,1656.0409 L -1474.7715,1656.0409 C -1474.7715,1654.9852 -1474.7715,1653.9294 -1474.7715,1652.8738 C -1474.1118,1648.4529 -1472.7921,1644.7578 -1470.8126,1641.5905 C -1468.1731,1638.4893 -1464.8741,1636.4439 -1460.915,1635.3882 C -1454.9766,1633.8705 -1449.6978,1634.5964 -1445.079,1637.5656 C -1444.4192,1638.1594 -1443.7594,1638.8193 -1443.0995,1639.5451 C -1440.4602,1642.5144 -1439.1405,1645.8795 -1439.8004,1649.5746 C -1440.4602,1653.2697 -1442.4397,1656.3049 -1446.3987,1658.6803 C -1449.6978,1661.1877 -1456.2962,1662.3754 -1465.5339,1662.1774 C -1466.1937,1662.0454 -1467.5134,1661.9135 -1468.833,1661.7815 L -1468.833,1697.3465 C -1467.5134,1697.0826 -1466.1937,1696.8847 -1464.8741,1696.8847 C -1457.6158,1696.2908 -1452.3373,1696.8186 -1448.3782,1698.4683 C -1440.4602,1702.2293 -1437.161,1708.1019 -1439.1405,1716.2178 C -1440.4602,1722.4862 -1445.079,1726.3792 -1452.3373,1728.0948 C -1458.9355,1729.1506 -1464.2142,1727.8308 -1468.833,1724.0698 C -1473.4519,1720.5067 -1476.0912,1714.8981 -1476.751,1707.1121 C -1476.751,1705.7264 -1477.4109,1704.2088 -1477.4109,1702.6912 L -1527.5583,1702.6912 z "
         style="fill:#000000;fill-rule:nonzero;stroke:none"
         id="path15169" />
      <path
         d="M -1379.0956,1766.2992 L -1295.9566,1766.2992 C -1245.1494,1766.1012 -1218.756,1737.5304 -1217.4364,1680.5208 C -1220.0757,1626.8103 -1247.1289,1599.5591 -1299.2558,1598.6354 L -1379.0956,1598.6354 L -1379.0956,1766.2992 z M -1323.0098,1720.9026 L -1323.0098,1643.768 L -1309.1533,1643.768 C -1290.0181,1643.504 -1278.8009,1653.4676 -1275.5018,1673.7904 C -1274.842,1679.2671 -1274.842,1684.8757 -1276.1616,1690.5503 C -1280.1206,1710.9391 -1290.6779,1721.0346 -1307.8337,1720.9026 L -1323.0098,1720.9026 z "
         style="fill:#000000;fill-rule:nonzero;stroke:none"
         id="path15171" />
      <path
         d="M -1175.207,1640.7987 C -1167.289,1616.3849 -1164.6497,1610.0505 -1162.0103,1601.9346 L -1162.6702,1600.5489 C -1173.2275,1601.4727 -1187.084,1605.7616 -1191.703,1607.3452 C -1192.3627,1608.005 -1192.3627,1610.0505 -1191.703,1610.9743 L -1187.084,1612.7559 C -1183.7849,1614.3395 -1181.8054,1616.5829 -1187.084,1632.4189 L -1223.3749,1739.4439 C -1226.674,1750.991 -1227.9937,1755.082 -1227.9937,1758.711 C -1227.9937,1762.3401 -1226.0143,1765.5073 -1219.4159,1765.5073 C -1200.2807,1765.5073 -1186.4242,1746.7021 -1180.4858,1735.4189 C -1180.4858,1733.1095 -1181.8054,1731.9878 -1183.7849,1732.2517 C -1194.3422,1743.9968 -1204.8996,1755.082 -1210.1783,1755.082 C -1212.1577,1755.082 -1212.8176,1752.8386 -1210.838,1747.6259 L -1175.207,1640.7987 z "
         style="fill:#000000;fill-rule:nonzero;stroke:none"
         id="path15173" />
      <path
         d="M -1098.6664,1679.2671 C -1099.986,1677.0237 -1102.6253,1674.9781 -1103.2852,1674.5163 C -1104.6048,1673.8564 -1106.5844,1673.1967 -1108.5638,1673.1967 C -1114.5024,1673.1967 -1120.4409,1674.7802 -1129.0186,1679.729 C -1138.2564,1684.9417 -1148.1538,1693.9814 -1158.7113,1708.8937 C -1173.8874,1729.4805 -1179.166,1747.6259 -1179.166,1752.8386 C -1179.166,1759.173 -1175.207,1765.5073 -1169.2686,1765.5073 C -1158.0514,1765.5073 -1134.9572,1749.8693 -1119.1212,1729.9423 L -1118.4613,1730.2062 L -1125.7196,1750.5292 C -1127.699,1755.7419 -1128.3589,1757.7873 -1128.3589,1759.3709 C -1128.3589,1761.2184 -1127.0392,1765.5073 -1121.7605,1765.5073 C -1109.2237,1765.5073 -1093.3877,1752.8386 -1083.4901,1740.1697 C -1083.4901,1738.3222 -1085.4696,1737.2005 -1086.7893,1737.2005 C -1099.986,1748.4836 -1106.5844,1752.3766 -1109.8836,1752.3766 C -1111.863,1752.3766 -1113.1827,1750.991 -1111.863,1747.164 C -1104.6048,1726.5772 -1084.8099,1676.5618 -1081.5107,1668.1819 C -1082.8304,1665.2787 -1088.7688,1662.9692 -1092.7279,1664.8167 L -1098.6664,1679.2671 z M -1115.822,1681.7744 C -1109.8836,1681.7744 -1105.9245,1685.6015 -1104.6048,1689.8904 C -1107.904,1703.2851 -1117.8016,1722.7502 -1134.9572,1738.7841 C -1147.4941,1750.5292 -1154.7522,1753.4983 -1156.7317,1753.4983 C -1158.7113,1753.4983 -1160.0309,1751.9148 -1160.0309,1749.2095 C -1160.0309,1733.1095 -1146.1743,1703.483 -1131.6581,1690.6162 C -1125.0597,1684.2818 -1121.1006,1681.7744 -1115.822,1681.7744 z "
         style="fill:#000000;fill-rule:nonzero;stroke:none"
         id="path15175" />
      <path
         d="M -1026.7445,1632.023 C -1023.4453,1623.1812 -1020.1462,1614.6034 -1015.5273,1601.9346 L -1016.1871,1600.5489 C -1026.7445,1600.2849 -1039.2814,1603.2542 -1043.9002,1604.8379 C -1044.56,1605.7616 -1044.56,1607.0812 -1044.56,1608.005 L -1039.2814,1611.6342 C -1035.9822,1613.6796 -1036.6419,1617.7046 -1041.2608,1630.3733 L -1067.6541,1700.1178 C -1074.2525,1717.7354 -1078.8713,1734.0333 -1078.8713,1744.6566 C -1078.8713,1757.5893 -1072.9328,1765.5073 -1061.0559,1765.5073 C -1053.1378,1765.5073 -1036.6419,1761.4163 -1017.5067,1743.5349 C -999.69134,1725.6534 -988.47414,1705.9904 -988.47414,1690.3523 C -988.47414,1678.8051 -994.41264,1669.9634 -1008.2691,1669.9634 C -1024.765,1669.9634 -1039.9411,1685.4035 -1055.7771,1709.3555 L -1056.437,1709.3555 L -1026.7445,1632.023 z M -1011.5683,1677.6834 C -1007.6093,1677.6834 -1003.6503,1679.729 -1003.6503,1685.8654 C -1003.6503,1698.7322 -1020.1462,1727.5009 -1034.0026,1743.3369 C -1043.9002,1754.1582 -1052.478,1758.4472 -1055.7771,1758.4472 C -1059.7362,1758.4472 -1063.6952,1755.5439 -1063.6952,1746.7021 C -1063.6952,1736.2768 -1057.0968,1717.7354 -1042.5804,1701.4375 C -1028.7239,1685.4035 -1017.5067,1677.6834 -1011.5683,1677.6834 z "
         style="fill:#000000;fill-rule:nonzero;stroke:none"
         id="path15177" />
      <path
         d="M -952.18334,1669.9634 C -955.48244,1669.9634 -962.74064,1671.811 -969.33894,1677.4855 C -978.57664,1685.8654 -982.53564,1692.3978 -982.53564,1701.2395 C -982.53564,1705.0665 -980.55614,1712.7866 -974.61764,1722.2882 C -969.33894,1731.3279 -966.03974,1738.3222 -966.03974,1742.1492 C -966.03974,1749.4075 -971.97824,1755.082 -977.25694,1755.082 C -983.19544,1755.082 -989.79384,1749.4075 -993.09304,1746.0423 C -994.41264,1744.4586 -997.05194,1744.4586 -999.03144,1746.0423 C -1001.6707,1748.7476 -1002.3306,1751.2549 -1002.3306,1753.4983 C -1002.3306,1758.711 -997.05194,1765.5073 -988.47414,1765.5073 C -979.89624,1765.5073 -971.31854,1762.538 -965.38004,1757.3254 C -957.46204,1750.0672 -954.16284,1741.7533 -954.16284,1735.6169 C -953.50294,1725.6534 -956.80214,1720.0448 -962.74064,1710.4772 C -969.33894,1699.392 -969.99884,1694.6412 -969.99884,1689.8904 C -969.99884,1686.5252 -967.35944,1680.8507 -960.76124,1680.8507 C -954.16284,1680.8507 -950.86364,1684.2818 -946.90454,1688.1088 C -945.58494,1689.8904 -944.26524,1690.3523 -942.94564,1689.8904 C -940.96614,1689.0326 -938.98654,1686.5252 -938.98654,1682.8961 C -938.98654,1677.2216 -944.26524,1669.9634 -952.18334,1669.9634 z "
         style="fill:#000000;fill-rule:nonzero;stroke:none"
         id="path15179" />
      <path
         d="M -943.60544,1750.9251 C -945.58494,1752.5746 -946.24484,1754.5541 -946.24484,1756.7975 C -946.24484,1759.1069 -945.58494,1761.0865 -943.60544,1762.736 C -942.28574,1764.3856 -940.30634,1765.1775 -937.66694,1765.1775 C -935.68754,1765.1775 -933.70794,1764.3856 -931.72844,1762.736 C -930.40884,1761.0865 -929.74894,1759.1069 -929.74894,1756.7975 C -929.74894,1754.5541 -930.40884,1752.5746 -931.72844,1750.9251 C -933.70794,1749.2754 -935.68754,1748.4836 -937.66694,1748.4836 C -940.30634,1748.4836 -942.28574,1749.2754 -943.60544,1750.9251 z M -931.06854,1763.6599 C -933.04814,1765.5734 -935.02764,1766.4971 -937.66694,1766.4971 C -940.30634,1766.4971 -942.94564,1765.5734 -944.92514,1763.6599 C -946.24484,1761.8123 -947.56444,1759.5028 -947.56444,1756.7975 C -947.56444,1754.1582 -946.24484,1751.9148 -944.92514,1750.0012 C -942.94564,1748.1537 -940.30634,1747.23 -937.66694,1747.23 C -935.02764,1747.23 -933.04814,1748.1537 -931.06854,1750.0012 C -929.08914,1751.9148 -928.42924,1754.1582 -928.42924,1756.7975 C -928.42924,1759.5028 -929.08914,1761.7464 -931.06854,1763.6599 z M -935.68754,1753.1685 C -936.34724,1752.9045 -937.00714,1752.7725 -938.32684,1752.7725 L -939.64644,1752.7725 L -939.64644,1756.5996 L -938.32684,1756.5996 C -937.66694,1756.5996 -937.00714,1756.5337 -936.34724,1756.4016 C -935.68754,1756.0717 -935.02764,1755.5439 -935.02764,1754.6861 C -935.02764,1753.9603 -935.68754,1753.4324 -935.68754,1753.1685 z M -937.66694,1751.5189 C -937.00714,1751.5189 -935.68754,1751.5848 -935.02764,1751.8488 C -933.70794,1752.3106 -933.70794,1753.2345 -933.70794,1754.5541 C -933.70794,1755.4779 -933.70794,1756.2037 -934.36774,1756.6656 C -935.02764,1756.8635 -935.68754,1757.0615 -936.34724,1757.1934 C -935.02764,1757.3254 -934.36774,1757.6554 -934.36774,1758.1832 L -933.70794,1759.8327 L -933.70794,1760.6245 L -933.70794,1761.4163 L -933.70794,1761.9443 L -933.70794,1762.0762 L -935.02764,1762.0762 L -935.02764,1762.0102 L -935.02764,1761.8783 L -935.02764,1761.5484 L -935.02764,1760.6906 C -935.02764,1759.4369 -935.68754,1758.6451 -936.34724,1758.2492 C -937.00714,1757.9852 -937.66694,1757.9192 -938.32684,1757.9192 L -939.64644,1757.9192 L -939.64644,1762.0762 L -941.62604,1762.0762 L -941.62604,1751.5189 L -937.66694,1751.5189 z "
         style="fill:#000000;fill-rule:nonzero;stroke:none"
         id="path15181" />
    </g>
  </g>
</svg>
